{"glyphs":{"0":{"ha":758,"x_min":53,"x_max":706,"o":"m 265 692 q 244 652 265 692 q 224 458 224 611 q 265 223 224 306 q 379 140 306 140 q 494 222 453 140 q 535 458 535 304 q 492 693 535 613 q 378 774 450 774 q 265 692 307 774 m 378 925 q 457 925 378 925 q 620 799 535 925 q 706 459 706 674 q 622 117 706 244 q 380 -11 538 -11 q 138 117 222 -11 q 53 459 53 244 q 138 799 53 674 q 378 925 222 925 z "},"1":{"ha":497,"x_min":18,"x_max":406,"o":"m 406 0 l 240 0 l 240 728 l 18 593 l 18 767 l 258 908 l 406 908 l 406 0 z "},"2":{"ha":692,"x_min":46,"x_max":639,"o":"m 639 0 l 46 0 l 46 133 q 326 380 208 249 q 444 617 444 511 q 404 725 444 686 q 288 764 364 764 q 67 678 172 764 l 67 840 q 181 897 113 875 q 317 919 249 919 q 534 847 450 919 q 618 642 618 774 q 276 143 618 394 l 639 143 l 639 0 z "},"3":{"ha":661,"x_min":46,"x_max":604,"o":"m 604 250 q 520 65 604 136 q 290 -7 436 -7 q 46 39 144 -7 l 46 201 q 274 143 154 143 q 391 178 349 143 q 433 269 433 214 q 238 390 433 390 l 185 390 l 185 531 l 238 531 q 361 563 311 531 q 411 653 411 594 q 268 769 411 769 q 79 711 174 769 l 79 868 q 278 919 174 919 q 502 850 421 919 q 583 672 583 781 q 440 458 583 515 q 561 385 518 439 q 604 250 604 332 z "},"4":{"ha":769,"x_min":49,"x_max":739,"o":"m 619 0 l 453 0 l 453 204 l 49 204 l 49 347 l 351 910 l 619 910 l 619 347 l 739 347 l 739 204 l 619 204 l 619 0 m 453 347 l 453 804 l 214 347 l 453 347 z "},"5":{"ha":700,"x_min":61,"x_max":650,"o":"m 344 575 q 570 500 490 575 q 650 291 650 425 q 558 74 650 157 q 313 -10 467 -10 q 61 39 158 -10 l 61 199 q 274 143 153 143 q 478 300 478 143 q 434 396 478 361 q 297 431 390 431 q 103 383 204 431 l 103 910 l 592 910 l 592 767 l 267 767 l 267 567 q 344 575 307 575 z "},"6":{"ha":740,"x_min":58,"x_max":700,"o":"m 229 365 q 281 185 238 243 q 390 128 325 128 q 491 173 454 128 q 528 290 528 218 q 492 401 528 361 q 393 442 456 442 q 229 365 303 442 m 437 586 q 495 586 437 586 q 627 507 554 586 q 700 292 700 428 q 617 67 700 157 q 381 -22 533 -22 q 143 97 228 -22 q 58 414 58 215 q 179 787 58 644 q 494 929 300 929 q 631 907 569 929 l 631 750 q 506 778 576 778 q 325 703 394 778 q 236 510 256 628 q 437 586 319 586 z "},"7":{"ha":651,"x_min":24,"x_max":628,"o":"m 24 765 l 24 910 l 628 910 l 628 765 l 267 0 l 89 0 l 451 765 l 24 765 z "},"8":{"ha":751,"x_min":57,"x_max":694,"o":"m 377 786 q 343 786 377 786 q 274 749 308 786 q 240 655 240 713 q 279 564 240 597 q 376 531 318 531 q 472 564 433 531 q 510 656 510 597 q 478 751 510 715 q 377 786 446 786 m 374 381 q 337 381 374 381 q 263 341 300 381 q 225 248 225 301 q 263 159 225 194 q 374 124 300 124 q 488 161 449 124 q 526 253 526 199 q 487 344 526 307 q 374 381 447 382 m 694 247 q 604 59 694 131 q 372 -12 514 -12 q 144 56 231 -12 q 57 240 57 124 q 200 456 57 393 q 71 651 71 521 q 158 852 71 782 q 375 922 244 922 q 592 856 506 922 q 678 657 678 789 q 553 460 678 525 q 694 247 694 404 z "},"9":{"ha":725,"x_min":36,"x_max":672,"o":"m 672 497 q 562 119 672 249 q 254 -11 451 -11 q 92 15 164 -11 l 92 175 q 239 142 164 142 q 500 389 467 142 q 315 319 438 319 q 114 399 192 319 q 36 612 36 479 q 118 833 36 744 q 350 921 200 921 q 586 805 500 921 q 672 497 672 689 m 351 458 q 506 532 447 458 q 459 709 500 649 q 351 769 418 769 q 247 728 285 769 q 208 615 208 686 q 247 501 208 543 q 351 458 286 458 z "}," ":{"ha":344,"x_min":0,"x_max":0,"o":""},"!":{"ha":382,"x_min":79,"x_max":299,"o":"m 188 208 q 211 208 188 208 q 267 176 235 208 q 299 98 299 144 q 267 20 299 51 q 188 -11 235 -11 q 110 20 142 -11 q 79 98 79 51 q 110 176 79 144 q 188 208 142 208 m 271 311 l 111 311 l 111 936 l 271 936 l 271 311 z "},"\"":{"ha":489,"x_min":58,"x_max":432,"o":"m 200 596 l 58 596 l 58 946 l 200 946 l 200 596 m 432 596 l 289 596 l 289 946 l 432 946 l 432 596 z "},"#":{"ha":1026,"x_min":67,"x_max":960,"o":"m 594 351 l 642 576 l 429 576 l 382 351 l 594 351 m 67 222 l 67 351 l 238 351 l 286 576 l 125 576 l 125 710 l 314 710 l 361 935 l 506 935 l 458 710 l 671 710 l 718 935 l 861 935 l 814 710 l 960 710 l 960 576 l 786 576 l 738 351 l 903 351 l 903 222 l 711 222 l 664 0 l 519 0 l 567 222 l 354 222 l 307 0 l 164 0 l 211 222 l 67 222 z "},"$":{"ha":708,"x_min":57,"x_max":651,"o":"m 397 -160 l 257 -160 l 257 -7 q 64 49 142 4 l 64 228 q 325 142 183 142 q 428 173 389 142 q 467 257 467 204 q 431 331 467 301 q 363 374 393 361 q 304 400 332 388 q 117 515 176 453 q 57 683 57 578 q 129 857 57 788 q 325 940 201 926 l 325 1093 l 467 1093 l 467 938 q 607 897 547 926 l 607 728 q 385 790 503 790 q 283 761 319 790 q 246 686 246 732 q 297 603 246 636 q 401 547 338 575 q 499 499 464 518 q 572 447 533 479 q 651 268 651 382 q 583 83 651 154 q 397 -6 514 11 l 397 -160 z "},"%":{"ha":1285,"x_min":65,"x_max":1221,"o":"m 973 347 q 950 347 973 347 q 896 315 928 347 q 864 237 864 282 q 896 159 864 192 q 973 126 928 126 q 1051 159 1018 126 q 1083 237 1083 192 q 1051 315 1083 282 q 973 347 1018 347 m 1148 411 q 1184 375 1148 411 q 1221 236 1221 339 q 1148 61 1221 133 q 973 -11 1075 -11 q 799 61 871 -11 q 726 236 726 133 q 799 411 726 339 q 973 483 871 483 q 1148 411 1075 483 m 312 840 q 289 840 312 840 q 234 808 267 840 q 201 730 201 775 q 234 652 201 685 q 312 619 267 619 q 390 652 357 619 q 422 730 422 685 q 390 808 422 775 q 312 840 357 840 m 313 976 q 364 976 313 976 q 488 904 415 976 q 560 730 560 832 q 487 555 560 628 q 312 482 414 482 q 138 554 210 482 q 65 729 65 626 q 138 904 65 832 q 313 976 210 976 m 457 -1 l 304 -1 l 819 960 l 974 960 l 457 -1 z "},"&":{"ha":1010,"x_min":78,"x_max":1006,"o":"m 249 251 q 249 226 249 251 q 307 165 249 200 q 456 131 365 131 q 617 169 547 131 l 385 393 q 280 335 311 368 q 249 251 249 303 m 726 65 q 447 -11 613 -11 q 180 64 282 -11 q 78 251 78 139 q 128 394 78 336 q 286 489 178 453 q 176 716 176 607 q 256 891 176 825 q 465 957 336 957 q 674 888 594 957 q 753 704 753 819 q 546 443 753 539 l 721 275 q 751 400 750 331 l 904 400 q 831 168 900 267 l 1006 0 l 794 0 l 726 65 m 347 710 q 453 536 347 644 q 583 696 583 603 q 551 784 583 751 q 465 817 518 817 q 379 789 411 817 q 347 710 347 761 z "},"'":{"ha":258,"x_min":58,"x_max":200,"o":"m 200 596 l 58 596 l 58 946 l 200 946 l 200 596 z "},"(":{"ha":456,"x_min":72,"x_max":478,"o":"m 297 -272 q 72 363 72 10 q 289 982 72 717 l 465 982 q 305 681 361 850 q 249 358 249 511 q 307 35 249 204 q 478 -272 365 -133 l 297 -272 z "},")":{"ha":456,"x_min":-22,"x_max":383,"o":"m -22 -272 q 147 35 89 -133 q 206 358 206 204 q 150 681 206 511 q -10 982 94 850 l 167 982 q 383 363 383 714 q 157 -272 383 11 l -22 -272 z "},"*":{"ha":653,"x_min":39,"x_max":614,"o":"m 231 625 q 168 636 200 625 l 39 678 l 82 807 l 210 765 q 269 733 244 754 q 258 801 258 764 l 258 936 l 394 936 l 394 801 q 383 735 394 764 q 443 765 406 753 l 572 807 l 614 678 l 486 636 q 424 626 453 626 l 418 626 q 467 579 446 608 l 546 469 l 436 390 l 357 499 q 328 557 336 531 q 297 500 319 531 l 217 390 l 107 469 l 188 579 q 235 625 210 607 l 231 625 z "},"+":{"ha":800,"x_min":69,"x_max":731,"o":"m 731 396 l 475 396 l 475 142 l 321 142 l 321 396 l 69 396 l 69 546 l 321 546 l 321 803 l 475 803 l 475 546 l 731 546 l 731 396 z "},",":{"ha":372,"x_min":-10,"x_max":319,"o":"m 135 -175 l -10 -175 l 126 168 l 319 168 l 135 -175 z "},"-":{"ha":490,"x_min":69,"x_max":422,"o":"m 422 297 l 69 297 l 69 438 l 422 438 l 422 297 z "},".":{"ha":310,"x_min":47,"x_max":263,"o":"m 231 173 q 247 157 231 173 q 263 97 263 142 q 231 21 263 53 q 156 -11 200 -11 q 79 21 111 -11 q 47 97 47 53 q 79 173 47 142 q 156 204 111 204 q 231 173 200 204 z "},"/":{"ha":613,"x_min":-7,"x_max":668,"o":"m 165 -143 l -7 -143 l 494 982 l 668 982 l 165 -143 z "},":":{"ha":371,"x_min":79,"x_max":292,"o":"m 260 181 q 276 166 260 181 q 292 106 292 150 q 260 31 292 61 q 185 0 229 0 q 110 31 140 0 q 79 106 79 61 q 110 181 79 150 q 185 213 140 213 q 260 181 229 213 m 260 637 q 276 621 260 637 q 292 561 292 606 q 260 485 292 517 q 185 454 229 454 q 110 485 140 454 q 79 561 79 517 q 110 637 79 606 q 185 668 140 668 q 260 637 229 668 z "},";":{"ha":372,"x_min":-10,"x_max":319,"o":"m 282 637 q 298 621 282 637 q 314 561 314 606 q 282 485 314 517 q 206 454 250 454 q 131 485 161 454 q 100 561 100 517 q 131 637 100 606 q 206 668 161 668 q 282 637 250 668 m 135 -175 l -10 -175 l 126 168 l 319 168 l 135 -175 z "},"<":{"ha":785,"x_min":69,"x_max":721,"o":"m 721 307 l 721 140 l 69 393 l 69 553 l 721 806 l 721 638 l 238 474 l 721 307 z "},"=":{"ha":800,"x_min":69,"x_max":731,"o":"m 731 251 l 69 251 l 69 392 l 731 392 l 731 251 m 731 554 l 69 554 l 69 693 l 731 693 l 731 554 z "},">":{"ha":785,"x_min":65,"x_max":717,"o":"m 717 393 l 65 140 l 65 307 l 547 474 l 65 638 l 65 806 l 717 553 l 717 393 z "},"?":{"ha":633,"x_min":81,"x_max":588,"o":"m 260 208 q 284 208 260 208 q 339 176 307 208 q 371 98 371 144 q 339 20 371 51 q 260 -11 307 -11 q 183 20 214 -11 q 151 98 151 51 q 183 176 151 144 q 260 208 214 208 m 417 676 q 381 769 417 735 q 260 804 344 804 q 81 742 176 804 l 81 901 q 297 947 168 947 q 507 879 426 947 q 588 693 588 811 q 563 581 588 631 q 500 501 538 531 q 343 439 425 444 l 340 311 l 186 311 l 182 529 q 417 676 417 529 z "},"@":{"ha":1319,"x_min":67,"x_max":1264,"o":"m 508 293 q 508 254 508 293 q 545 175 508 215 q 634 135 582 135 q 730 172 686 135 q 790 278 774 210 q 792 307 792 288 q 793 336 792 326 q 749 442 783 406 q 655 478 714 478 q 552 424 596 478 q 508 293 508 371 m 622 -275 q 215 -117 364 -275 q 67 276 67 42 q 153 594 67 450 q 387 820 240 739 q 707 901 533 901 q 1101 758 938 901 q 1264 378 1264 614 q 1184 113 1264 215 q 996 11 1104 11 q 803 151 846 11 q 593 11 739 11 q 422 91 485 11 q 358 299 358 171 q 440 515 358 428 q 635 601 522 601 q 803 506 749 601 q 808 597 806 536 l 944 597 q 922 289 922 390 q 1001 142 922 142 q 1089 203 1054 142 q 1124 367 1124 264 q 1005 663 1124 561 q 690 764 886 764 q 355 619 493 764 q 217 277 217 474 q 334 -28 217 81 q 622 -137 451 -137 q 889 -75 764 -137 l 883 -221 q 622 -275 771 -275 z "},"A":{"ha":936,"x_min":39,"x_max":899,"o":"m 222 0 l 39 0 l 356 936 l 582 936 l 899 0 l 710 0 l 643 213 l 289 213 l 222 0 m 467 806 q 335 356 456 746 l 599 356 q 467 806 483 735 z "},"B":{"ha":822,"x_min":97,"x_max":769,"o":"m 415 401 l 272 401 l 272 143 l 422 143 q 590 271 590 143 q 415 401 590 401 m 407 793 l 272 793 l 272 542 l 378 542 q 519 579 472 542 q 567 673 567 617 q 527 761 567 729 q 407 793 488 793 m 476 0 l 97 0 l 97 936 l 429 936 q 663 865 579 936 q 746 682 746 794 q 704 549 746 606 q 597 475 663 493 q 721 402 672 457 q 769 244 769 347 q 692 71 769 142 q 476 0 614 0 z "},"C":{"ha":846,"x_min":60,"x_max":781,"o":"m 539 -11 q 195 120 331 -11 q 60 466 60 251 q 194 815 60 681 q 539 949 328 949 q 779 897 693 949 l 779 726 q 546 788 674 788 q 333 701 418 788 q 247 468 247 614 q 333 236 247 322 q 553 150 418 150 q 781 219 688 150 l 781 44 q 539 -11 694 -11 z "},"D":{"ha":938,"x_min":97,"x_max":879,"o":"m 397 789 l 276 789 l 276 146 l 400 146 q 624 237 547 146 q 700 472 700 328 q 619 702 700 615 q 397 789 538 789 m 403 0 l 97 0 l 97 936 l 403 936 q 746 807 613 936 q 879 472 879 678 q 750 133 879 265 q 403 0 621 0 z "},"E":{"ha":733,"x_min":97,"x_max":656,"o":"m 656 0 l 97 0 l 97 936 l 650 936 l 650 793 l 274 793 l 274 539 l 608 539 l 608 397 l 274 397 l 274 143 l 656 143 l 656 0 z "},"F":{"ha":693,"x_min":97,"x_max":646,"o":"m 599 374 l 274 374 l 274 0 l 97 0 l 97 936 l 646 936 l 646 793 l 274 793 l 274 517 l 599 517 l 599 374 z "},"G":{"ha":963,"x_min":60,"x_max":875,"o":"m 556 -11 q 197 118 333 -11 q 60 467 60 247 q 201 819 60 686 q 557 953 342 953 q 831 893 717 953 l 831 714 q 561 790 703 790 q 333 703 419 790 q 247 468 247 615 q 331 235 247 321 q 563 150 415 150 q 703 175 635 150 l 703 396 l 531 396 l 531 546 l 875 546 l 875 96 l 874 96 l 875 81 q 556 -11 747 -11 z "},"H":{"ha":931,"x_min":97,"x_max":833,"o":"m 833 0 l 657 0 l 657 393 l 272 393 l 272 0 l 97 0 l 97 936 l 272 936 l 272 544 l 657 544 l 657 936 l 833 936 l 833 0 z "},"I":{"ha":392,"x_min":108,"x_max":283,"o":"m 283 0 l 108 0 l 108 936 l 283 936 l 283 0 z "},"J":{"ha":526,"x_min":42,"x_max":435,"o":"m 435 267 q 368 67 435 135 q 185 -1 301 -1 q 42 28 97 -1 l 42 186 q 153 153 94 153 q 260 267 260 153 l 260 935 l 435 935 l 435 267 z "},"K":{"ha":872,"x_min":97,"x_max":843,"o":"m 272 0 l 97 0 l 97 936 l 272 936 l 272 0 m 843 0 l 622 0 l 286 464 l 610 936 l 819 936 l 494 467 l 843 0 z "},"L":{"ha":672,"x_min":97,"x_max":638,"o":"m 638 0 l 97 0 l 97 936 l 272 936 l 272 156 l 638 156 l 638 0 z "},"M":{"ha":1222,"x_min":81,"x_max":1142,"o":"m 256 0 l 81 0 l 156 936 l 356 936 q 551 410 526 481 q 600 254 575 339 q 719 596 643 399 l 850 936 l 1050 936 l 1142 0 l 967 0 l 933 365 l 908 693 q 658 14 871 588 l 539 14 l 411 365 l 301 689 q 256 0 301 603 z "},"N":{"ha":956,"x_min":97,"x_max":860,"o":"m 272 0 l 97 0 l 97 936 l 296 936 q 622 364 579 443 q 694 215 664 285 q 683 546 683 331 l 683 936 l 860 936 l 860 0 l 660 0 l 432 389 q 257 725 324 572 q 272 390 272 593 l 272 0 z "},"O":{"ha":1004,"x_min":60,"x_max":944,"o":"m 502 792 q 443 792 502 792 q 315 706 383 792 q 247 472 247 619 q 317 238 247 324 q 503 151 386 151 q 689 237 621 151 q 757 471 757 322 q 689 706 757 619 q 502 792 621 792 m 503 953 q 604 953 503 953 q 825 822 706 953 q 944 472 944 690 q 824 122 944 254 q 503 -10 704 -10 q 181 122 301 -10 q 60 472 60 254 q 180 821 60 689 q 503 953 300 953 z "},"P":{"ha":772,"x_min":97,"x_max":739,"o":"m 375 793 l 272 793 l 272 460 l 371 460 q 514 506 467 460 q 561 628 561 551 q 514 749 561 706 q 375 793 467 793 m 394 318 l 272 318 l 272 0 l 97 0 l 97 936 l 390 936 q 644 850 549 936 q 739 625 739 764 q 641 402 739 486 q 394 318 543 318 z "},"Q":{"ha":1013,"x_min":60,"x_max":996,"o":"m 502 792 q 443 792 502 792 q 315 706 383 792 q 247 472 247 619 q 317 238 247 324 q 503 151 386 151 q 689 237 621 151 q 757 471 757 322 q 689 706 757 619 q 502 792 621 792 m 944 471 q 883 206 944 318 q 711 38 822 93 l 996 -128 l 799 -204 l 524 -10 l 503 -10 q 181 122 301 -10 q 60 472 60 254 q 180 821 60 689 q 503 953 300 953 q 825 822 706 953 q 944 471 944 690 z "},"R":{"ha":818,"x_min":97,"x_max":790,"o":"m 272 0 l 97 0 l 97 936 l 386 936 q 637 856 546 936 q 728 640 728 775 q 679 472 726 540 q 550 369 632 403 l 790 0 l 581 0 l 368 342 l 272 342 l 272 0 m 386 792 l 272 792 l 272 486 l 389 486 q 510 527 469 486 q 550 641 550 568 q 508 753 550 714 q 386 792 465 792 z "},"S":{"ha":719,"x_min":68,"x_max":663,"o":"m 663 260 q 663 199 663 260 q 573 63 663 138 q 331 -11 483 -11 q 75 49 179 -11 l 75 228 q 336 142 194 142 q 439 173 400 142 q 478 257 478 204 q 468 301 478 282 q 428 340 458 321 q 296 408 369 379 q 213 451 244 432 q 143 501 181 469 q 68 682 68 565 q 156 871 68 799 q 383 943 244 943 q 618 897 522 943 l 618 728 q 396 790 514 790 q 294 761 331 790 q 257 686 257 732 q 297 610 257 640 q 403 550 336 581 q 506 501 471 519 q 581 449 540 482 q 663 260 663 382 z "},"T":{"ha":722,"x_min":36,"x_max":688,"o":"m 688 792 l 450 792 l 450 0 l 274 0 l 274 792 l 36 792 l 36 936 l 688 936 l 688 792 z "},"U":{"ha":915,"x_min":92,"x_max":824,"o":"m 824 360 q 726 83 824 178 q 459 -12 628 -12 q 191 81 290 -12 q 92 350 92 175 l 92 936 l 267 936 l 267 351 q 319 197 267 244 q 457 149 372 149 q 649 358 649 149 l 649 936 l 824 936 l 824 360 z "},"V":{"ha":904,"x_min":35,"x_max":868,"o":"m 549 0 l 349 0 l 35 936 l 225 936 q 451 158 411 335 q 564 564 485 314 l 681 936 l 868 936 l 549 0 z "},"W":{"ha":1331,"x_min":35,"x_max":1296,"o":"m 486 0 l 285 0 l 35 936 l 219 936 q 396 190 339 463 q 599 922 442 369 l 740 922 l 836 590 l 947 188 q 1033 592 982 381 l 1118 936 l 1296 936 l 1057 0 l 854 0 q 671 657 699 543 q 486 0 651 557 z "},"X":{"ha":894,"x_min":44,"x_max":851,"o":"m 254 0 l 44 0 l 342 474 l 58 936 l 263 936 l 442 629 l 615 936 l 828 936 l 544 474 l 851 0 l 643 0 l 444 324 l 254 0 z "},"Y":{"ha":867,"x_min":25,"x_max":842,"o":"m 519 0 l 344 0 l 344 342 l 25 936 l 229 936 q 431 482 397 572 q 574 800 443 533 l 638 936 l 842 936 l 519 347 l 519 0 z "},"Z":{"ha":835,"x_min":79,"x_max":756,"o":"m 756 0 l 79 0 l 79 133 l 526 793 l 86 793 l 86 936 l 738 936 l 738 807 l 289 143 l 756 143 l 756 0 z "},"[":{"ha":476,"x_min":97,"x_max":461,"o":"m 461 -265 l 97 -265 l 97 982 l 461 982 l 461 836 l 257 836 l 257 -118 l 461 -118 l 461 -265 z "},"\\":{"ha":613,"x_min":-57,"x_max":619,"o":"m 619 -143 l 446 -143 l -57 982 l 118 982 l 619 -143 z "},"]":{"ha":476,"x_min":15,"x_max":379,"o":"m 379 -265 l 15 -265 l 15 -118 l 219 -118 l 219 836 l 15 836 l 15 982 l 379 982 l 379 -265 z "},"^":{"ha":667,"x_min":53,"x_max":614,"o":"m 210 461 l 53 461 l 257 825 l 411 825 l 614 461 l 456 461 l 333 696 l 210 461 z "},"_":{"ha":767,"x_min":32,"x_max":735,"o":"m 735 -196 l 32 -196 l 32 -56 l 735 -56 l 735 -196 z "},"`":{"ha":653,"x_min":176,"x_max":478,"o":"m 478 874 l 338 874 l 176 1108 l 351 1108 l 478 874 z "},"a":{"ha":704,"x_min":56,"x_max":622,"o":"m 274 -6 q 115 53 174 -6 q 56 206 56 111 q 131 357 56 300 q 347 414 206 414 l 450 414 l 450 457 q 419 546 450 515 q 315 576 389 576 q 108 514 203 576 l 108 668 q 336 717 188 717 q 622 450 622 717 l 622 0 l 457 0 l 457 85 q 274 -6 408 -6 m 332 118 q 419 151 388 118 q 450 236 450 183 l 450 303 l 364 303 q 264 276 299 303 q 229 207 229 249 q 332 118 229 118 z "},"b":{"ha":826,"x_min":92,"x_max":774,"o":"m 435 572 q 400 572 435 572 q 313 519 365 572 q 260 357 260 465 q 310 191 260 249 q 433 133 360 133 q 556 193 507 133 q 604 353 604 253 q 555 513 604 454 q 435 572 506 572 m 260 0 l 92 0 l 92 982 l 260 982 l 260 597 q 468 714 333 714 q 688 616 603 714 q 774 360 774 518 q 692 96 774 201 q 472 -10 611 -10 q 260 108 333 -10 l 260 0 z "},"c":{"ha":653,"x_min":53,"x_max":600,"o":"m 417 -12 q 153 90 254 -12 q 53 349 53 193 q 153 610 54 504 q 425 715 253 715 q 600 676 528 715 l 600 529 q 438 574 531 574 q 285 513 344 574 q 224 350 225 451 q 284 189 226 250 q 434 128 342 128 q 600 175 526 128 l 600 31 q 417 -12 526 -12 z "},"d":{"ha":825,"x_min":53,"x_max":735,"o":"m 735 0 l 568 0 l 568 110 q 356 -10 496 -10 q 134 96 215 -10 q 53 360 53 201 q 138 616 53 518 q 359 714 224 714 q 568 596 494 714 l 568 982 l 735 982 l 735 0 m 392 572 q 357 572 392 572 q 273 513 322 572 q 224 353 224 454 q 272 193 224 253 q 394 133 321 133 q 518 191 468 133 q 568 357 568 249 q 515 519 568 465 q 392 572 463 572 z "},"e":{"ha":735,"x_min":53,"x_max":672,"o":"m 514 431 q 477 540 511 499 q 381 581 443 581 q 274 537 318 581 q 218 410 231 493 l 514 410 l 514 431 m 415 -7 q 150 93 247 -7 q 53 356 53 193 q 144 615 53 519 q 374 711 236 711 q 592 628 511 711 q 672 385 672 544 q 663 285 672 346 l 221 285 q 297 168 239 208 q 453 128 354 128 q 628 183 551 128 l 628 39 q 415 -7 554 -7 z "},"f":{"ha":472,"x_min":42,"x_max":482,"o":"m 451 579 l 311 579 l 311 0 l 144 0 l 144 579 l 42 579 l 42 704 l 144 704 l 144 746 q 210 931 144 864 q 390 997 275 997 q 482 985 443 997 l 482 844 q 413 858 446 858 q 311 744 311 858 l 311 704 l 451 704 l 451 579 z "},"g":{"ha":793,"x_min":58,"x_max":711,"o":"m 385 569 q 350 569 385 569 q 274 513 315 569 q 232 360 232 457 q 275 210 232 263 q 385 158 318 158 q 499 212 453 158 q 544 365 544 265 q 500 517 544 464 q 385 569 456 569 m 711 64 q 615 -187 711 -103 q 374 -271 518 -271 q 126 -221 231 -271 l 126 -51 q 353 -118 221 -118 q 544 65 544 -118 l 544 126 q 353 22 481 22 q 142 109 226 22 q 58 355 58 196 q 138 613 58 514 q 349 713 218 713 q 544 603 481 713 l 544 704 l 711 704 l 711 64 z "},"h":{"ha":785,"x_min":90,"x_max":701,"o":"m 701 0 l 535 0 l 535 432 q 501 536 535 499 q 410 574 467 574 q 305 528 353 574 q 257 378 257 482 l 257 0 l 90 0 l 90 982 l 257 982 l 257 585 q 472 713 314 713 q 638 648 575 713 q 701 461 701 583 l 701 0 z "},"i":{"ha":361,"x_min":81,"x_max":281,"o":"m 181 1015 q 201 1015 181 1015 q 251 986 222 1015 q 281 915 281 957 q 251 843 281 872 q 181 814 222 814 q 110 843 139 814 q 81 915 81 872 q 110 986 81 957 q 181 1015 139 1015 m 264 0 l 97 0 l 97 704 l 264 704 l 264 0 z "},"j":{"ha":357,"x_min":-58,"x_max":283,"o":"m 183 1015 q 204 1015 183 1015 q 254 986 225 1015 q 283 915 283 957 q 254 843 283 872 q 183 814 225 814 q 111 843 140 814 q 82 915 82 872 q 111 986 82 957 q 183 1015 140 1015 m 267 -47 q 210 -212 267 -151 q 47 -274 153 -274 q -58 -251 -3 -274 l -58 -119 q 26 -140 -10 -140 q 100 -44 100 -140 l 100 704 l 267 704 l 267 -47 z "},"k":{"ha":725,"x_min":90,"x_max":706,"o":"m 257 0 l 90 0 l 90 965 l 257 965 l 257 374 l 506 704 l 700 704 l 442 368 l 706 0 l 510 0 l 257 364 l 257 0 z "},"l":{"ha":361,"x_min":97,"x_max":264,"o":"m 264 0 l 97 0 l 97 982 l 264 982 l 264 0 z "},"m":{"ha":1171,"x_min":90,"x_max":1089,"o":"m 1089 0 l 921 0 l 921 432 q 813 574 921 574 q 716 526 758 574 q 674 378 674 479 l 674 0 l 506 0 l 506 432 q 397 574 506 574 q 300 526 343 574 q 257 378 257 479 l 257 0 l 90 0 l 90 704 l 257 704 l 257 593 q 463 713 317 713 q 656 579 610 713 q 739 678 683 643 q 865 713 794 713 q 1031 648 972 713 q 1089 464 1089 583 l 1089 0 z "},"n":{"ha":785,"x_min":90,"x_max":701,"o":"m 701 0 l 535 0 l 535 433 q 501 538 535 503 q 407 574 468 574 q 301 523 346 574 q 257 378 257 472 l 257 0 l 90 0 l 90 704 l 257 704 l 257 583 q 474 713 317 713 q 640 649 579 713 q 701 468 701 585 l 701 0 z "},"o":{"ha":785,"x_min":53,"x_max":732,"o":"m 395 579 q 354 579 395 579 q 270 514 313 579 q 228 351 228 449 q 271 188 228 253 q 394 122 314 122 q 517 186 475 122 q 558 350 558 250 q 518 515 558 450 q 395 579 478 579 m 397 715 q 475 715 397 715 q 643 613 554 715 q 732 353 732 511 q 642 92 732 194 q 392 -11 553 -11 q 142 89 232 -11 q 53 347 53 189 q 146 610 53 506 q 397 715 239 715 z "},"p":{"ha":825,"x_min":90,"x_max":772,"o":"m 310 518 q 283 491 310 518 q 257 357 257 464 q 308 192 257 250 q 433 133 360 133 q 554 191 507 133 q 601 353 601 249 q 554 515 601 457 q 435 572 507 572 q 310 518 363 572 m 257 -265 l 90 -265 l 90 704 l 257 704 l 257 596 q 471 714 332 714 q 691 615 610 714 q 772 357 772 517 q 691 94 772 197 q 469 -10 610 -10 q 257 106 329 -10 l 257 -265 z "},"q":{"ha":825,"x_min":53,"x_max":735,"o":"m 735 -265 l 568 -265 l 568 108 q 356 -10 496 -10 q 135 94 217 -10 q 53 357 53 197 q 135 615 53 517 q 356 714 218 714 q 568 596 493 714 l 568 704 l 735 704 l 735 -265 m 272 513 q 248 484 272 513 q 224 353 224 454 q 273 192 224 251 q 394 133 322 133 q 517 192 467 133 q 568 357 568 250 q 516 518 568 464 q 392 572 464 572 q 272 513 321 572 z "},"r":{"ha":490,"x_min":89,"x_max":482,"o":"m 257 0 l 89 0 l 90 704 l 257 704 l 257 579 q 435 710 306 710 q 482 706 464 710 l 482 544 q 411 558 450 558 q 300 503 343 558 q 257 364 257 447 l 257 0 z "},"s":{"ha":593,"x_min":75,"x_max":550,"o":"m 550 203 q 479 49 550 104 q 284 -7 408 -7 q 79 36 160 -7 l 79 189 q 281 126 172 126 q 352 144 326 126 q 378 185 378 161 q 369 224 378 210 q 338 253 361 239 q 276 284 307 271 q 242 299 244 297 q 236 301 240 300 q 229 304 232 303 q 75 504 75 374 q 149 657 75 601 q 331 713 222 713 q 511 682 440 713 l 511 535 q 338 576 442 576 q 270 558 294 576 q 246 510 246 539 q 258 474 246 486 q 279 454 271 461 q 303 439 288 447 q 360 413 340 421 q 503 323 456 372 q 550 203 550 274 z "},"t":{"ha":526,"x_min":21,"x_max":479,"o":"m 354 -7 q 126 224 126 -7 l 126 579 l 21 579 l 21 704 l 126 704 l 126 874 l 293 874 l 293 704 l 468 704 l 468 579 l 293 579 l 293 221 q 317 153 293 176 q 388 131 340 131 q 479 160 435 131 l 479 17 q 354 -7 431 -7 z "},"u":{"ha":785,"x_min":83,"x_max":694,"o":"m 694 0 l 526 0 l 526 115 q 310 -7 471 -7 q 143 54 203 -7 q 83 228 83 115 l 83 704 l 250 704 l 250 267 q 283 165 250 200 q 380 131 315 131 q 485 179 444 131 q 526 326 526 228 l 526 704 l 694 704 l 694 0 z "},"v":{"ha":728,"x_min":18,"x_max":711,"o":"m 453 0 l 272 0 l 18 704 l 193 704 q 363 131 347 210 q 442 406 376 208 l 539 704 l 711 704 l 453 0 z "},"w":{"ha":1113,"x_min":18,"x_max":1094,"o":"m 421 0 l 240 0 l 18 704 l 192 704 q 331 160 311 269 q 411 472 344 244 l 479 704 l 631 704 q 779 158 761 260 q 861 472 793 240 l 928 704 l 1094 704 l 871 0 l 690 0 q 556 526 576 421 q 421 0 535 419 z "},"x":{"ha":706,"x_min":26,"x_max":686,"o":"m 210 0 l 26 0 l 272 356 l 42 704 l 229 704 l 361 475 l 500 704 l 686 704 l 442 354 l 678 0 l 493 0 l 354 236 l 210 0 z "},"y":{"ha":718,"x_min":8,"x_max":706,"o":"m 129 -262 q 60 -256 89 -262 l 60 -118 q 107 -124 82 -124 q 286 14 233 -124 l 8 704 l 193 704 q 368 206 351 268 q 531 704 372 221 l 706 704 l 451 19 q 129 -262 346 -262 z "},"z":{"ha":651,"x_min":58,"x_max":594,"o":"m 594 0 l 58 0 l 58 124 l 385 571 l 71 571 l 71 704 l 576 704 l 576 588 l 249 135 l 594 135 l 594 0 z "},"{":{"ha":504,"x_min":60,"x_max":475,"o":"m 393 -278 q 246 -212 304 -278 q 188 -43 188 -146 q 199 47 188 -10 q 210 131 210 104 q 178 229 210 188 q 90 276 147 271 l 60 276 l 60 439 q 90 440 75 439 q 178 485 146 443 q 210 585 210 528 q 199 667 210 610 q 188 758 188 725 q 246 926 188 861 q 393 992 304 992 q 475 978 435 992 l 475 821 q 426 833 454 833 q 376 808 397 833 q 354 753 354 783 q 365 661 354 722 q 375 564 375 600 q 329 426 375 482 q 211 358 283 369 q 329 290 283 347 q 375 150 375 232 q 365 53 375 114 q 354 -38 354 -7 q 375 -94 354 -69 q 425 -118 396 -118 q 475 -106 454 -118 l 475 -262 q 393 -278 432 -278 z "},"|":{"ha":361,"x_min":101,"x_max":260,"o":"m 260 -269 l 101 -269 l 101 965 l 260 965 l 260 -269 z "},"}":{"ha":504,"x_min":29,"x_max":444,"o":"m 315 -43 q 257 -212 315 -146 q 110 -278 199 -278 q 29 -262 72 -278 l 29 -106 q 78 -118 50 -118 q 128 -94 107 -118 q 150 -38 150 -69 q 140 53 150 -7 q 129 150 129 114 q 175 290 129 232 q 293 358 221 347 q 175 426 221 369 q 129 564 129 482 q 140 661 129 600 q 150 753 150 722 q 128 808 150 783 q 78 833 107 833 q 29 821 50 833 l 29 978 q 110 992 69 992 q 257 926 199 992 q 315 758 315 861 q 305 667 315 725 q 294 585 294 610 q 326 485 294 528 q 414 440 357 443 q 444 439 428 439 l 444 276 l 414 276 q 326 229 357 271 q 294 131 294 188 q 305 47 294 104 q 315 -43 315 -10 z "},"~":{"ha":879,"x_min":43,"x_max":835,"o":"m 308 346 q 158 260 225 346 l 43 353 q 147 456 86 414 q 283 497 207 497 q 451 457 358 497 q 583 417 543 417 q 655 438 624 417 q 718 499 686 458 l 835 407 q 611 265 742 265 q 444 306 536 265 q 308 346 351 346 z "}," ":{"ha":344,"x_min":0,"x_max":0,"o":""},"¡":{"ha":382,"x_min":79,"x_max":299,"o":"m 188 718 q 211 718 188 718 q 267 687 235 718 q 299 609 299 656 q 267 531 299 563 q 188 499 235 499 q 110 531 142 499 q 79 609 79 563 q 110 687 79 656 q 188 718 142 718 m 271 -229 l 111 -229 l 111 396 l 271 396 l 271 -229 z "},"¢":{"ha":650,"x_min":50,"x_max":594,"o":"m 485 -154 l 344 -154 l 344 -6 q 131 115 211 17 q 51 349 50 213 q 129 583 51 485 q 344 707 207 682 l 344 858 l 485 858 l 485 710 q 594 675 542 701 l 594 531 q 435 572 525 572 q 284 512 346 572 q 221 350 222 451 q 283 190 224 250 q 431 129 342 129 q 594 172 521 129 l 594 28 q 485 -6 544 3 l 485 -154 z "},"£":{"ha":740,"x_min":71,"x_max":692,"o":"m 692 0 l 71 0 l 71 139 q 161 221 136 172 q 186 347 186 269 q 185 385 186 372 l 72 385 l 72 508 l 169 508 q 163 599 163 561 q 242 833 163 750 q 472 917 321 917 q 647 875 575 917 l 647 715 q 504 758 581 758 q 344 596 344 758 q 350 508 344 569 l 589 508 l 589 385 l 364 385 q 365 347 365 372 q 271 143 365 203 l 692 143 l 692 0 z "},"¤":{"ha":779,"x_min":42,"x_max":736,"o":"m 390 604 q 353 604 390 604 q 268 554 317 604 q 219 433 219 504 q 268 311 219 361 q 390 261 317 261 q 512 311 464 261 q 560 433 560 361 q 512 554 560 504 q 390 604 464 604 m 124 268 q 79 432 79 342 q 124 593 79 522 l 42 675 l 142 771 l 224 690 q 389 736 297 736 q 556 693 481 736 l 636 771 l 736 675 l 656 594 q 700 433 700 524 q 653 269 700 343 l 736 189 l 636 92 l 553 172 q 388 129 479 129 q 224 172 297 129 l 142 92 l 42 189 l 124 268 z "},"¥":{"ha":856,"x_min":25,"x_max":829,"o":"m 758 183 l 513 183 l 513 0 l 338 0 l 338 183 l 94 183 l 94 292 l 338 292 l 338 350 l 314 393 l 94 393 l 94 501 l 253 501 l 25 910 l 229 910 l 424 528 l 626 910 l 829 910 l 599 501 l 758 501 l 758 393 l 538 393 l 513 350 l 513 292 l 758 292 l 758 183 z "},"¦":{"ha":361,"x_min":101,"x_max":260,"o":"m 260 -194 l 101 -194 l 101 271 l 260 271 l 260 -194 m 260 511 l 101 511 l 101 976 l 260 976 l 260 511 z "},"§":{"ha":786,"x_min":76,"x_max":699,"o":"m 599 480 q 619 466 599 480 q 669 399 639 451 q 699 265 699 346 q 642 117 699 183 q 689 -18 689 58 q 601 -202 689 -136 q 360 -268 514 -268 q 106 -208 207 -268 l 106 -29 q 365 -115 222 -115 q 508 -19 508 -115 q 467 55 508 25 q 281 149 426 85 q 130 253 183 192 q 76 408 76 315 q 138 571 76 500 q 92 697 92 626 q 177 878 92 813 q 399 944 263 944 q 632 899 535 944 l 632 729 q 411 792 531 792 q 310 767 344 792 q 275 700 275 743 q 313 635 275 661 q 403 585 343 614 q 512 533 464 557 q 599 480 560 508 m 511 214 q 531 270 531 243 q 526 312 531 297 q 510 340 522 326 q 490 362 499 353 q 458 384 481 371 q 423 403 435 397 q 377 426 411 410 q 331 450 343 443 q 269 479 297 467 q 246 403 246 446 q 286 328 246 360 q 413 258 326 296 q 511 214 499 221 z "},"¨":{"ha":653,"x_min":60,"x_max":593,"o":"m 158 1089 q 179 1089 158 1089 q 228 1061 200 1089 q 256 992 256 1033 q 228 924 256 951 q 158 896 200 896 q 88 924 115 896 q 60 992 60 951 q 88 1061 60 1033 q 158 1089 115 1089 m 495 1089 q 516 1089 495 1089 q 565 1061 538 1089 q 593 992 593 1033 q 565 924 593 951 q 495 896 538 896 q 424 924 453 896 q 396 992 396 951 q 424 1061 396 1033 q 495 1089 453 1089 z "},"©":{"ha":1065,"x_min":53,"x_max":1013,"o":"m 533 829 q 456 829 533 829 q 276 725 379 829 q 172 467 172 621 q 276 209 172 313 q 533 106 379 106 q 790 210 686 106 q 894 467 894 314 q 790 725 894 621 q 533 829 686 829 m 872 807 q 942 736 872 807 q 1013 468 1013 665 q 872 130 1013 271 q 533 -11 731 -11 q 194 130 335 -11 q 53 469 53 271 q 194 808 53 667 q 533 949 336 949 q 872 807 731 949 m 554 225 q 378 293 449 225 q 309 467 308 361 q 377 643 310 574 q 560 713 444 713 q 681 683 626 713 l 681 568 q 576 599 633 599 q 481 563 518 599 q 442 467 443 528 q 480 372 444 408 q 573 336 515 336 q 681 371 631 336 l 681 254 q 554 225 631 225 z "},"ª":{"ha":529,"x_min":10,"x_max":488,"o":"m 194 540 q 59 588 108 540 q 10 717 10 636 q 74 846 10 797 q 257 894 138 894 l 344 894 l 344 929 q 318 1005 344 979 q 229 1031 292 1031 q 54 979 132 1031 l 54 1108 q 249 1149 126 1149 q 429 1094 371 1149 q 488 925 488 1039 l 488 544 l 350 544 l 350 618 q 194 540 303 540 m 244 644 q 317 672 289 644 q 344 740 344 699 l 344 800 l 275 800 q 188 778 218 800 q 157 718 157 756 q 244 644 157 644 z "},"«":{"ha":763,"x_min":36,"x_max":711,"o":"m 424 126 l 247 126 l 36 351 l 247 576 l 424 576 l 221 351 l 424 126 m 508 351 l 711 126 l 535 126 l 324 351 l 535 576 l 711 576 l 508 351 z "},"¬":{"ha":810,"x_min":53,"x_max":751,"o":"m 751 201 l 608 201 l 608 440 l 53 440 l 53 578 l 751 578 l 751 201 z "},"­":{"ha":490,"x_min":69,"x_max":422,"o":"m 422 297 l 69 297 l 69 438 l 422 438 l 422 297 z "},"®":{"ha":661,"x_min":14,"x_max":647,"o":"m 332 1018 q 278 1018 332 1018 q 158 951 224 1018 q 93 777 93 885 q 158 603 93 669 q 332 538 224 538 q 505 603 440 538 q 569 777 569 669 q 505 951 569 885 q 332 1018 440 1018 m 558 1003 q 602 959 558 1003 q 647 776 647 914 q 558 551 647 639 q 331 463 468 463 q 103 551 193 463 q 14 777 14 639 q 103 1004 14 915 q 331 1093 193 1093 q 558 1003 468 1093 m 331 888 l 303 888 l 303 801 l 336 801 q 375 846 375 801 q 331 888 375 888 m 303 629 l 233 629 l 233 946 l 326 946 q 447 846 447 946 q 396 757 447 782 l 476 629 l 392 629 l 324 744 l 303 744 l 303 629 z "},"¯":{"ha":653,"x_min":99,"x_max":554,"o":"m 554 926 l 99 926 l 99 1042 l 554 1042 l 554 926 z "},"°":{"ha":567,"x_min":42,"x_max":525,"o":"m 197 792 q 180 775 197 792 q 163 707 163 757 q 198 621 163 657 q 283 585 233 585 q 368 621 333 585 q 403 707 403 657 q 367 792 403 757 q 282 828 332 828 q 197 792 232 828 m 456 878 q 490 843 456 878 q 525 707 525 808 q 454 536 525 606 q 282 467 383 467 q 111 535 181 467 q 42 706 42 604 q 112 877 42 807 q 284 947 182 947 q 456 878 386 947 z "},"±":{"ha":800,"x_min":69,"x_max":731,"o":"m 731 40 l 69 40 l 69 181 l 731 181 l 731 40 m 731 456 l 475 456 l 475 246 l 321 246 l 321 456 l 69 456 l 69 596 l 321 596 l 321 804 l 475 804 l 475 596 l 731 596 l 731 456 z "},"²":{"ha":507,"x_min":56,"x_max":457,"o":"m 457 544 l 56 544 l 56 636 q 234 798 163 715 q 306 947 306 881 q 213 1032 306 1032 q 71 978 144 1032 l 71 1104 q 232 1150 144 1150 q 378 1100 319 1150 q 436 963 436 1050 q 217 651 436 801 l 457 651 l 457 544 z "},"³":{"ha":476,"x_min":49,"x_max":428,"o":"m 303 847 q 392 806 356 843 q 428 700 428 768 q 372 585 428 632 q 217 539 317 539 q 49 575 117 539 l 49 688 q 188 647 126 647 q 299 720 299 647 q 174 793 299 793 l 149 793 l 149 899 l 174 899 q 253 917 222 899 q 285 971 285 936 q 201 1039 285 1039 q 69 993 133 1039 l 69 1113 q 219 1150 133 1150 q 360 1103 306 1150 q 414 994 414 1057 q 384 894 414 931 q 303 847 354 858 z "},"´":{"ha":653,"x_min":176,"x_max":478,"o":"m 317 874 l 176 874 l 303 1108 l 478 1108 l 317 874 z "},"µ":{"ha":792,"x_min":90,"x_max":701,"o":"m 257 -250 l 90 -250 l 90 704 l 257 704 l 257 267 q 297 166 257 201 q 397 131 338 131 q 535 326 535 131 l 535 704 l 701 704 l 701 0 l 535 0 l 535 93 q 375 -7 488 -7 q 257 24 311 -7 l 257 -250 z "},"¶":{"ha":797,"x_min":22,"x_max":703,"o":"m 703 -206 l 569 -206 l 571 936 l 703 936 l 703 -206 m 431 -206 l 297 -206 l 297 453 q 94 523 165 453 q 22 694 22 593 q 96 865 22 794 q 315 936 169 936 l 431 936 l 431 -206 z "},"·":{"ha":353,"x_min":69,"x_max":285,"o":"m 253 462 q 269 446 253 462 q 285 386 285 431 q 253 310 285 342 q 178 278 222 278 q 101 310 133 278 q 69 386 69 342 q 101 462 69 431 q 178 493 133 493 q 253 462 222 493 z "},"¸":{"ha":653,"x_min":208,"x_max":443,"o":"m 418 -71 q 443 -181 443 -108 q 383 -308 443 -254 q 208 -364 324 -362 l 208 -256 q 318 -162 318 -251 q 283 -71 318 -122 l 418 -71 z "},"¹":{"ha":372,"x_min":14,"x_max":292,"o":"m 292 544 l 169 544 l 169 1010 l 14 925 l 14 1043 l 192 1144 l 292 1144 l 292 544 z "},"º":{"ha":579,"x_min":6,"x_max":574,"o":"m 188 982 q 170 954 188 982 q 153 843 153 926 q 189 705 153 760 q 291 650 225 650 q 391 703 357 650 q 425 840 425 757 q 288 1038 425 1038 q 188 982 222 1038 m 293 1151 q 359 1151 293 1151 q 499 1065 425 1151 q 574 845 574 979 q 499 624 574 711 q 289 536 424 536 q 80 621 154 536 q 6 840 6 706 q 83 1063 6 974 q 293 1151 161 1151 z "},"»":{"ha":764,"x_min":51,"x_max":725,"o":"m 228 126 l 51 126 l 254 351 l 51 576 l 228 576 l 438 351 l 228 126 m 725 351 l 515 126 l 339 126 l 542 351 l 339 576 l 515 576 l 725 351 z "},"¼":{"ha":1153,"x_min":43,"x_max":1122,"o":"m 1044 0 l 925 0 l 925 126 l 654 126 l 654 226 l 856 597 l 1044 597 l 1044 226 l 1122 226 l 1122 126 l 1044 126 l 1044 0 m 925 226 l 925 507 l 778 226 l 925 226 m 321 388 l 199 388 l 199 853 l 43 768 l 43 888 l 221 988 l 321 988 l 321 388 m 314 0 l 182 0 l 789 988 l 919 988 l 314 0 z "},"½":{"ha":1157,"x_min":43,"x_max":1122,"o":"m 1122 0 l 721 0 l 721 92 q 972 403 972 278 q 947 466 972 444 q 879 488 922 488 q 738 433 811 488 l 738 560 q 899 606 811 606 q 1044 556 986 606 q 1103 418 1103 506 q 883 107 1103 257 l 1122 107 l 1122 0 m 321 388 l 199 388 l 199 853 l 43 768 l 43 888 l 221 988 l 321 988 l 321 388 m 314 0 l 182 0 l 789 988 l 919 988 l 314 0 z "},"¾":{"ha":1231,"x_min":58,"x_max":1197,"o":"m 1119 0 l 1000 0 l 1000 126 l 729 126 l 729 226 l 931 597 l 1119 597 l 1119 226 l 1197 226 l 1197 126 l 1119 126 l 1119 0 m 1000 226 l 1000 507 l 853 226 l 1000 226 m 313 690 q 400 647 364 685 q 436 542 436 610 q 381 428 436 475 q 226 382 326 382 q 58 418 126 382 l 58 531 q 214 490 132 490 q 283 510 258 490 q 308 564 308 531 q 183 636 308 636 l 157 636 l 157 742 l 182 742 q 263 760 232 742 q 293 813 293 778 q 210 882 293 882 q 78 835 143 882 l 78 956 q 228 992 142 992 q 369 945 315 992 q 424 836 424 899 q 313 690 424 714 m 389 0 l 257 0 l 864 988 l 996 988 l 389 0 z "},"¿":{"ha":633,"x_min":81,"x_max":588,"o":"m 484 688 q 500 672 484 688 q 515 610 515 656 q 484 532 515 564 q 406 500 453 500 q 328 532 360 500 q 296 610 296 564 q 328 688 296 656 q 406 719 360 719 q 484 688 453 719 m 588 -194 q 367 -239 496 -239 q 160 -172 239 -239 q 81 15 81 -104 q 105 128 81 78 q 168 207 129 178 q 324 269 243 264 l 326 397 l 482 397 l 485 179 q 250 32 250 179 q 286 -62 250 -26 q 406 -97 322 -97 q 588 -33 489 -97 l 588 -194 z "},"À":{"ha":936,"x_min":39,"x_max":899,"o":"m 536 1004 l 396 1004 l 235 1239 l 410 1239 l 536 1004 m 222 0 l 39 0 l 356 936 l 582 936 l 899 0 l 710 0 l 643 213 l 289 213 l 222 0 m 467 806 q 335 356 456 746 l 599 356 q 467 806 483 735 z "},"Á":{"ha":936,"x_min":39,"x_max":899,"o":"m 553 1004 l 413 1004 l 539 1239 l 714 1239 l 553 1004 m 222 0 l 39 0 l 356 936 l 582 936 l 899 0 l 710 0 l 643 213 l 289 213 l 222 0 m 467 806 q 335 356 456 746 l 599 356 q 467 806 483 735 z "},"Â":{"ha":936,"x_min":39,"x_max":899,"o":"m 358 1004 l 196 1004 l 397 1239 l 544 1239 l 746 1004 l 583 1004 l 471 1142 l 358 1004 m 222 0 l 39 0 l 356 936 l 582 936 l 899 0 l 710 0 l 643 213 l 289 213 l 222 0 m 467 806 q 335 356 456 746 l 599 356 q 467 806 483 735 z "},"Ã":{"ha":936,"x_min":39,"x_max":899,"o":"m 561 1038 q 465 1064 519 1038 q 384 1090 411 1090 q 336 1077 357 1090 q 290 1029 315 1064 l 211 1103 q 274 1180 233 1149 q 364 1211 315 1211 q 469 1185 413 1211 q 553 1158 526 1158 q 642 1218 613 1158 l 731 1147 q 561 1038 676 1038 m 222 0 l 39 0 l 356 936 l 582 936 l 899 0 l 710 0 l 643 213 l 289 213 l 222 0 m 467 806 q 335 356 456 746 l 599 356 q 467 806 483 735 z "},"Ä":{"ha":936,"x_min":39,"x_max":899,"o":"m 308 1219 q 329 1219 308 1219 q 378 1192 350 1219 q 406 1123 406 1164 q 378 1054 406 1082 q 308 1026 350 1026 q 238 1054 265 1026 q 210 1123 210 1082 q 238 1192 210 1164 q 308 1219 265 1219 m 645 1219 q 666 1219 645 1219 q 715 1192 688 1219 q 743 1123 743 1164 q 715 1054 743 1082 q 645 1026 688 1026 q 574 1054 603 1026 q 546 1123 546 1082 q 574 1192 546 1164 q 645 1219 603 1219 m 222 0 l 39 0 l 356 936 l 582 936 l 899 0 l 710 0 l 643 213 l 289 213 l 222 0 m 467 806 q 335 356 456 746 l 599 356 q 467 806 483 735 z "},"Å":{"ha":936,"x_min":39,"x_max":899,"o":"m 421 1219 q 410 1207 421 1219 q 400 1165 400 1196 q 421 1112 400 1135 q 474 1089 442 1089 q 526 1112 506 1089 q 547 1165 547 1135 q 526 1219 547 1196 q 474 1242 506 1242 q 421 1219 442 1242 m 597 1285 q 622 1260 597 1285 q 647 1163 647 1235 q 597 1040 647 1090 q 474 989 546 989 q 351 1040 401 989 q 300 1163 300 1090 q 351 1285 300 1235 q 474 1336 401 1336 q 597 1285 546 1336 m 222 0 l 39 0 l 356 936 l 582 936 l 899 0 l 710 0 l 643 213 l 289 213 l 222 0 m 467 806 q 335 356 456 746 l 599 356 q 467 806 483 735 z "},"Æ":{"ha":1274,"x_min":19,"x_max":1196,"o":"m 643 356 l 643 849 q 414 396 578 696 l 393 356 l 643 356 m 1190 936 l 1190 793 l 814 793 l 814 539 l 1149 539 l 1149 397 l 814 397 l 814 143 l 1196 143 l 1196 0 l 643 0 l 643 213 l 317 213 l 204 0 l 19 0 l 501 936 l 1190 936 z "},"Ç":{"ha":846,"x_min":60,"x_max":781,"o":"m 585 -71 q 610 -181 610 -108 q 550 -308 610 -254 q 375 -364 490 -362 l 375 -256 q 485 -162 485 -251 q 450 -71 485 -122 l 585 -71 m 539 -11 q 195 120 331 -11 q 60 466 60 251 q 194 815 60 681 q 539 949 328 949 q 779 897 693 949 l 779 726 q 546 788 674 788 q 333 701 418 788 q 247 468 247 614 q 333 236 247 322 q 553 150 418 150 q 781 219 688 150 l 781 44 q 539 -11 694 -11 z "},"È":{"ha":733,"x_min":97,"x_max":656,"o":"m 467 1004 l 326 1004 l 165 1239 l 340 1239 l 467 1004 m 656 0 l 97 0 l 97 936 l 650 936 l 650 793 l 274 793 l 274 539 l 608 539 l 608 397 l 274 397 l 274 143 l 656 143 l 656 0 z "},"É":{"ha":733,"x_min":97,"x_max":656,"o":"m 461 1004 l 321 1004 l 447 1239 l 622 1239 l 461 1004 m 656 0 l 97 0 l 97 936 l 650 936 l 650 793 l 274 793 l 274 539 l 608 539 l 608 397 l 274 397 l 274 143 l 656 143 l 656 0 z "},"Ê":{"ha":733,"x_min":97,"x_max":656,"o":"m 267 1004 l 104 1004 l 306 1239 l 453 1239 l 654 1004 l 492 1004 l 379 1142 l 267 1004 m 656 0 l 97 0 l 97 936 l 650 936 l 650 793 l 274 793 l 274 539 l 608 539 l 608 397 l 274 397 l 274 143 l 656 143 l 656 0 z "},"Ë":{"ha":733,"x_min":97,"x_max":656,"o":"m 208 1217 q 229 1217 208 1217 q 278 1189 250 1217 q 306 1120 306 1161 q 278 1051 306 1079 q 208 1024 250 1024 q 138 1051 165 1024 q 110 1120 110 1079 q 138 1189 110 1161 q 208 1217 165 1217 m 545 1217 q 566 1217 545 1217 q 615 1189 588 1217 q 643 1120 643 1161 q 615 1051 643 1079 q 545 1024 588 1024 q 474 1051 503 1024 q 446 1120 446 1079 q 474 1189 446 1161 q 545 1217 503 1217 m 656 0 l 97 0 l 97 936 l 650 936 l 650 793 l 274 793 l 274 539 l 608 539 l 608 397 l 274 397 l 274 143 l 656 143 l 656 0 z "},"Ì":{"ha":392,"x_min":-42,"x_max":283,"o":"m 260 1004 l 119 1004 l -42 1239 l 133 1239 l 260 1004 m 283 0 l 108 0 l 108 936 l 283 936 l 283 0 z "},"Í":{"ha":392,"x_min":108,"x_max":432,"o":"m 271 1004 l 131 1004 l 257 1239 l 432 1239 l 271 1004 m 283 0 l 108 0 l 108 936 l 283 936 l 283 0 z "},"Î":{"ha":392,"x_min":-76,"x_max":474,"o":"m 86 1004 l -76 1004 l 125 1239 l 272 1239 l 474 1004 l 311 1004 l 199 1142 l 86 1004 m 283 0 l 108 0 l 108 936 l 283 936 l 283 0 z "},"Ï":{"ha":392,"x_min":-64,"x_max":469,"o":"m 34 1218 q 55 1218 34 1218 q 104 1190 76 1218 q 132 1122 132 1163 q 104 1053 132 1081 q 34 1025 76 1025 q -36 1053 -8 1025 q -64 1122 -64 1081 q -36 1190 -64 1163 q 34 1218 -8 1218 m 372 1218 q 393 1218 372 1218 q 442 1190 414 1218 q 469 1122 469 1163 q 442 1053 469 1081 q 372 1025 414 1025 q 301 1053 329 1025 q 272 1122 272 1081 q 301 1190 272 1163 q 372 1218 329 1218 m 283 0 l 108 0 l 108 936 l 283 936 l 283 0 z "},"Ð":{"ha":1031,"x_min":89,"x_max":972,"o":"m 581 392 l 369 392 l 369 146 l 493 146 q 717 237 640 146 q 794 472 794 328 q 713 702 794 615 q 490 789 631 789 l 369 789 l 369 535 l 581 535 l 581 392 m 496 0 l 190 0 l 190 392 l 89 392 l 89 535 l 190 535 l 190 936 l 496 936 q 839 807 706 936 q 972 471 972 678 q 844 132 972 264 q 496 0 715 0 z "},"Ñ":{"ha":956,"x_min":97,"x_max":860,"o":"m 576 1038 q 481 1064 533 1038 q 400 1090 428 1090 q 351 1077 372 1090 q 306 1029 331 1064 l 226 1103 q 290 1180 249 1149 q 379 1211 331 1211 q 485 1185 428 1211 q 568 1158 542 1158 q 657 1218 628 1158 l 746 1147 q 576 1038 692 1038 m 272 0 l 97 0 l 97 936 l 296 936 q 622 364 579 443 q 694 215 664 285 q 683 546 683 331 l 683 936 l 860 936 l 860 0 l 660 0 l 432 389 q 257 725 324 572 q 272 390 272 593 l 272 0 z "},"Ò":{"ha":1004,"x_min":60,"x_max":944,"o":"m 585 1004 l 444 1004 l 283 1239 l 458 1239 l 585 1004 m 502 792 q 443 792 502 792 q 315 706 383 792 q 247 472 247 619 q 317 238 247 324 q 503 151 386 151 q 689 237 621 151 q 757 471 757 322 q 689 706 757 619 q 502 792 621 792 m 503 953 q 604 953 503 953 q 825 822 706 953 q 944 472 944 690 q 824 122 944 254 q 503 -10 704 -10 q 181 122 301 -10 q 60 472 60 254 q 180 821 60 689 q 503 953 300 953 z "},"Ó":{"ha":1004,"x_min":60,"x_max":944,"o":"m 579 1004 l 439 1004 l 565 1239 l 740 1239 l 579 1004 m 502 792 q 443 792 502 792 q 315 706 383 792 q 247 472 247 619 q 317 238 247 324 q 503 151 386 151 q 689 237 621 151 q 757 471 757 322 q 689 706 757 619 q 502 792 621 792 m 503 953 q 604 953 503 953 q 825 822 706 953 q 944 472 944 690 q 824 122 944 254 q 503 -10 704 -10 q 181 122 301 -10 q 60 472 60 254 q 180 821 60 689 q 503 953 300 953 z "},"Ô":{"ha":1004,"x_min":60,"x_max":944,"o":"m 397 1004 l 235 1004 l 436 1239 l 583 1239 l 785 1004 l 622 1004 l 510 1142 l 397 1004 m 502 792 q 443 792 502 792 q 315 706 383 792 q 247 472 247 619 q 317 238 247 324 q 503 151 386 151 q 689 237 621 151 q 757 471 757 322 q 689 706 757 619 q 502 792 621 792 m 503 953 q 604 953 503 953 q 825 822 706 953 q 944 472 944 690 q 824 122 944 254 q 503 -10 704 -10 q 181 122 301 -10 q 60 472 60 254 q 180 821 60 689 q 503 953 300 953 z "},"Õ":{"ha":1004,"x_min":60,"x_max":944,"o":"m 593 1038 q 497 1064 550 1038 q 417 1090 444 1090 q 368 1077 389 1090 q 322 1029 347 1064 l 243 1103 q 306 1180 265 1149 q 396 1211 347 1211 q 501 1185 444 1211 q 585 1158 558 1158 q 674 1218 644 1158 l 763 1147 q 593 1038 708 1038 m 502 792 q 443 792 502 792 q 315 706 383 792 q 247 472 247 619 q 317 238 247 324 q 503 151 386 151 q 689 237 621 151 q 757 471 757 322 q 689 706 757 619 q 502 792 621 792 m 503 953 q 604 953 503 953 q 825 822 706 953 q 944 472 944 690 q 824 122 944 254 q 503 -10 704 -10 q 181 122 301 -10 q 60 472 60 254 q 180 821 60 689 q 503 953 300 953 z "},"Ö":{"ha":1004,"x_min":60,"x_max":944,"o":"m 342 1219 q 364 1219 342 1219 q 413 1192 385 1219 q 440 1123 440 1164 q 413 1054 440 1082 q 342 1026 385 1026 q 272 1054 300 1026 q 244 1123 244 1082 q 272 1192 244 1164 q 342 1219 300 1219 m 680 1219 q 701 1219 680 1219 q 750 1192 722 1219 q 778 1123 778 1164 q 750 1054 778 1082 q 680 1026 722 1026 q 609 1054 638 1026 q 581 1123 581 1082 q 609 1192 581 1164 q 680 1219 638 1219 m 502 792 q 443 792 502 792 q 315 706 383 792 q 247 472 247 619 q 317 238 247 324 q 503 151 386 151 q 689 237 621 151 q 757 471 757 322 q 689 706 757 619 q 502 792 621 792 m 503 953 q 604 953 503 953 q 825 822 706 953 q 944 472 944 690 q 824 122 944 254 q 503 -10 704 -10 q 181 122 301 -10 q 60 472 60 254 q 180 821 60 689 q 503 953 300 953 z "},"×":{"ha":715,"x_min":67,"x_max":646,"o":"m 646 290 l 539 185 l 358 364 l 179 186 l 71 294 l 249 472 l 67 654 l 174 761 l 356 579 l 536 760 l 646 651 l 465 471 l 646 290 z "},"Ø":{"ha":971,"x_min":54,"x_max":940,"o":"m 497 143 q 688 231 618 143 q 758 471 758 319 q 722 658 758 579 l 367 178 q 497 143 419 143 m 235 471 q 272 282 235 361 l 631 764 q 496 800 574 800 q 305 712 375 800 q 235 471 235 624 m 832 806 q 939 466 939 678 q 819 122 939 254 q 497 -10 699 -10 q 269 47 367 -10 l 226 -11 l 56 -11 l 164 135 q 54 476 54 264 q 174 821 54 689 q 496 953 294 953 q 728 894 626 953 l 769 951 l 940 951 l 832 806 z "},"Ù":{"ha":915,"x_min":92,"x_max":824,"o":"m 536 1004 l 396 1004 l 235 1239 l 410 1239 l 536 1004 m 824 360 q 726 83 824 178 q 459 -12 628 -12 q 191 81 290 -12 q 92 350 92 175 l 92 936 l 267 936 l 267 351 q 319 197 267 244 q 457 149 372 149 q 649 358 649 149 l 649 936 l 824 936 l 824 360 z "},"Ú":{"ha":915,"x_min":92,"x_max":824,"o":"m 546 1004 l 406 1004 l 532 1239 l 707 1239 l 546 1004 m 824 360 q 726 83 824 178 q 459 -12 628 -12 q 191 81 290 -12 q 92 350 92 175 l 92 936 l 267 936 l 267 351 q 319 197 267 244 q 457 149 372 149 q 649 358 649 149 l 649 936 l 824 936 l 824 360 z "},"Û":{"ha":915,"x_min":92,"x_max":824,"o":"m 344 1004 l 182 1004 l 383 1239 l 531 1239 l 732 1004 l 569 1004 l 457 1142 l 344 1004 m 824 360 q 726 83 824 178 q 459 -12 628 -12 q 191 81 290 -12 q 92 350 92 175 l 92 936 l 267 936 l 267 351 q 319 197 267 244 q 457 149 372 149 q 649 358 649 149 l 649 936 l 824 936 l 824 360 z "},"Ü":{"ha":915,"x_min":92,"x_max":824,"o":"m 294 1218 q 315 1218 294 1218 q 364 1190 336 1218 q 392 1122 392 1163 q 364 1053 392 1081 q 294 1025 336 1025 q 224 1053 251 1025 q 196 1122 196 1081 q 224 1190 196 1163 q 294 1218 251 1218 m 631 1218 q 652 1218 631 1218 q 701 1190 674 1218 q 729 1122 729 1163 q 701 1053 729 1081 q 631 1025 674 1025 q 560 1053 589 1025 q 532 1122 532 1081 q 560 1190 532 1163 q 631 1218 589 1218 m 824 360 q 726 83 824 178 q 459 -12 628 -12 q 191 81 290 -12 q 92 350 92 175 l 92 936 l 267 936 l 267 351 q 319 197 267 244 q 457 149 372 149 q 649 358 649 149 l 649 936 l 824 936 l 824 360 z "},"Ý":{"ha":867,"x_min":25,"x_max":842,"o":"m 525 1004 l 385 1004 l 511 1239 l 686 1239 l 525 1004 m 519 0 l 344 0 l 344 342 l 25 936 l 229 936 q 431 482 397 572 q 574 800 443 533 l 638 936 l 842 936 l 519 347 l 519 0 z "},"Þ":{"ha":768,"x_min":97,"x_max":735,"o":"m 376 633 l 272 633 l 272 301 l 382 301 q 513 347 469 301 q 557 465 557 393 q 514 585 557 536 q 376 633 471 633 m 390 160 l 272 160 l 272 0 l 97 0 l 97 936 l 272 936 l 272 776 l 386 776 q 641 690 547 776 q 735 465 735 604 q 638 243 735 326 q 390 160 542 160 z "},"ß":{"ha":800,"x_min":92,"x_max":768,"o":"m 768 210 q 702 50 768 111 q 530 -11 636 -11 q 378 15 424 -11 l 378 163 q 497 124 440 124 q 582 146 554 124 q 610 206 610 168 q 578 277 610 243 q 508 334 546 311 q 438 398 469 357 q 406 491 406 439 q 451 610 406 543 q 497 719 497 678 q 469 785 497 760 q 392 810 442 810 q 256 668 256 810 l 256 0 l 92 0 l 92 658 q 169 881 92 804 q 379 958 246 958 q 590 891 513 958 q 667 731 667 824 q 644 631 667 674 q 601 558 622 588 q 579 506 579 528 q 609 457 579 483 q 674 405 639 431 q 738 327 708 379 q 768 210 768 275 z "},"à":{"ha":704,"x_min":56,"x_max":622,"o":"m 435 772 l 294 772 l 133 1007 l 308 1007 l 435 772 m 274 -6 q 115 53 174 -6 q 56 206 56 111 q 131 357 56 300 q 347 414 206 414 l 450 414 l 450 457 q 419 546 450 515 q 315 576 389 576 q 108 514 203 576 l 108 668 q 336 717 188 717 q 622 450 622 717 l 622 0 l 457 0 l 457 85 q 274 -6 408 -6 m 332 118 q 419 151 388 118 q 450 236 450 183 l 450 303 l 364 303 q 264 276 299 303 q 229 207 229 249 q 332 118 229 118 z "},"á":{"ha":704,"x_min":56,"x_max":622,"o":"m 425 772 l 285 772 l 411 1007 l 586 1007 l 425 772 m 274 -6 q 115 53 174 -6 q 56 206 56 111 q 131 357 56 300 q 347 414 206 414 l 450 414 l 450 457 q 419 546 450 515 q 315 576 389 576 q 108 514 203 576 l 108 668 q 336 717 188 717 q 622 450 622 717 l 622 0 l 457 0 l 457 85 q 274 -6 408 -6 m 332 118 q 419 151 388 118 q 450 236 450 183 l 450 303 l 364 303 q 264 276 299 303 q 229 207 229 249 q 332 118 229 118 z "},"â":{"ha":704,"x_min":56,"x_max":629,"o":"m 242 772 l 79 772 l 281 1007 l 428 1007 l 629 772 l 467 772 l 354 910 l 242 772 m 274 -6 q 115 53 174 -6 q 56 206 56 111 q 131 357 56 300 q 347 414 206 414 l 450 414 l 450 457 q 419 546 450 515 q 315 576 389 576 q 108 514 203 576 l 108 668 q 336 717 188 717 q 622 450 622 717 l 622 0 l 457 0 l 457 85 q 274 -6 408 -6 m 332 118 q 419 151 388 118 q 450 236 450 183 l 450 303 l 364 303 q 264 276 299 303 q 229 207 229 249 q 332 118 229 118 z "},"ã":{"ha":704,"x_min":56,"x_max":622,"o":"m 443 806 q 347 832 400 806 q 267 858 294 858 q 218 845 239 858 q 172 797 197 832 l 93 871 q 156 948 115 917 q 246 979 197 979 q 351 953 294 979 q 435 926 408 926 q 524 986 494 926 l 613 915 q 443 806 558 806 m 274 -6 q 115 53 174 -6 q 56 206 56 111 q 131 357 56 300 q 347 414 206 414 l 450 414 l 450 457 q 419 546 450 515 q 315 576 389 576 q 108 514 203 576 l 108 668 q 336 717 188 717 q 622 450 622 717 l 622 0 l 457 0 l 457 85 q 274 -6 408 -6 m 332 118 q 419 151 388 118 q 450 236 450 183 l 450 303 l 364 303 q 264 276 299 303 q 229 207 229 249 q 332 118 229 118 z "},"ä":{"ha":704,"x_min":56,"x_max":628,"o":"m 192 985 q 214 985 192 985 q 263 957 235 985 q 290 888 290 929 q 263 819 290 847 q 192 792 235 792 q 122 819 150 792 q 94 888 94 847 q 122 957 94 929 q 192 985 150 985 m 530 985 q 551 985 530 985 q 600 957 572 985 q 628 888 628 929 q 600 819 628 847 q 530 792 572 792 q 459 819 488 792 q 431 888 431 847 q 459 957 431 929 q 530 985 488 985 m 274 -6 q 115 53 174 -6 q 56 206 56 111 q 131 357 56 300 q 347 414 206 414 l 450 414 l 450 457 q 419 546 450 515 q 315 576 389 576 q 108 514 203 576 l 108 668 q 336 717 188 717 q 622 450 622 717 l 622 0 l 457 0 l 457 85 q 274 -6 408 -6 m 332 118 q 419 151 388 118 q 450 236 450 183 l 450 303 l 364 303 q 264 276 299 303 q 229 207 229 249 q 332 118 229 118 z "},"å":{"ha":704,"x_min":56,"x_max":622,"o":"m 306 987 q 295 975 306 987 q 285 933 285 964 q 306 880 285 903 q 358 857 326 857 q 411 880 390 857 q 432 933 432 903 q 411 987 432 964 q 358 1010 390 1010 q 306 987 326 1010 m 481 1053 q 507 1028 481 1053 q 532 931 532 1003 q 481 808 532 858 q 358 757 431 757 q 235 808 286 757 q 185 931 185 858 q 235 1053 185 1003 q 358 1104 286 1104 q 481 1053 431 1104 m 274 -6 q 115 53 174 -6 q 56 206 56 111 q 131 357 56 300 q 347 414 206 414 l 450 414 l 450 457 q 419 546 450 515 q 315 576 389 576 q 108 514 203 576 l 108 668 q 336 717 188 717 q 622 450 622 717 l 622 0 l 457 0 l 457 85 q 274 -6 408 -6 m 332 118 q 419 151 388 118 q 450 236 450 183 l 450 303 l 364 303 q 264 276 299 303 q 229 207 229 249 q 332 118 229 118 z "},"æ":{"ha":1128,"x_min":63,"x_max":1072,"o":"m 914 429 q 877 540 911 500 q 783 581 843 581 q 677 537 722 581 q 619 410 632 493 l 914 410 l 914 429 m 236 207 q 339 119 236 119 q 424 152 392 119 q 457 240 457 185 l 457 301 l 378 301 q 273 276 310 301 q 236 207 236 251 m 547 128 q 460 33 522 71 q 294 -6 399 -6 q 126 49 189 -6 q 63 202 63 104 q 138 357 63 300 q 356 414 214 414 l 457 414 l 457 457 q 426 546 457 515 q 322 576 396 576 q 115 514 207 576 l 115 668 q 333 717 199 717 q 549 604 499 717 q 768 711 621 711 q 994 628 915 711 q 1072 382 1072 544 q 1063 285 1072 346 l 624 285 q 700 169 642 210 q 854 128 758 128 q 1026 183 950 128 l 1026 39 q 822 -7 951 -7 q 663 28 739 -7 q 547 128 588 63 z "},"ç":{"ha":653,"x_min":53,"x_max":600,"o":"m 472 -71 q 497 -181 497 -108 q 438 -308 497 -254 q 263 -364 378 -362 l 263 -256 q 372 -162 372 -251 q 338 -71 372 -122 l 472 -71 m 417 -12 q 153 90 254 -12 q 53 349 53 193 q 153 610 54 504 q 425 715 253 715 q 600 676 528 715 l 600 529 q 438 574 531 574 q 285 513 344 574 q 224 350 225 451 q 284 189 226 250 q 434 128 342 128 q 600 175 526 128 l 600 31 q 417 -12 526 -12 z "},"è":{"ha":735,"x_min":53,"x_max":672,"o":"m 457 772 l 317 772 l 156 1007 l 331 1007 l 457 772 m 514 431 q 477 540 511 499 q 381 581 443 581 q 274 537 318 581 q 218 410 231 493 l 514 410 l 514 431 m 415 -7 q 150 93 247 -7 q 53 356 53 193 q 144 615 53 519 q 374 711 236 711 q 592 628 511 711 q 672 385 672 544 q 663 285 672 346 l 221 285 q 297 168 239 208 q 453 128 354 128 q 628 183 551 128 l 628 39 q 415 -7 554 -7 z "},"é":{"ha":735,"x_min":53,"x_max":672,"o":"m 467 772 l 326 772 l 453 1007 l 628 1007 l 467 772 m 514 431 q 477 540 511 499 q 381 581 443 581 q 274 537 318 581 q 218 410 231 493 l 514 410 l 514 431 m 415 -7 q 150 93 247 -7 q 53 356 53 193 q 144 615 53 519 q 374 711 236 711 q 592 628 511 711 q 672 385 672 544 q 663 285 672 346 l 221 285 q 297 168 239 208 q 453 128 354 128 q 628 183 551 128 l 628 39 q 415 -7 554 -7 z "},"ê":{"ha":735,"x_min":53,"x_max":672,"o":"m 268 772 l 106 772 l 307 1007 l 454 1007 l 656 772 l 493 772 l 381 910 l 268 772 m 514 431 q 477 540 511 499 q 381 581 443 581 q 274 537 318 581 q 218 410 231 493 l 514 410 l 514 431 m 415 -7 q 150 93 247 -7 q 53 356 53 193 q 144 615 53 519 q 374 711 236 711 q 592 628 511 711 q 672 385 672 544 q 663 285 672 346 l 221 285 q 297 168 239 208 q 453 128 354 128 q 628 183 551 128 l 628 39 q 415 -7 554 -7 z "},"ë":{"ha":735,"x_min":53,"x_max":672,"o":"m 224 986 q 245 986 224 986 q 294 958 267 986 q 322 890 322 931 q 294 821 322 849 q 224 793 267 793 q 154 821 182 793 q 126 890 126 849 q 154 958 126 931 q 224 986 182 986 m 562 986 q 583 986 562 986 q 632 958 604 986 q 660 890 660 931 q 632 821 660 849 q 562 793 604 793 q 491 821 519 793 q 463 890 463 849 q 491 958 463 931 q 562 986 519 986 m 514 431 q 477 540 511 499 q 381 581 443 581 q 274 537 318 581 q 218 410 231 493 l 514 410 l 514 431 m 415 -7 q 150 93 247 -7 q 53 356 53 193 q 144 615 53 519 q 374 711 236 711 q 592 628 511 711 q 672 385 672 544 q 663 285 672 346 l 221 285 q 297 168 239 208 q 453 128 354 128 q 628 183 551 128 l 628 39 q 415 -7 554 -7 z "},"ì":{"ha":361,"x_min":-62,"x_max":264,"o":"m 239 772 l 99 772 l -62 1007 l 113 1007 l 239 772 m 264 0 l 97 0 l 97 704 l 264 704 l 264 0 z "},"í":{"ha":361,"x_min":97,"x_max":421,"o":"m 260 772 l 119 772 l 246 1007 l 421 1007 l 260 772 m 264 0 l 97 0 l 97 704 l 264 704 l 264 0 z "},"î":{"ha":361,"x_min":-93,"x_max":457,"o":"m 69 772 l -93 772 l 108 1007 l 256 1007 l 457 772 l 294 772 l 182 910 l 69 772 m 264 0 l 97 0 l 97 704 l 264 704 l 264 0 z "},"ï":{"ha":361,"x_min":-85,"x_max":449,"o":"m 13 988 q 34 988 13 988 q 83 960 56 988 q 111 891 111 932 q 83 822 111 850 q 13 794 56 794 q -57 822 -29 794 q -85 891 -85 850 q -57 960 -85 932 q 13 988 -29 988 m 351 988 q 372 988 351 988 q 421 960 393 988 q 449 891 449 932 q 421 822 449 850 q 351 794 393 794 q 280 822 308 794 q 251 891 251 850 q 280 960 251 932 q 351 988 308 988 m 264 0 l 97 0 l 97 704 l 264 704 l 264 0 z "},"ð":{"ha":753,"x_min":50,"x_max":688,"o":"m 363 138 q 521 338 506 138 q 358 417 453 417 q 259 378 296 417 q 222 276 222 340 q 260 174 222 211 q 363 138 299 138 m 551 790 q 688 405 688 607 q 603 94 688 203 q 369 -14 519 -14 q 135 73 219 -14 q 50 285 50 160 q 127 485 50 410 q 322 561 204 561 q 517 483 439 561 q 417 724 497 610 l 221 625 l 221 728 l 357 796 q 179 936 288 869 l 403 936 q 492 863 447 907 l 654 943 l 654 842 l 551 790 z "},"ñ":{"ha":785,"x_min":90,"x_max":701,"o":"m 489 806 q 393 832 447 806 q 312 858 339 858 q 264 845 285 858 q 218 797 243 832 l 139 871 q 202 948 161 917 q 292 979 243 979 q 397 953 340 979 q 481 926 454 926 q 569 986 540 926 l 658 915 q 489 806 604 806 m 701 0 l 535 0 l 535 433 q 501 538 535 503 q 407 574 468 574 q 301 523 346 574 q 257 378 257 472 l 257 0 l 90 0 l 90 704 l 257 704 l 257 583 q 474 713 317 713 q 640 649 579 713 q 701 468 701 585 l 701 0 z "},"ò":{"ha":785,"x_min":53,"x_max":732,"o":"m 472 772 l 332 772 l 171 1007 l 346 1007 l 472 772 m 395 579 q 354 579 395 579 q 270 514 313 579 q 228 351 228 449 q 271 188 228 253 q 394 122 314 122 q 517 186 475 122 q 558 350 558 250 q 518 515 558 450 q 395 579 478 579 m 397 715 q 475 715 397 715 q 643 613 554 715 q 732 353 732 511 q 642 92 732 194 q 392 -11 553 -11 q 142 89 232 -11 q 53 347 53 189 q 146 610 53 506 q 397 715 239 715 z "},"ó":{"ha":785,"x_min":53,"x_max":732,"o":"m 479 772 l 339 772 l 465 1007 l 640 1007 l 479 772 m 395 579 q 354 579 395 579 q 270 514 313 579 q 228 351 228 449 q 271 188 228 253 q 394 122 314 122 q 517 186 475 122 q 558 350 558 250 q 518 515 558 450 q 395 579 478 579 m 397 715 q 475 715 397 715 q 643 613 554 715 q 732 353 732 511 q 642 92 732 194 q 392 -11 553 -11 q 142 89 232 -11 q 53 347 53 189 q 146 610 53 506 q 397 715 239 715 z "},"ô":{"ha":785,"x_min":53,"x_max":732,"o":"m 285 771 l 122 771 l 324 1006 l 471 1006 l 672 771 l 510 771 l 397 908 l 285 771 m 395 579 q 354 579 395 579 q 270 514 313 579 q 228 351 228 449 q 271 188 228 253 q 394 122 314 122 q 517 186 475 122 q 558 350 558 250 q 518 515 558 450 q 395 579 478 579 m 397 715 q 475 715 397 715 q 643 613 554 715 q 732 353 732 511 q 642 92 732 194 q 392 -11 553 -11 q 142 89 232 -11 q 53 347 53 189 q 146 610 53 506 q 397 715 239 715 z "},"õ":{"ha":785,"x_min":53,"x_max":732,"o":"m 488 806 q 392 832 444 806 q 311 858 339 858 q 263 845 283 858 q 217 797 242 832 l 138 871 q 201 948 160 917 q 290 979 242 979 q 396 953 339 979 q 479 926 453 926 q 568 986 539 926 l 657 915 q 488 806 603 806 m 395 579 q 354 579 395 579 q 270 514 313 579 q 228 351 228 449 q 271 188 228 253 q 394 122 314 122 q 517 186 475 122 q 558 350 558 250 q 518 515 558 450 q 395 579 478 579 m 397 715 q 475 715 397 715 q 643 613 554 715 q 732 353 732 511 q 642 92 732 194 q 392 -11 553 -11 q 142 89 232 -11 q 53 347 53 189 q 146 610 53 506 q 397 715 239 715 z "},"ö":{"ha":785,"x_min":53,"x_max":732,"o":"m 238 986 q 259 986 238 986 q 308 958 281 986 q 336 890 336 931 q 308 821 336 849 q 238 793 281 793 q 168 821 196 793 q 140 890 140 849 q 168 958 140 931 q 238 986 196 986 m 576 986 q 597 986 576 986 q 646 958 618 986 q 674 890 674 931 q 646 821 674 849 q 576 793 618 793 q 505 821 533 793 q 476 890 476 849 q 505 958 476 931 q 576 986 533 986 m 395 579 q 354 579 395 579 q 270 514 313 579 q 228 351 228 449 q 271 188 228 253 q 394 122 314 122 q 517 186 475 122 q 558 350 558 250 q 518 515 558 450 q 395 579 478 579 m 397 715 q 475 715 397 715 q 643 613 554 715 q 732 353 732 511 q 642 92 732 194 q 392 -11 553 -11 q 142 89 232 -11 q 53 347 53 189 q 146 610 53 506 q 397 715 239 715 z "},"÷":{"ha":800,"x_min":69,"x_max":731,"o":"m 461 783 q 475 769 461 783 q 489 718 489 756 q 461 653 489 681 q 395 625 433 625 q 330 653 357 625 q 303 718 303 681 q 330 783 303 756 q 395 811 357 811 q 461 783 433 811 m 461 292 q 475 278 461 292 q 489 226 489 264 q 461 161 489 189 q 395 133 433 133 q 330 161 357 133 q 303 226 303 189 q 330 292 303 264 q 395 319 357 319 q 461 292 433 319 m 731 397 l 69 397 l 69 547 l 731 547 l 731 397 z "},"ø":{"ha":781,"x_min":60,"x_max":739,"o":"m 400 106 q 537 174 490 106 q 583 333 583 242 q 564 476 583 424 l 311 131 q 400 106 349 106 m 215 350 q 236 229 215 283 l 488 575 q 399 596 453 596 q 263 526 310 596 q 215 350 215 456 m 658 604 q 739 349 739 504 q 649 92 739 194 q 399 -11 560 -11 q 233 25 303 -11 l 207 -11 l 60 -11 l 140 99 q 60 350 60 196 q 153 610 60 504 q 399 715 246 715 q 564 679 494 715 l 590 715 l 739 715 l 658 604 z "},"ù":{"ha":785,"x_min":83,"x_max":694,"o":"m 463 771 l 322 771 l 161 1006 l 336 1006 l 463 771 m 694 0 l 526 0 l 526 115 q 310 -7 471 -7 q 143 54 203 -7 q 83 228 83 115 l 83 704 l 250 704 l 250 267 q 283 165 250 200 q 380 131 315 131 q 485 179 444 131 q 526 326 526 228 l 526 704 l 694 704 l 694 0 z "},"ú":{"ha":785,"x_min":83,"x_max":694,"o":"m 472 772 l 332 772 l 458 1007 l 633 1007 l 472 772 m 694 0 l 526 0 l 526 115 q 310 -7 471 -7 q 143 54 203 -7 q 83 228 83 115 l 83 704 l 250 704 l 250 267 q 283 165 250 200 q 380 131 315 131 q 485 179 444 131 q 526 326 526 228 l 526 704 l 694 704 l 694 0 z "},"û":{"ha":785,"x_min":83,"x_max":694,"o":"m 278 772 l 115 772 l 317 1007 l 464 1007 l 665 772 l 503 772 l 390 910 l 278 772 m 694 0 l 526 0 l 526 115 q 310 -7 471 -7 q 143 54 203 -7 q 83 228 83 115 l 83 704 l 250 704 l 250 267 q 283 165 250 200 q 380 131 315 131 q 485 179 444 131 q 526 326 526 228 l 526 704 l 694 704 l 694 0 z "},"ü":{"ha":785,"x_min":83,"x_max":694,"o":"m 222 986 q 243 986 222 986 q 292 958 264 986 q 319 890 319 931 q 292 821 319 849 q 222 793 264 793 q 151 821 179 793 q 124 890 124 849 q 151 958 124 931 q 222 986 179 986 m 559 986 q 580 986 559 986 q 629 958 601 986 q 657 890 657 931 q 629 821 657 849 q 559 793 601 793 q 488 821 517 793 q 460 890 460 849 q 488 958 460 931 q 559 986 517 986 m 694 0 l 526 0 l 526 115 q 310 -7 471 -7 q 143 54 203 -7 q 83 228 83 115 l 83 704 l 250 704 l 250 267 q 283 165 250 200 q 380 131 315 131 q 485 179 444 131 q 526 326 526 228 l 526 704 l 694 704 l 694 0 z "},"ý":{"ha":718,"x_min":8,"x_max":706,"o":"m 451 772 l 311 772 l 438 1007 l 613 1007 l 451 772 m 129 -262 q 60 -256 89 -262 l 60 -118 q 107 -124 82 -124 q 286 14 233 -124 l 8 704 l 193 704 q 368 206 351 268 q 531 704 372 221 l 706 704 l 451 19 q 129 -262 346 -262 z "},"þ":{"ha":825,"x_min":90,"x_max":772,"o":"m 310 518 q 283 491 310 518 q 257 357 257 464 q 308 192 257 250 q 433 133 360 133 q 554 191 507 133 q 601 353 601 249 q 554 515 601 457 q 435 572 507 572 q 310 518 363 572 m 257 -265 l 90 -265 l 90 982 l 257 982 l 257 596 q 471 714 332 714 q 691 615 610 714 q 772 357 772 517 q 691 94 772 197 q 469 -10 610 -10 q 257 106 329 -10 l 257 -265 z "},"ÿ":{"ha":718,"x_min":8,"x_max":706,"o":"m 203 986 q 225 986 203 986 q 274 958 246 986 q 301 890 301 931 q 274 821 301 849 q 203 793 246 793 q 133 821 161 793 q 106 890 106 849 q 133 958 106 931 q 203 986 161 986 m 541 986 q 562 986 541 986 q 611 958 583 986 q 639 890 639 931 q 611 821 639 849 q 541 793 583 793 q 470 821 499 793 q 442 890 442 849 q 470 958 442 931 q 541 986 499 986 m 129 -262 q 60 -256 89 -262 l 60 -118 q 107 -124 82 -124 q 286 14 233 -124 l 8 704 l 193 704 q 368 206 351 268 q 531 704 372 221 l 706 704 l 451 19 q 129 -262 346 -262 z "},"Ā":{"ha":936,"x_min":39,"x_max":899,"o":"m 701 1065 l 246 1065 l 246 1181 l 701 1181 l 701 1065 m 222 0 l 39 0 l 356 936 l 582 936 l 899 0 l 710 0 l 643 213 l 289 213 l 222 0 m 467 806 q 335 356 456 746 l 599 356 q 467 806 483 735 z "},"ā":{"ha":704,"x_min":56,"x_max":622,"o":"m 581 832 l 125 832 l 125 947 l 581 947 l 581 832 m 274 -6 q 115 53 174 -6 q 56 206 56 111 q 131 357 56 300 q 347 414 206 414 l 450 414 l 450 457 q 419 546 450 515 q 315 576 389 576 q 108 514 203 576 l 108 668 q 336 717 188 717 q 622 450 622 717 l 622 0 l 457 0 l 457 85 q 274 -6 408 -6 m 332 118 q 419 151 388 118 q 450 236 450 183 l 450 303 l 364 303 q 264 276 299 303 q 229 207 229 249 q 332 118 229 118 z "},"Ă":{"ha":936,"x_min":39,"x_max":899,"o":"m 724 1239 q 655 1059 724 1119 q 467 999 586 999 q 278 1060 347 999 q 210 1239 210 1121 l 340 1239 q 373 1144 340 1179 q 467 1108 406 1108 q 560 1144 528 1108 q 593 1239 593 1179 l 724 1239 m 222 0 l 39 0 l 356 936 l 582 936 l 899 0 l 710 0 l 643 213 l 289 213 l 222 0 m 467 806 q 335 356 456 746 l 599 356 q 467 806 483 735 z "},"ă":{"ha":704,"x_min":56,"x_max":622,"o":"m 610 1006 q 541 826 610 886 q 353 765 472 765 q 165 826 233 765 q 96 1006 96 888 l 226 1006 q 259 910 226 946 q 353 875 292 875 q 447 910 414 875 q 479 1006 479 946 l 610 1006 m 274 -6 q 115 53 174 -6 q 56 206 56 111 q 131 357 56 300 q 347 414 206 414 l 450 414 l 450 457 q 419 546 450 515 q 315 576 389 576 q 108 514 203 576 l 108 668 q 336 717 188 717 q 622 450 622 717 l 622 0 l 457 0 l 457 85 q 274 -6 408 -6 m 332 118 q 419 151 388 118 q 450 236 450 183 l 450 303 l 364 303 q 264 276 299 303 q 229 207 229 249 q 332 118 229 118 z "},"Ą":{"ha":926,"x_min":33,"x_max":914,"o":"m 914 -319 q 773 -351 858 -351 q 642 -307 688 -351 q 596 -193 596 -262 q 703 7 596 -85 l 639 213 l 285 213 l 218 0 l 33 0 l 351 936 l 578 936 l 893 0 q 732 -178 732 -93 q 803 -239 732 -239 q 914 -201 860 -239 l 914 -319 m 463 806 q 329 356 451 749 l 594 356 q 463 806 479 735 z "},"ą":{"ha":700,"x_min":56,"x_max":643,"o":"m 643 -319 q 502 -351 588 -351 q 371 -307 417 -351 q 325 -193 325 -262 q 457 17 325 -75 l 457 86 q 274 -6 400 -6 q 114 51 172 -6 q 56 204 56 108 q 131 357 56 300 q 349 414 207 414 l 450 414 l 450 457 q 419 546 450 515 q 315 576 389 576 q 108 514 200 576 l 108 668 q 336 717 192 717 q 622 450 622 717 l 622 0 q 461 -178 461 -92 q 532 -239 461 -239 q 643 -201 586 -239 l 643 -319 m 332 119 q 418 151 386 119 q 450 233 450 183 l 450 301 l 371 301 q 266 276 303 301 q 229 207 229 251 q 332 119 229 119 z "},"Ć":{"ha":846,"x_min":60,"x_max":781,"o":"m 576 1004 l 436 1004 l 563 1239 l 738 1239 l 576 1004 m 539 -11 q 195 120 331 -11 q 60 466 60 251 q 194 815 60 681 q 539 949 328 949 q 779 897 693 949 l 779 726 q 546 788 674 788 q 333 701 418 788 q 247 468 247 614 q 333 236 247 322 q 553 150 418 150 q 781 219 688 150 l 781 44 q 539 -11 694 -11 z "},"ć":{"ha":653,"x_min":53,"x_max":643,"o":"m 482 771 l 342 771 l 468 1006 l 643 1006 l 482 771 m 417 -12 q 153 90 254 -12 q 53 349 53 193 q 153 610 54 504 q 425 715 253 715 q 600 676 528 715 l 600 529 q 438 574 531 574 q 285 513 344 574 q 224 350 225 451 q 284 189 226 250 q 434 128 342 128 q 600 175 526 128 l 600 31 q 417 -12 526 -12 z "},"Č":{"ha":846,"x_min":60,"x_max":785,"o":"m 583 1004 l 436 1004 l 235 1239 l 397 1239 l 510 1101 l 622 1239 l 785 1239 l 583 1004 m 539 -11 q 195 120 331 -11 q 60 466 60 251 q 194 815 60 681 q 539 949 328 949 q 779 897 693 949 l 779 726 q 546 788 674 788 q 333 701 418 788 q 247 468 247 614 q 333 236 247 322 q 553 150 418 150 q 781 219 688 150 l 781 44 q 539 -11 694 -11 z "},"č":{"ha":653,"x_min":53,"x_max":657,"o":"m 456 772 l 308 772 l 107 1007 l 269 1007 l 382 869 l 494 1007 l 657 1007 l 456 772 m 417 -12 q 153 90 254 -12 q 53 349 53 193 q 153 610 54 504 q 425 715 253 715 q 600 676 528 715 l 600 529 q 438 574 531 574 q 285 513 344 574 q 224 350 225 451 q 284 189 226 250 q 434 128 342 128 q 600 175 526 128 l 600 31 q 417 -12 526 -12 z "},"Ď":{"ha":938,"x_min":97,"x_max":879,"o":"m 511 1004 l 364 1004 l 163 1239 l 325 1239 l 438 1101 l 550 1239 l 713 1239 l 511 1004 m 397 789 l 276 789 l 276 146 l 400 146 q 624 237 547 146 q 700 472 700 328 q 619 702 700 615 q 397 789 538 789 m 403 0 l 97 0 l 97 936 l 403 936 q 746 807 613 936 q 879 472 879 678 q 750 133 879 265 q 403 0 621 0 z "},"ď":{"ha":990,"x_min":53,"x_max":1092,"o":"m 932 700 l 807 700 l 913 983 l 1092 983 l 932 700 m 735 0 l 568 0 l 568 110 q 356 -10 496 -10 q 134 96 215 -10 q 53 360 53 201 q 138 616 53 518 q 359 714 224 714 q 568 596 494 714 l 568 982 l 735 982 l 735 0 m 392 572 q 357 572 392 572 q 273 513 322 572 q 224 353 224 454 q 272 193 224 253 q 394 133 321 133 q 518 191 468 133 q 568 357 568 249 q 515 519 568 465 q 392 572 463 572 z "},"Đ":{"ha":1031,"x_min":89,"x_max":972,"o":"m 581 392 l 369 392 l 369 146 l 493 146 q 717 237 640 146 q 794 472 794 328 q 713 702 794 615 q 490 789 631 789 l 369 789 l 369 535 l 581 535 l 581 392 m 496 0 l 190 0 l 190 392 l 89 392 l 89 535 l 190 535 l 190 936 l 496 936 q 839 807 706 936 q 972 471 972 678 q 844 132 972 264 q 496 0 715 0 z "},"đ":{"ha":825,"x_min":53,"x_max":822,"o":"m 735 0 l 568 0 l 568 110 q 356 -10 496 -10 q 134 96 215 -10 q 53 360 53 201 q 138 616 53 518 q 359 714 224 714 q 568 596 494 714 l 568 796 l 336 796 l 336 896 l 568 896 l 568 982 l 735 982 l 735 896 l 822 896 l 822 796 l 735 796 l 735 0 m 392 572 q 357 572 392 572 q 273 513 322 572 q 224 353 224 454 q 272 193 224 253 q 394 133 321 133 q 518 191 468 133 q 568 357 568 249 q 515 519 568 465 q 392 572 463 572 z "},"Ē":{"ha":733,"x_min":97,"x_max":656,"o":"m 601 1068 l 146 1068 l 146 1183 l 601 1183 l 601 1068 m 656 0 l 97 0 l 97 936 l 650 936 l 650 793 l 274 793 l 274 539 l 608 539 l 608 397 l 274 397 l 274 143 l 656 143 l 656 0 z "},"ē":{"ha":735,"x_min":53,"x_max":672,"o":"m 606 832 l 150 832 l 150 947 l 606 947 l 606 832 m 514 431 q 477 540 511 499 q 381 581 443 581 q 274 537 318 581 q 218 410 231 493 l 514 410 l 514 431 m 415 -7 q 150 93 247 -7 q 53 356 53 193 q 144 615 53 519 q 374 711 236 711 q 592 628 511 711 q 672 385 672 544 q 663 285 672 346 l 221 285 q 297 168 239 208 q 453 128 354 128 q 628 183 551 128 l 628 39 q 415 -7 554 -7 z "},"Ė":{"ha":733,"x_min":97,"x_max":656,"o":"m 387 1219 q 408 1219 387 1219 q 457 1192 429 1219 q 485 1123 485 1164 q 457 1054 485 1082 q 387 1026 429 1026 q 317 1054 344 1026 q 289 1123 289 1082 q 317 1192 289 1164 q 387 1219 344 1219 m 656 0 l 97 0 l 97 936 l 650 936 l 650 793 l 274 793 l 274 539 l 608 539 l 608 397 l 274 397 l 274 143 l 656 143 l 656 0 z "},"ė":{"ha":735,"x_min":53,"x_max":672,"o":"m 390 988 q 411 988 390 988 q 460 960 432 988 q 488 891 488 932 q 460 822 488 850 q 390 794 432 794 q 319 822 347 794 q 292 891 292 850 q 319 960 292 932 q 390 988 347 988 m 514 431 q 477 540 511 499 q 381 581 443 581 q 274 537 318 581 q 218 410 231 493 l 514 410 l 514 431 m 415 -7 q 150 93 247 -7 q 53 356 53 193 q 144 615 53 519 q 374 711 236 711 q 592 628 511 711 q 672 385 672 544 q 663 285 672 346 l 221 285 q 297 168 239 208 q 453 128 354 128 q 628 183 551 128 l 628 39 q 415 -7 554 -7 z "},"Ę":{"ha":733,"x_min":97,"x_max":656,"o":"m 631 -319 q 488 -351 574 -351 q 357 -307 403 -351 q 311 -193 311 -262 q 421 0 311 -86 l 97 0 l 97 936 l 650 936 l 650 793 l 274 793 l 274 539 l 608 539 l 608 397 l 274 397 l 274 143 l 656 143 l 656 0 l 608 0 q 447 -178 447 -93 q 519 -239 447 -239 q 631 -201 574 -239 l 631 -319 z "},"ę":{"ha":735,"x_min":53,"x_max":672,"o":"m 599 -299 q 456 -331 542 -331 q 325 -286 371 -331 q 279 -172 279 -242 q 361 -4 279 -82 q 135 109 217 13 q 53 363 53 206 q 144 615 53 519 q 374 711 236 711 q 592 628 511 711 q 672 385 672 544 q 663 285 672 346 l 221 285 q 297 168 239 208 q 453 128 354 128 q 628 183 551 128 l 628 39 q 561 11 600 22 q 415 -157 415 -76 q 488 -218 415 -218 q 599 -181 542 -218 l 599 -299 m 514 431 q 477 540 511 499 q 381 581 443 581 q 274 537 318 581 q 218 410 231 493 l 514 410 l 514 431 z "},"Ě":{"ha":733,"x_min":97,"x_max":658,"o":"m 457 1004 l 310 1004 l 108 1239 l 271 1239 l 383 1101 l 496 1239 l 658 1239 l 457 1004 m 656 0 l 97 0 l 97 936 l 650 936 l 650 793 l 274 793 l 274 539 l 608 539 l 608 397 l 274 397 l 274 143 l 656 143 l 656 0 z "},"ě":{"ha":735,"x_min":53,"x_max":672,"o":"m 453 772 l 306 772 l 104 1007 l 267 1007 l 379 869 l 492 1007 l 654 1007 l 453 772 m 514 431 q 477 540 511 499 q 381 581 443 581 q 274 537 318 581 q 218 410 231 493 l 514 410 l 514 431 m 415 -7 q 150 93 247 -7 q 53 356 53 193 q 144 615 53 519 q 374 711 236 711 q 592 628 511 711 q 672 385 672 544 q 663 285 672 346 l 221 285 q 297 168 239 208 q 453 128 354 128 q 628 183 551 128 l 628 39 q 415 -7 554 -7 z "},"Ğ":{"ha":963,"x_min":60,"x_max":875,"o":"m 776 1239 q 708 1059 776 1119 q 519 999 639 999 q 331 1060 400 999 q 263 1239 263 1121 l 393 1239 q 426 1144 393 1179 q 519 1108 458 1108 q 613 1144 581 1108 q 646 1239 646 1179 l 776 1239 m 556 -11 q 197 118 333 -11 q 60 467 60 247 q 201 819 60 686 q 557 953 342 953 q 831 893 717 953 l 831 714 q 561 790 703 790 q 333 703 419 790 q 247 468 247 615 q 331 235 247 321 q 563 150 415 150 q 703 175 635 150 l 703 396 l 531 396 l 531 546 l 875 546 l 875 96 l 874 96 l 875 81 q 556 -11 747 -11 z "},"ğ":{"ha":793,"x_min":58,"x_max":711,"o":"m 679 1007 q 610 827 679 888 q 422 767 542 767 q 234 828 303 767 q 165 1007 165 889 l 296 1007 q 328 912 296 947 q 422 876 361 876 q 516 912 483 876 q 549 1007 549 947 l 679 1007 m 385 569 q 350 569 385 569 q 274 513 315 569 q 232 360 232 457 q 275 210 232 263 q 385 158 318 158 q 499 212 453 158 q 544 365 544 265 q 500 517 544 464 q 385 569 456 569 m 711 64 q 615 -187 711 -103 q 374 -271 518 -271 q 126 -221 231 -271 l 126 -51 q 353 -118 221 -118 q 544 65 544 -118 l 544 126 q 353 22 481 22 q 142 109 226 22 q 58 355 58 196 q 138 613 58 514 q 349 713 218 713 q 544 603 481 713 l 544 704 l 711 704 l 711 64 z "},"Ģ":{"ha":963,"x_min":60,"x_max":875,"o":"m 451 -354 l 326 -354 l 432 -71 l 611 -71 l 451 -354 m 556 -11 q 197 118 333 -11 q 60 467 60 247 q 201 819 60 686 q 557 953 342 953 q 831 893 717 953 l 831 714 q 561 790 703 790 q 333 703 419 790 q 247 468 247 615 q 331 235 247 321 q 563 150 415 150 q 703 175 635 150 l 703 396 l 531 396 l 531 546 l 875 546 l 875 96 l 874 96 l 875 81 q 556 -11 747 -11 z "},"ģ":{"ha":793,"x_min":58,"x_max":711,"o":"m 531 772 l 353 772 l 511 1056 l 636 1056 l 531 772 m 385 569 q 350 569 385 569 q 274 513 315 569 q 232 360 232 457 q 275 210 232 263 q 385 158 318 158 q 499 212 453 158 q 544 365 544 265 q 500 517 544 464 q 385 569 456 569 m 711 64 q 615 -187 711 -103 q 374 -271 518 -271 q 126 -221 231 -271 l 126 -51 q 353 -118 221 -118 q 544 65 544 -118 l 544 126 q 353 22 481 22 q 142 109 226 22 q 58 355 58 196 q 138 613 58 514 q 349 713 218 713 q 544 603 481 713 l 544 704 l 711 704 l 711 64 z "},"Ī":{"ha":392,"x_min":-32,"x_max":424,"o":"m 424 1064 l -32 1064 l -32 1179 l 424 1179 l 424 1064 m 283 0 l 108 0 l 108 936 l 283 936 l 283 0 z "},"ī":{"ha":361,"x_min":-47,"x_max":408,"o":"m 408 832 l -47 832 l -47 947 l 408 947 l 408 832 m 264 0 l 97 0 l 97 704 l 264 704 l 264 0 z "},"Į":{"ha":392,"x_min":-14,"x_max":306,"o":"m 306 -319 q 163 -351 249 -351 q 32 -307 78 -351 q -14 -193 -14 -262 q 108 10 -14 -83 l 108 936 l 283 936 l 283 0 q 122 -178 122 -93 q 194 -239 122 -239 q 306 -201 250 -239 l 306 -319 z "},"į":{"ha":361,"x_min":-33,"x_max":286,"o":"m 286 -319 q 144 -351 229 -351 q 13 -307 58 -351 q -33 -193 -33 -262 q 97 15 -33 -75 l 97 704 l 264 704 l 264 0 q 103 -178 103 -93 q 175 -239 103 -239 q 286 -201 229 -239 l 286 -319 m 181 1015 q 201 1015 181 1015 q 251 986 222 1015 q 281 915 281 957 q 251 843 281 872 q 181 814 222 814 q 110 843 139 814 q 81 915 81 872 q 110 986 81 957 q 181 1015 139 1015 z "},"İ":{"ha":392,"x_min":100,"x_max":296,"o":"m 198 1219 q 219 1219 198 1219 q 268 1192 240 1219 q 296 1123 296 1164 q 268 1054 296 1082 q 198 1026 240 1026 q 128 1054 156 1026 q 100 1123 100 1082 q 128 1192 100 1164 q 198 1219 156 1219 m 283 0 l 108 0 l 108 936 l 283 936 l 283 0 z "},"ı":{"ha":361,"x_min":97,"x_max":264,"o":"m 264 0 l 97 0 l 97 704 l 264 704 l 264 0 z "},"Ķ":{"ha":872,"x_min":97,"x_max":843,"o":"m 272 0 l 97 0 l 97 936 l 272 936 l 272 0 m 375 -354 l 250 -354 l 356 -71 l 535 -71 l 375 -354 m 843 0 l 622 0 l 286 464 l 610 936 l 819 936 l 494 467 l 843 0 z "},"ķ":{"ha":725,"x_min":90,"x_max":706,"o":"m 315 -354 l 189 -354 l 294 -71 l 474 -71 l 315 -354 m 257 0 l 90 0 l 90 965 l 257 965 l 257 374 l 506 704 l 700 704 l 442 368 l 706 0 l 510 0 l 257 364 l 257 0 z "},"Ĺ":{"ha":672,"x_min":97,"x_max":657,"o":"m 496 1004 l 356 1004 l 482 1239 l 657 1239 l 496 1004 m 638 0 l 97 0 l 97 936 l 272 936 l 272 156 l 638 156 l 638 0 z "},"ĺ":{"ha":361,"x_min":97,"x_max":410,"o":"m 249 1050 l 108 1050 l 235 1285 l 410 1285 l 249 1050 m 264 0 l 97 0 l 97 982 l 264 982 l 264 0 z "},"Ļ":{"ha":672,"x_min":97,"x_max":638,"o":"m 638 0 l 97 0 l 97 936 l 272 936 l 272 156 l 638 156 l 638 0 m 318 -354 l 193 -354 l 299 -71 l 478 -71 l 318 -354 z "},"ļ":{"ha":361,"x_min":-17,"x_max":268,"o":"m 110 -354 l -17 -354 l 89 -71 l 268 -71 l 110 -354 m 264 0 l 97 0 l 97 982 l 264 982 l 264 0 z "},"Ľ":{"ha":672,"x_min":97,"x_max":656,"o":"m 497 689 l 371 689 l 476 972 l 656 972 l 497 689 m 638 0 l 97 0 l 97 936 l 272 936 l 272 156 l 638 156 l 638 0 z "},"ľ":{"ha":374,"x_min":97,"x_max":633,"o":"m 475 701 l 350 701 l 456 983 l 633 983 l 475 701 m 264 0 l 97 0 l 97 982 l 264 982 l 264 0 z "},"Ł":{"ha":749,"x_min":54,"x_max":700,"o":"m 335 156 l 700 156 l 700 0 l 158 0 l 158 304 l 54 242 l 54 388 l 158 450 l 158 936 l 335 936 l 335 557 l 554 689 l 554 543 l 335 411 l 335 156 z "},"ł":{"ha":447,"x_min":39,"x_max":424,"o":"m 308 0 l 142 0 l 142 386 l 39 315 l 39 461 l 142 532 l 142 982 l 308 982 l 308 647 l 424 726 l 424 581 l 308 501 l 308 0 z "},"Ń":{"ha":956,"x_min":97,"x_max":860,"o":"m 572 1004 l 432 1004 l 558 1239 l 733 1239 l 572 1004 m 272 0 l 97 0 l 97 936 l 296 936 q 622 364 579 443 q 694 215 664 285 q 683 546 683 331 l 683 936 l 860 936 l 860 0 l 660 0 l 432 389 q 257 725 324 572 q 272 390 272 593 l 272 0 z "},"ń":{"ha":785,"x_min":90,"x_max":701,"o":"m 503 772 l 363 772 l 489 1007 l 664 1007 l 503 772 m 701 0 l 535 0 l 535 433 q 501 538 535 503 q 407 574 468 574 q 301 523 346 574 q 257 378 257 472 l 257 0 l 90 0 l 90 704 l 257 704 l 257 583 q 474 713 317 713 q 640 649 579 713 q 701 468 701 585 l 701 0 z "},"Ņ":{"ha":956,"x_min":97,"x_max":860,"o":"m 421 -354 l 294 -354 l 400 -71 l 579 -71 l 421 -354 m 272 0 l 97 0 l 97 936 l 296 936 q 622 364 579 443 q 694 215 664 285 q 683 546 683 331 l 683 936 l 860 936 l 860 0 l 660 0 l 432 389 q 257 725 324 572 q 272 390 272 593 l 272 0 z "},"ņ":{"ha":785,"x_min":90,"x_max":701,"o":"m 332 -354 l 207 -354 l 313 -71 l 492 -71 l 332 -354 m 701 0 l 535 0 l 535 433 q 501 538 535 503 q 407 574 468 574 q 301 523 346 574 q 257 378 257 472 l 257 0 l 90 0 l 90 704 l 257 704 l 257 583 q 474 713 317 713 q 640 649 579 713 q 701 468 701 585 l 701 0 z "},"Ň":{"ha":956,"x_min":97,"x_max":860,"o":"m 564 1004 l 417 1004 l 215 1239 l 378 1239 l 490 1101 l 603 1239 l 765 1239 l 564 1004 m 272 0 l 97 0 l 97 936 l 296 936 q 622 364 579 443 q 694 215 664 285 q 683 546 683 331 l 683 936 l 860 936 l 860 0 l 660 0 l 432 389 q 257 725 324 572 q 272 390 272 593 l 272 0 z "},"ň":{"ha":785,"x_min":90,"x_max":701,"o":"m 483 772 l 336 772 l 135 1007 l 297 1007 l 410 869 l 522 1007 l 685 1007 l 483 772 m 701 0 l 535 0 l 535 433 q 501 538 535 503 q 407 574 468 574 q 301 523 346 574 q 257 378 257 472 l 257 0 l 90 0 l 90 704 l 257 704 l 257 583 q 474 713 317 713 q 640 649 579 713 q 701 468 701 585 l 701 0 z "},"Ō":{"ha":1004,"x_min":60,"x_max":944,"o":"m 729 1064 l 274 1064 l 274 1179 l 729 1179 l 729 1064 m 502 792 q 443 792 502 792 q 315 706 383 792 q 247 472 247 619 q 317 238 247 324 q 503 151 386 151 q 689 237 621 151 q 757 471 757 322 q 689 706 757 619 q 502 792 621 792 m 503 953 q 604 953 503 953 q 825 822 706 953 q 944 472 944 690 q 824 122 944 254 q 503 -10 704 -10 q 181 122 301 -10 q 60 472 60 254 q 180 821 60 689 q 503 953 300 953 z "},"ō":{"ha":785,"x_min":53,"x_max":732,"o":"m 622 832 l 167 832 l 167 947 l 622 947 l 622 832 m 395 579 q 354 579 395 579 q 270 514 313 579 q 228 351 228 449 q 271 188 228 253 q 394 122 314 122 q 517 186 475 122 q 558 350 558 250 q 518 515 558 450 q 395 579 478 579 m 397 715 q 475 715 397 715 q 643 613 554 715 q 732 353 732 511 q 642 92 732 194 q 392 -11 553 -11 q 142 89 232 -11 q 53 347 53 189 q 146 610 53 506 q 397 715 239 715 z "},"Ő":{"ha":1004,"x_min":60,"x_max":944,"o":"m 457 1004 l 332 1004 l 457 1239 l 619 1239 l 457 1004 m 701 1004 l 575 1004 l 710 1239 l 885 1239 l 701 1004 m 502 792 q 443 792 502 792 q 315 706 383 792 q 247 472 247 619 q 317 238 247 324 q 503 151 386 151 q 689 237 621 151 q 757 471 757 322 q 689 706 757 619 q 502 792 621 792 m 503 953 q 604 953 503 953 q 825 822 706 953 q 944 472 944 690 q 824 122 944 254 q 503 -10 704 -10 q 181 122 301 -10 q 60 472 60 254 q 180 821 60 689 q 503 953 300 953 z "},"ő":{"ha":785,"x_min":53,"x_max":785,"o":"m 357 772 l 232 772 l 357 1007 l 519 1007 l 357 772 m 601 772 l 475 772 l 610 1007 l 785 1007 l 601 772 m 395 579 q 354 579 395 579 q 270 514 313 579 q 228 351 228 449 q 271 188 228 253 q 394 122 314 122 q 517 186 475 122 q 558 350 558 250 q 518 515 558 450 q 395 579 478 579 m 397 715 q 475 715 397 715 q 643 613 554 715 q 732 353 732 511 q 642 92 732 194 q 392 -11 553 -11 q 142 89 232 -11 q 53 347 53 189 q 146 610 53 506 q 397 715 239 715 z "},"Œ":{"ha":1381,"x_min":60,"x_max":1303,"o":"m 1303 0 l 743 0 l 743 81 q 496 -10 638 -10 q 177 122 294 -10 q 60 471 60 253 q 177 821 60 689 q 494 953 294 953 q 743 864 639 953 l 743 936 l 1297 936 l 1297 793 l 911 793 l 911 539 l 1256 539 l 1256 397 l 911 397 l 911 143 l 1303 143 l 1303 0 m 313 706 q 280 663 313 706 q 247 471 247 619 q 313 237 247 322 q 497 151 379 151 q 678 237 614 151 q 743 472 743 322 q 678 706 743 621 q 495 792 613 792 q 313 706 378 792 z "},"œ":{"ha":1228,"x_min":53,"x_max":1172,"o":"m 915 -7 q 640 108 742 -7 q 389 -11 550 -11 q 140 89 228 -11 q 53 347 53 189 q 144 610 53 506 q 390 715 235 715 q 638 601 546 715 q 873 711 731 711 q 1094 628 1015 711 q 1172 382 1172 544 q 1164 285 1172 338 l 722 285 q 800 169 742 210 q 953 128 858 128 q 1128 183 1049 128 l 1128 39 q 915 -7 1051 -7 m 1014 439 q 976 543 1010 506 q 881 581 942 581 q 776 538 821 581 q 719 410 732 494 l 1014 410 l 1014 439 m 391 579 q 350 579 391 579 q 268 515 308 579 q 228 351 228 450 q 269 188 228 253 q 391 122 311 122 q 513 186 471 122 q 554 350 554 250 q 514 515 554 450 q 391 579 474 579 z "},"Ŕ":{"ha":818,"x_min":97,"x_max":790,"o":"m 467 1004 l 326 1004 l 453 1239 l 628 1239 l 467 1004 m 272 0 l 97 0 l 97 936 l 386 936 q 637 856 546 936 q 728 640 728 775 q 679 472 726 540 q 550 369 632 403 l 790 0 l 581 0 l 368 342 l 272 342 l 272 0 m 386 792 l 272 792 l 272 486 l 389 486 q 510 527 469 486 q 550 641 550 568 q 508 753 550 714 q 386 792 465 792 z "},"ŕ":{"ha":490,"x_min":89,"x_max":528,"o":"m 367 772 l 226 772 l 353 1007 l 528 1007 l 367 772 m 257 0 l 89 0 l 90 704 l 257 704 l 257 579 q 435 710 306 710 q 482 706 464 710 l 482 544 q 411 558 450 558 q 300 503 343 558 q 257 364 257 447 l 257 0 z "},"Ŗ":{"ha":818,"x_min":97,"x_max":790,"o":"m 272 0 l 97 0 l 97 936 l 386 936 q 637 856 546 936 q 728 640 728 775 q 679 472 726 540 q 550 369 632 403 l 790 0 l 581 0 l 368 342 l 272 342 l 272 0 m 350 -354 l 225 -354 l 331 -71 l 510 -71 l 350 -354 m 386 792 l 272 792 l 272 486 l 389 486 q 510 527 469 486 q 550 641 550 568 q 508 753 550 714 q 386 792 465 792 z "},"ŗ":{"ha":490,"x_min":-28,"x_max":482,"o":"m 257 0 l 89 0 l 90 704 l 257 704 l 257 579 q 435 710 306 710 q 482 706 464 710 l 482 544 q 411 558 450 558 q 300 503 343 558 q 257 364 257 447 l 257 0 m 97 -354 l -28 -354 l 78 -71 l 257 -71 l 97 -354 z "},"Ř":{"ha":818,"x_min":97,"x_max":790,"o":"m 493 1004 l 346 1004 l 144 1239 l 307 1239 l 419 1101 l 532 1239 l 694 1239 l 493 1004 m 272 0 l 97 0 l 97 936 l 386 936 q 637 856 546 936 q 728 640 728 775 q 679 472 726 540 q 550 369 632 403 l 790 0 l 581 0 l 368 342 l 272 342 l 272 0 m 386 792 l 272 792 l 272 486 l 389 486 q 510 527 469 486 q 550 641 550 568 q 508 753 550 714 q 386 792 465 792 z "},"ř":{"ha":490,"x_min":14,"x_max":564,"o":"m 363 772 l 215 772 l 14 1007 l 176 1007 l 289 869 l 401 1007 l 564 1007 l 363 772 m 257 0 l 89 0 l 90 704 l 257 704 l 257 579 q 435 710 306 710 q 482 706 464 710 l 482 544 q 411 558 450 558 q 300 503 343 558 q 257 364 257 447 l 257 0 z "},"Ś":{"ha":719,"x_min":68,"x_max":663,"o":"m 444 1004 l 304 1004 l 431 1239 l 606 1239 l 444 1004 m 663 260 q 663 199 663 260 q 573 63 663 138 q 331 -11 483 -11 q 75 49 179 -11 l 75 228 q 336 142 194 142 q 439 173 400 142 q 478 257 478 204 q 468 301 478 282 q 428 340 458 321 q 296 408 369 379 q 213 451 244 432 q 143 501 181 469 q 68 682 68 565 q 156 871 68 799 q 383 943 244 943 q 618 897 522 943 l 618 728 q 396 790 514 790 q 294 761 331 790 q 257 686 257 732 q 297 610 257 640 q 403 550 336 581 q 506 501 471 519 q 581 449 540 482 q 663 260 663 382 z "},"ś":{"ha":593,"x_min":75,"x_max":557,"o":"m 396 772 l 256 772 l 382 1007 l 557 1007 l 396 772 m 550 203 q 479 49 550 104 q 284 -7 408 -7 q 79 36 160 -7 l 79 189 q 281 126 172 126 q 352 144 326 126 q 378 185 378 161 q 369 224 378 210 q 338 253 361 239 q 276 284 307 271 q 242 299 244 297 q 236 301 240 300 q 229 304 232 303 q 75 504 75 374 q 149 657 75 601 q 331 713 222 713 q 511 682 440 713 l 511 535 q 338 576 442 576 q 270 558 294 576 q 246 510 246 539 q 258 474 246 486 q 279 454 271 461 q 303 439 288 447 q 360 413 340 421 q 503 323 456 372 q 550 203 550 274 z "},"Ş":{"ha":719,"x_min":68,"x_max":663,"o":"m 433 -71 q 458 -181 458 -108 q 399 -308 458 -254 q 224 -364 339 -362 l 224 -256 q 333 -162 333 -251 q 299 -71 333 -122 l 433 -71 m 663 260 q 663 199 663 260 q 573 63 663 138 q 331 -11 483 -11 q 75 49 179 -11 l 75 228 q 336 142 194 142 q 439 173 400 142 q 478 257 478 204 q 468 301 478 282 q 428 340 458 321 q 296 408 369 379 q 213 451 244 432 q 143 501 181 469 q 68 682 68 565 q 156 871 68 799 q 383 943 244 943 q 618 897 522 943 l 618 728 q 396 790 514 790 q 294 761 331 790 q 257 686 257 732 q 297 610 257 640 q 403 550 336 581 q 506 501 471 519 q 581 449 540 482 q 663 260 663 382 z "},"ş":{"ha":593,"x_min":75,"x_max":550,"o":"m 379 -71 q 404 -181 404 -108 q 344 -308 404 -254 q 169 -364 285 -362 l 169 -256 q 279 -162 279 -251 q 244 -71 279 -122 l 379 -71 m 550 203 q 479 49 550 104 q 284 -7 408 -7 q 79 36 160 -7 l 79 189 q 281 126 172 126 q 352 144 326 126 q 378 185 378 161 q 369 224 378 210 q 338 253 361 239 q 276 284 307 271 q 242 299 244 297 q 236 301 240 300 q 229 304 232 303 q 75 504 75 374 q 149 657 75 601 q 331 713 222 713 q 511 682 440 713 l 511 535 q 338 576 442 576 q 270 558 294 576 q 246 510 246 539 q 258 474 246 486 q 279 454 271 461 q 303 439 288 447 q 360 413 340 421 q 503 323 456 372 q 550 203 550 274 z "},"Š":{"ha":719,"x_min":68,"x_max":663,"o":"m 442 1004 l 294 1004 l 93 1239 l 256 1239 l 368 1101 l 481 1239 l 643 1239 l 442 1004 m 663 260 q 663 199 663 260 q 573 63 663 138 q 331 -11 483 -11 q 75 49 179 -11 l 75 228 q 336 142 194 142 q 439 173 400 142 q 478 257 478 204 q 468 301 478 282 q 428 340 458 321 q 296 408 369 379 q 213 451 244 432 q 143 501 181 469 q 68 682 68 565 q 156 871 68 799 q 383 943 244 943 q 618 897 522 943 l 618 728 q 396 790 514 790 q 294 761 331 790 q 257 686 257 732 q 297 610 257 640 q 403 550 336 581 q 506 501 471 519 q 581 449 540 482 q 663 260 663 382 z "},"š":{"ha":593,"x_min":53,"x_max":603,"o":"m 401 772 l 254 772 l 53 1007 l 215 1007 l 328 869 l 440 1007 l 603 1007 l 401 772 m 550 203 q 479 49 550 104 q 284 -7 408 -7 q 79 36 160 -7 l 79 189 q 281 126 172 126 q 352 144 326 126 q 378 185 378 161 q 369 224 378 210 q 338 253 361 239 q 276 284 307 271 q 242 299 244 297 q 236 301 240 300 q 229 304 232 303 q 75 504 75 374 q 149 657 75 601 q 331 713 222 713 q 511 682 440 713 l 511 535 q 338 576 442 576 q 270 558 294 576 q 246 510 246 539 q 258 474 246 486 q 279 454 271 461 q 303 439 288 447 q 360 413 340 421 q 503 323 456 372 q 550 203 550 274 z "},"Ţ":{"ha":722,"x_min":36,"x_max":688,"o":"m 432 -71 q 457 -181 457 -108 q 397 -308 457 -254 q 222 -364 338 -362 l 222 -256 q 332 -162 332 -251 q 297 -71 332 -122 l 432 -71 m 688 792 l 450 792 l 450 0 l 274 0 l 274 792 l 36 792 l 36 936 l 688 936 l 688 792 z "},"ţ":{"ha":526,"x_min":21,"x_max":479,"o":"m 357 -71 q 382 -181 382 -108 q 322 -308 382 -254 q 147 -364 263 -362 l 147 -256 q 257 -162 257 -251 q 222 -71 257 -122 l 357 -71 m 354 -7 q 126 224 126 -7 l 126 579 l 21 579 l 21 704 l 126 704 l 126 874 l 293 874 l 293 704 l 468 704 l 468 579 l 293 579 l 293 221 q 317 153 293 176 q 388 131 340 131 q 479 160 435 131 l 479 17 q 354 -7 431 -7 z "},"Ť":{"ha":722,"x_min":36,"x_max":688,"o":"m 436 1004 l 289 1004 l 88 1239 l 250 1239 l 363 1101 l 475 1239 l 638 1239 l 436 1004 m 688 792 l 450 792 l 450 0 l 274 0 l 274 792 l 36 792 l 36 936 l 688 936 l 688 792 z "},"ť":{"ha":526,"x_min":21,"x_max":653,"o":"m 494 806 l 368 806 l 474 1089 l 653 1089 l 494 806 m 354 -7 q 126 224 126 -7 l 126 579 l 21 579 l 21 704 l 126 704 l 126 874 l 293 874 l 293 704 l 468 704 l 468 579 l 293 579 l 293 221 q 317 153 293 176 q 388 131 340 131 q 479 160 435 131 l 479 17 q 354 -7 431 -7 z "},"Ū":{"ha":915,"x_min":92,"x_max":824,"o":"m 694 1064 l 239 1064 l 239 1179 l 694 1179 l 694 1064 m 824 360 q 726 83 824 178 q 459 -12 628 -12 q 191 81 290 -12 q 92 350 92 175 l 92 936 l 267 936 l 267 351 q 319 197 267 244 q 457 149 372 149 q 649 358 649 149 l 649 936 l 824 936 l 824 360 z "},"ū":{"ha":785,"x_min":83,"x_max":694,"o":"m 615 832 l 160 832 l 160 947 l 615 947 l 615 832 m 694 0 l 526 0 l 526 115 q 310 -7 471 -7 q 143 54 203 -7 q 83 228 83 115 l 83 704 l 250 704 l 250 267 q 283 165 250 200 q 380 131 315 131 q 485 179 444 131 q 526 326 526 228 l 526 704 l 694 704 l 694 0 z "},"Ů":{"ha":915,"x_min":92,"x_max":824,"o":"m 408 1219 q 398 1207 408 1219 q 388 1165 388 1196 q 408 1112 388 1135 q 461 1089 429 1089 q 514 1112 493 1089 q 535 1165 535 1135 q 514 1219 535 1196 q 461 1242 493 1242 q 408 1219 429 1242 m 584 1285 q 609 1260 584 1285 q 635 1163 635 1235 q 584 1040 635 1090 q 461 989 533 989 q 338 1040 389 989 q 288 1163 288 1090 q 338 1285 288 1235 q 461 1336 389 1336 q 584 1285 533 1336 m 824 360 q 726 83 824 178 q 459 -12 628 -12 q 191 81 290 -12 q 92 350 92 175 l 92 936 l 267 936 l 267 351 q 319 197 267 244 q 457 149 372 149 q 649 358 649 149 l 649 936 l 824 936 l 824 360 z "},"ů":{"ha":785,"x_min":83,"x_max":694,"o":"m 343 987 q 333 975 343 987 q 322 933 322 964 q 343 880 322 903 q 396 857 364 857 q 449 880 428 857 q 469 933 469 903 q 449 987 469 964 q 396 1010 428 1010 q 343 987 364 1010 m 519 1053 q 544 1028 519 1053 q 569 931 569 1003 q 519 808 569 858 q 396 757 468 757 q 273 808 324 757 q 222 931 222 858 q 273 1053 222 1003 q 396 1104 324 1104 q 519 1053 468 1104 m 694 0 l 526 0 l 526 115 q 310 -7 471 -7 q 143 54 203 -7 q 83 228 83 115 l 83 704 l 250 704 l 250 267 q 283 165 250 200 q 380 131 315 131 q 485 179 444 131 q 526 326 526 228 l 526 704 l 694 704 l 694 0 z "},"Ű":{"ha":915,"x_min":92,"x_max":828,"o":"m 400 1004 l 275 1004 l 400 1239 l 563 1239 l 400 1004 m 644 1004 l 518 1004 l 653 1239 l 828 1239 l 644 1004 m 824 360 q 726 83 824 178 q 459 -12 628 -12 q 191 81 290 -12 q 92 350 92 175 l 92 936 l 267 936 l 267 351 q 319 197 267 244 q 457 149 372 149 q 649 358 649 149 l 649 936 l 824 936 l 824 360 z "},"ű":{"ha":785,"x_min":83,"x_max":767,"o":"m 339 772 l 214 772 l 339 1007 l 501 1007 l 339 772 m 583 772 l 457 772 l 592 1007 l 767 1007 l 583 772 m 694 0 l 526 0 l 526 115 q 310 -7 471 -7 q 143 54 203 -7 q 83 228 83 115 l 83 704 l 250 704 l 250 267 q 283 165 250 200 q 380 131 315 131 q 485 179 444 131 q 526 326 526 228 l 526 704 l 694 704 l 694 0 z "},"Ų":{"ha":915,"x_min":92,"x_max":824,"o":"m 824 360 q 766 133 824 222 q 604 10 708 44 q 446 -167 446 -83 q 518 -228 446 -228 q 629 -190 572 -228 l 629 -308 q 487 -340 572 -340 q 356 -296 401 -340 q 310 -182 310 -251 q 396 -10 310 -89 q 173 99 254 7 q 92 350 92 192 l 92 936 l 267 936 l 267 351 q 319 197 267 244 q 457 149 372 149 q 649 358 649 149 l 649 936 l 824 936 l 824 360 z "},"ų":{"ha":785,"x_min":83,"x_max":717,"o":"m 717 -319 q 574 -351 660 -351 q 443 -307 489 -351 q 397 -193 397 -262 q 526 14 397 -78 l 526 115 q 310 -7 471 -7 q 143 54 203 -7 q 83 228 83 115 l 83 704 l 250 704 l 250 267 q 283 165 250 200 q 380 131 315 131 q 485 179 444 131 q 526 326 526 228 l 526 704 l 694 704 l 694 0 q 533 -178 533 -93 q 606 -239 533 -239 q 717 -201 661 -239 l 717 -319 z "},"Ÿ":{"ha":867,"x_min":25,"x_max":842,"o":"m 272 1218 q 293 1218 272 1218 q 342 1190 314 1218 q 369 1122 369 1163 q 342 1053 369 1081 q 272 1025 314 1025 q 201 1053 229 1025 q 174 1122 174 1081 q 201 1190 174 1163 q 272 1218 229 1218 m 609 1218 q 630 1218 609 1218 q 679 1190 651 1218 q 707 1122 707 1163 q 679 1053 707 1081 q 609 1025 651 1025 q 538 1053 567 1025 q 510 1122 510 1081 q 538 1190 510 1163 q 609 1218 567 1218 m 519 0 l 344 0 l 344 342 l 25 936 l 229 936 q 431 482 397 572 q 574 800 443 533 l 638 936 l 842 936 l 519 347 l 519 0 z "},"Ź":{"ha":835,"x_min":79,"x_max":756,"o":"m 514 1004 l 374 1004 l 500 1239 l 675 1239 l 514 1004 m 756 0 l 79 0 l 79 133 l 526 793 l 86 793 l 86 936 l 738 936 l 738 807 l 289 143 l 756 143 l 756 0 z "},"ź":{"ha":651,"x_min":58,"x_max":594,"o":"m 418 772 l 278 772 l 404 1007 l 579 1007 l 418 772 m 594 0 l 58 0 l 58 124 l 385 571 l 71 571 l 71 704 l 576 704 l 576 588 l 249 135 l 594 135 l 594 0 z "},"Ż":{"ha":835,"x_min":79,"x_max":756,"o":"m 437 1219 q 458 1219 437 1219 q 507 1192 479 1219 q 535 1123 535 1164 q 507 1054 535 1082 q 437 1026 479 1026 q 367 1054 394 1026 q 339 1123 339 1082 q 367 1192 339 1164 q 437 1219 394 1219 m 756 0 l 79 0 l 79 133 l 526 793 l 86 793 l 86 936 l 738 936 l 738 807 l 289 143 l 756 143 l 756 0 z "},"ż":{"ha":651,"x_min":58,"x_max":594,"o":"m 344 986 q 365 986 344 986 q 414 958 386 986 q 442 890 442 931 q 414 821 442 849 q 344 793 386 793 q 274 821 301 793 q 246 890 246 849 q 274 958 246 931 q 344 986 301 986 m 594 0 l 58 0 l 58 124 l 385 571 l 71 571 l 71 704 l 576 704 l 576 588 l 249 135 l 594 135 l 594 0 z "},"Ž":{"ha":835,"x_min":79,"x_max":756,"o":"m 499 1004 l 351 1004 l 150 1239 l 313 1239 l 425 1101 l 538 1239 l 700 1239 l 499 1004 m 756 0 l 79 0 l 79 133 l 526 793 l 86 793 l 86 936 l 738 936 l 738 807 l 289 143 l 756 143 l 756 0 z "},"ž":{"ha":651,"x_min":58,"x_max":626,"o":"m 425 772 l 278 772 l 76 1007 l 239 1007 l 351 869 l 464 1007 l 626 1007 l 425 772 m 594 0 l 58 0 l 58 124 l 385 571 l 71 571 l 71 704 l 576 704 l 576 588 l 249 135 l 594 135 l 594 0 z "},"ƒ":{"ha":657,"x_min":-61,"x_max":642,"o":"m 58 -356 q -61 -337 -18 -356 l -61 -199 q 34 -218 -18 -218 q 113 -181 86 -218 q 153 -65 140 -143 l 229 403 l 103 403 l 103 528 l 250 528 l 272 667 q 533 944 317 944 q 642 931 601 944 l 642 792 q 563 806 603 806 q 438 654 461 806 l 417 528 l 551 528 l 551 403 l 397 403 l 319 -78 q 234 -282 299 -208 q 58 -356 169 -356 z "},"Ș":{"ha":719,"x_min":68,"x_max":663,"o":"m 300 -354 l 174 -354 l 279 -71 l 458 -71 l 300 -354 m 663 260 q 663 199 663 260 q 573 63 663 138 q 331 -11 483 -11 q 75 49 179 -11 l 75 228 q 336 142 194 142 q 439 173 400 142 q 478 257 478 204 q 468 301 478 282 q 428 340 458 321 q 296 408 369 379 q 213 451 244 432 q 143 501 181 469 q 68 682 68 565 q 156 871 68 799 q 383 943 244 943 q 618 897 522 943 l 618 728 q 396 790 514 790 q 294 761 331 790 q 257 686 257 732 q 297 610 257 640 q 403 550 336 581 q 506 501 471 519 q 581 449 540 482 q 663 260 663 382 z "},"ș":{"ha":593,"x_min":75,"x_max":550,"o":"m 239 -354 l 114 -354 l 219 -71 l 399 -71 l 239 -354 m 550 203 q 479 49 550 104 q 284 -7 408 -7 q 79 36 160 -7 l 79 189 q 281 126 172 126 q 352 144 326 126 q 378 185 378 161 q 369 224 378 210 q 338 253 361 239 q 276 284 307 271 q 242 299 244 297 q 236 301 240 300 q 229 304 232 303 q 75 504 75 374 q 149 657 75 601 q 331 713 222 713 q 511 682 440 713 l 511 535 q 338 576 442 576 q 270 558 294 576 q 246 510 246 539 q 258 474 246 486 q 279 454 271 461 q 303 439 288 447 q 360 413 340 421 q 503 323 456 372 q 550 203 550 274 z "},"Ț":{"ha":722,"x_min":36,"x_max":688,"o":"m 688 792 l 450 792 l 450 0 l 274 0 l 274 792 l 36 792 l 36 936 l 688 936 l 688 792 m 290 -354 l 164 -354 l 271 -71 l 449 -71 l 290 -354 z "},"ț":{"ha":526,"x_min":21,"x_max":479,"o":"m 278 -354 l 153 -354 l 258 -71 l 436 -71 l 278 -354 m 354 -7 q 126 224 126 -7 l 126 579 l 21 579 l 21 704 l 126 704 l 126 874 l 293 874 l 293 704 l 468 704 l 468 579 l 293 579 l 293 221 q 317 153 293 176 q 388 131 340 131 q 479 160 435 131 l 479 17 q 354 -7 431 -7 z "},"ˆ":{"ha":653,"x_min":51,"x_max":601,"o":"m 214 874 l 51 874 l 253 1108 l 400 1108 l 601 874 l 439 874 l 326 1011 l 214 874 z "},"ˇ":{"ha":653,"x_min":51,"x_max":601,"o":"m 400 874 l 253 874 l 51 1108 l 214 1108 l 326 971 l 439 1108 l 601 1108 l 400 874 z "},"ˉ":{"ha":653,"x_min":99,"x_max":554,"o":"m 554 926 l 99 926 l 99 1042 l 554 1042 l 554 926 z "},"˘":{"ha":653,"x_min":69,"x_max":583,"o":"m 583 1108 q 515 928 583 989 q 326 868 446 868 q 138 929 207 868 q 69 1108 69 990 l 200 1108 q 233 1013 200 1049 q 326 978 265 978 q 420 1013 388 978 q 453 1108 453 1049 l 583 1108 z "},"˙":{"ha":653,"x_min":228,"x_max":424,"o":"m 326 1090 q 347 1090 326 1090 q 396 1063 368 1090 q 424 994 424 1035 q 396 925 424 953 q 326 897 368 897 q 256 925 283 897 q 228 994 228 953 q 256 1063 228 1035 q 326 1090 283 1090 z "},"˚":{"ha":653,"x_min":153,"x_max":500,"o":"m 274 1048 q 263 1036 274 1048 q 253 994 253 1025 q 274 941 253 964 q 326 918 294 918 q 379 941 358 918 q 400 994 400 964 q 379 1048 400 1025 q 326 1071 358 1071 q 274 1048 294 1071 m 449 1115 q 475 1089 449 1115 q 500 992 500 1064 q 449 869 500 919 q 326 818 399 818 q 203 869 254 818 q 153 992 153 919 q 203 1115 153 1064 q 326 1165 254 1165 q 449 1115 399 1165 z "},"˛":{"ha":653,"x_min":167,"x_max":486,"o":"m 486 -301 q 344 -333 429 -333 q 213 -289 258 -333 q 167 -177 167 -244 q 210 -51 167 -110 q 303 40 254 7 q 406 93 353 72 l 464 18 q 303 -160 303 -75 q 375 -221 303 -221 q 486 -183 431 -221 l 486 -301 z "},"˜":{"ha":653,"x_min":71,"x_max":590,"o":"m 421 882 q 325 908 378 882 q 244 935 272 935 q 196 922 217 935 q 150 874 175 908 l 71 947 q 134 1024 93 993 q 224 1056 175 1056 q 329 1029 272 1056 q 413 1003 386 1003 q 501 1063 472 1003 l 590 992 q 421 882 536 882 z "},"˝":{"ha":653,"x_min":50,"x_max":603,"o":"m 175 874 l 50 874 l 175 1108 l 338 1108 l 175 874 m 419 874 l 293 874 l 428 1108 l 603 1108 l 419 874 z "},"π":{"ha":829,"x_min":31,"x_max":811,"o":"m 811 579 l 692 579 l 692 0 l 525 0 l 525 579 l 317 579 l 317 274 q 253 60 317 121 q 56 0 190 0 l 56 139 q 129 163 108 139 q 150 258 150 188 l 150 579 l 31 579 l 31 704 l 811 704 l 811 579 z "},"।":{"ha":592,"x_min":269,"x_max":433,"o":"m 433 0 l 269 0 l 269 917 l 433 917 l 433 0 z "},"॥":{"ha":921,"x_min":269,"x_max":763,"o":"m 433 0 l 269 0 l 269 917 l 433 917 l 433 0 m 763 0 l 599 0 l 599 917 l 763 917 l 763 0 z "},"ഁ":{"ha":0,"x_min":-535,"x_max":140,"o":"m -193 1381 q -169 1381 -193 1381 q -117 1353 -144 1381 q -89 1276 -89 1325 q -116 1199 -89 1226 q -192 1171 -143 1171 q -270 1199 -242 1171 q -299 1276 -299 1228 q -270 1352 -299 1324 q -193 1381 -242 1381 m 140 1215 q 54 994 140 1075 q -195 913 -32 913 q -447 994 -358 913 q -535 1215 -535 1075 l -378 1215 q -332 1099 -378 1143 q -194 1056 -286 1056 q -17 1215 -17 1056 l 140 1215 z "},"ം":{"ha":657,"x_min":54,"x_max":619,"o":"m 134 69 q 94 111 134 69 q 54 281 54 153 q 134 492 54 408 q 338 575 214 575 q 540 492 461 575 q 619 281 619 408 q 540 69 619 153 q 338 -14 461 -14 q 134 69 214 -14 m 336 425 q 308 425 336 425 q 244 384 279 425 q 208 278 208 343 q 244 174 208 214 q 338 135 281 135 q 430 174 394 135 q 465 279 465 213 q 429 385 465 346 q 336 425 393 425 z "},"ഃ":{"ha":483,"x_min":57,"x_max":426,"o":"m 242 -14 q 203 -14 242 -14 q 110 41 164 -14 q 57 180 57 96 q 110 318 57 264 q 242 372 164 372 q 374 318 321 372 q 426 179 426 264 q 374 40 426 94 q 242 -14 321 -14 m 241 265 q 224 265 241 265 q 187 242 207 265 q 167 178 167 218 q 188 115 167 139 q 242 90 208 90 q 297 114 276 90 q 317 178 317 138 q 296 242 317 219 q 241 265 275 265 m 242 449 q 203 449 242 449 q 110 503 164 449 q 57 642 57 558 q 110 781 57 726 q 242 835 164 835 q 374 781 321 835 q 426 642 426 726 q 374 503 426 557 q 242 449 321 449 m 241 728 q 224 728 241 728 q 187 704 207 728 q 167 641 167 681 q 188 577 167 601 q 242 553 208 553 q 297 576 276 553 q 317 641 317 600 q 296 705 317 682 q 241 728 275 728 z "},"അ":{"ha":2231,"x_min":67,"x_max":2168,"o":"m 1780 350 q 1761 331 1780 350 q 1743 257 1743 311 q 1779 165 1743 203 q 1869 126 1815 126 q 1961 165 1924 126 q 1999 257 1999 203 q 1962 350 1999 311 q 1871 389 1925 389 q 1780 350 1817 389 m 806 678 q 686 562 731 638 q 642 380 642 486 q 698 200 642 274 q 843 126 754 126 q 926 156 896 126 q 957 230 957 185 q 923 302 957 275 q 825 329 889 329 l 782 329 l 782 471 l 829 471 q 931 565 931 471 q 806 678 931 642 m 468 143 l 468 -14 q 176 100 285 -14 q 67 401 67 214 q 203 712 67 589 q 544 835 339 835 q 772 797 672 835 q 965 835 851 835 q 1185 780 1078 835 q 1344 624 1293 725 q 1500 777 1399 721 q 1717 833 1601 833 q 2038 699 1908 833 q 2168 361 2168 565 q 2084 92 2168 197 q 1873 -14 2000 -14 q 1665 63 1746 -14 q 1583 258 1583 140 q 1658 452 1583 375 q 1843 529 1732 529 q 1942 506 1896 529 q 2013 444 1989 482 q 1911 626 1997 556 q 1711 697 1825 697 q 1512 608 1597 697 q 1426 382 1426 519 l 1426 0 l 1264 0 l 1264 386 q 1183 611 1264 522 q 993 714 1103 700 q 1100 560 1100 643 q 1063 453 1100 496 q 957 403 1025 411 q 1080 348 1032 393 q 1128 232 1128 303 q 1051 53 1128 119 q 846 -14 974 -14 q 578 99 678 -14 q 478 394 478 213 q 618 701 478 575 q 544 703 594 703 q 323 621 408 703 q 238 390 238 539 q 300 210 238 278 q 468 143 363 143 z "},"ആ":{"ha":2307,"x_min":67,"x_max":2269,"o":"m 806 678 q 686 562 731 638 q 642 380 642 486 q 698 200 642 274 q 843 126 754 126 q 926 156 896 126 q 957 230 957 185 q 923 302 957 275 q 825 329 889 329 l 782 329 l 782 471 l 829 471 q 931 565 931 471 q 806 678 931 642 m 772 797 q 965 835 851 835 q 1185 780 1078 835 q 1344 624 1293 725 q 1493 775 1394 715 q 1722 835 1592 835 q 1955 770 1853 835 q 2108 605 2057 706 q 2164 383 2158 504 q 2269 96 2269 260 q 2144 -224 2269 -104 q 1815 -344 2019 -344 q 1654 -326 1736 -344 l 1654 -176 q 1814 -200 1746 -200 q 2035 -119 1953 -200 q 2117 133 2117 -37 l 2117 144 q 2013 28 2078 71 q 1865 -14 1949 -14 q 1663 63 1744 -14 q 1582 258 1582 140 q 1665 450 1582 375 q 1871 525 1747 525 q 1996 503 1932 525 q 1889 647 1961 596 q 1705 697 1817 697 q 1510 613 1593 697 q 1426 386 1426 529 l 1426 0 l 1264 0 l 1264 386 q 1183 611 1264 522 q 993 714 1103 700 q 1100 560 1100 643 q 1063 453 1100 496 q 957 403 1025 411 q 1080 348 1032 393 q 1128 232 1128 303 q 1051 53 1128 119 q 846 -14 974 -14 q 578 99 678 -14 q 478 394 478 213 q 618 701 478 575 q 544 703 594 703 q 323 621 408 703 q 238 390 238 539 q 300 210 238 278 q 468 143 363 143 l 468 -14 q 176 100 285 -14 q 67 401 67 214 q 203 712 67 589 q 544 835 339 835 q 772 797 672 835 m 1746 258 q 1746 230 1746 258 q 1781 164 1746 201 q 1878 126 1815 126 q 1981 182 1940 126 q 2022 332 2022 238 q 1884 388 1953 388 q 1781 351 1815 388 q 1746 258 1746 314 z "},"ഇ":{"ha":1314,"x_min":63,"x_max":1242,"o":"m 936 835 q 1155 745 1068 835 q 1242 490 1242 656 q 1126 164 1242 300 q 973 56 1069 96 q 753 17 876 17 l 324 17 q 256 -3 281 17 q 231 -56 231 -22 q 257 -110 231 -89 q 328 -131 283 -131 l 1222 -131 l 1222 -271 l 294 -271 q 124 -209 185 -271 q 63 -55 63 -147 q 126 98 63 38 q 308 158 190 158 l 711 158 q 982 248 892 158 q 1072 483 1072 338 q 1031 642 1072 586 q 921 699 990 699 q 804 640 851 699 q 757 493 757 581 l 757 325 l 594 325 l 594 465 q 533 634 594 571 q 393 697 471 697 q 274 659 315 697 q 232 563 232 621 q 266 472 232 506 q 345 435 300 438 q 438 440 390 432 l 438 289 q 354 282 399 282 q 144 353 225 282 q 63 549 63 424 q 146 755 63 675 q 369 835 229 835 q 553 788 469 835 q 675 664 636 740 q 772 788 703 742 q 936 835 840 835 z "},"ഈ":{"ha":2458,"x_min":63,"x_max":2386,"o":"m 2386 465 q 2269 128 2386 258 q 1964 -1 2153 -1 q 1821 22 1885 -1 l 1821 174 q 1957 154 1899 154 q 2145 232 2075 154 q 2215 442 2215 310 q 2067 693 2215 693 q 1977 653 2011 693 q 1943 546 1943 614 l 1943 435 l 1775 435 l 1775 536 q 1740 652 1775 611 q 1647 693 1704 693 q 1553 648 1589 693 q 1518 535 1518 603 q 1551 385 1518 467 l 1383 385 q 1353 528 1353 446 q 1429 746 1353 657 q 1635 835 1506 835 q 1773 797 1714 835 q 1863 703 1832 760 q 1945 797 1888 758 q 2078 835 2003 835 q 2306 731 2226 835 q 2386 465 2386 628 m 1222 -271 l 294 -271 q 124 -209 185 -271 q 63 -55 63 -147 q 126 98 63 38 q 308 158 190 158 l 711 158 q 982 248 892 158 q 1072 483 1072 338 q 1031 642 1072 586 q 921 699 990 699 q 804 640 851 699 q 757 493 757 581 l 757 325 l 594 325 l 594 465 q 533 634 594 571 q 393 697 471 697 q 274 659 315 697 q 232 563 232 621 q 266 472 232 506 q 345 435 300 438 q 438 440 390 432 l 438 289 q 354 282 399 282 q 144 353 225 282 q 63 549 63 424 q 146 755 63 675 q 369 835 229 835 q 553 788 469 835 q 675 664 636 740 q 772 788 703 742 q 936 835 840 835 q 1155 745 1068 835 q 1242 490 1242 656 q 1126 164 1242 300 q 973 56 1069 96 q 753 17 876 17 l 324 17 q 256 -3 281 17 q 231 -56 231 -22 q 257 -110 231 -89 q 328 -131 283 -131 l 1222 -131 l 1222 -271 z "},"ഉ":{"ha":1019,"x_min":63,"x_max":947,"o":"m 234 493 q 221 478 234 493 q 208 426 208 464 q 234 360 208 389 q 299 332 260 332 q 366 361 339 332 q 393 428 393 390 q 367 494 393 465 q 300 522 340 522 q 234 493 260 522 m 947 -275 l 308 -275 q 138 -212 199 -275 q 76 -57 76 -150 q 142 92 76 36 q 321 149 208 149 l 517 149 q 716 226 653 149 q 779 426 779 304 q 701 620 779 547 q 497 693 622 693 q 283 614 371 693 q 460 587 382 647 q 539 426 539 526 q 472 264 539 325 q 302 203 406 203 q 131 272 199 203 q 63 460 63 342 q 192 724 63 613 q 512 835 321 835 q 825 716 703 835 q 947 416 947 597 q 838 118 947 235 q 524 1 729 1 l 329 3 q 267 -15 290 3 q 244 -65 244 -32 q 271 -115 244 -97 q 342 -133 297 -133 l 947 -133 l 947 -275 z "},"ഊ":{"ha":2143,"x_min":63,"x_max":2072,"o":"m 2072 465 q 1956 128 2072 258 q 1649 -1 1839 -1 q 1507 22 1571 -1 l 1507 174 q 1643 154 1582 154 q 1831 232 1760 154 q 1901 440 1901 310 q 1862 632 1901 571 q 1759 693 1822 693 q 1663 653 1696 693 q 1629 546 1629 614 l 1629 435 l 1461 435 l 1461 536 q 1425 652 1461 611 q 1331 693 1389 693 q 1239 648 1274 693 q 1204 535 1204 603 q 1238 385 1204 467 l 1069 385 q 1039 528 1039 446 q 1115 746 1039 657 q 1319 835 1190 835 q 1458 797 1399 835 q 1549 703 1518 760 q 1631 797 1574 758 q 1764 835 1689 835 q 1992 731 1913 835 q 2072 465 2072 628 m 234 493 q 221 478 234 493 q 208 426 208 464 q 234 360 208 389 q 299 332 260 332 q 366 361 339 332 q 393 428 393 390 q 367 494 393 465 q 300 522 340 522 q 234 493 260 522 m 947 -275 l 308 -275 q 138 -212 199 -275 q 76 -57 76 -150 q 142 92 76 36 q 321 149 208 149 l 517 149 q 716 226 653 149 q 779 426 779 304 q 701 620 779 547 q 497 693 622 693 q 283 614 371 693 q 460 587 382 647 q 539 426 539 526 q 472 264 539 325 q 302 203 406 203 q 131 272 199 203 q 63 460 63 342 q 192 724 63 613 q 512 835 321 835 q 825 716 703 835 q 947 416 947 597 q 838 118 947 235 q 524 1 729 1 l 329 3 q 267 -15 290 3 q 244 -65 244 -32 q 271 -115 244 -97 q 342 -133 297 -133 l 947 -133 l 947 -275 z "},"ഋ":{"ha":1282,"x_min":68,"x_max":1215,"o":"m 952 704 q 928 704 952 704 q 874 672 904 704 q 843 594 843 640 q 874 516 843 549 q 951 483 904 483 q 1029 516 999 483 q 1060 594 1060 549 q 1030 672 1060 640 q 952 704 1000 704 m 331 704 q 307 704 331 704 q 253 672 283 704 q 224 594 224 640 q 253 516 224 549 q 330 483 283 483 q 408 516 376 483 q 439 594 439 549 q 408 672 439 640 q 331 704 378 704 m 265 -6 q 363 -111 265 -75 q 635 -147 461 -147 q 913 -110 810 -147 q 1017 -3 1017 -72 q 641 131 1017 131 q 265 -6 265 131 m 1186 -8 q 1041 -215 1186 -142 q 642 -289 896 -289 q 242 -215 389 -289 q 96 -11 96 -140 q 154 131 96 76 q 306 204 213 186 q 138 343 207 250 q 68 557 68 436 q 144 756 68 678 q 337 835 221 835 q 523 762 453 835 q 593 591 593 689 q 530 432 593 493 q 395 371 467 371 q 282 399 324 371 q 644 268 382 268 q 1004 399 906 268 q 907 371 961 371 q 757 432 825 371 q 689 591 689 493 q 759 762 689 689 q 946 835 829 835 q 1139 755 1063 835 q 1215 555 1215 675 q 1145 342 1215 435 q 978 204 1075 249 q 1128 131 1069 186 q 1186 -8 1186 76 z "},"ഌ":{"ha":1718,"x_min":68,"x_max":1651,"o":"m 1265 351 q 1373 129 1265 129 q 1481 361 1481 129 q 1372 649 1481 543 q 1265 351 1265 536 m 238 361 q 346 129 238 129 q 454 351 454 129 q 346 649 454 535 q 238 361 238 540 m 625 351 q 549 84 625 182 q 346 -14 472 -14 q 144 86 219 -14 q 68 361 68 186 q 194 703 68 571 q 514 835 321 835 q 726 778 636 835 q 860 647 817 722 q 992 778 900 722 q 1206 835 1083 835 q 1525 703 1399 835 q 1651 361 1651 571 q 1575 85 1651 185 q 1373 -14 1499 -14 q 1171 84 1247 -14 q 1094 351 1094 182 q 1138 543 1094 449 q 1242 686 1181 638 q 1207 692 1226 692 q 1020 611 1097 689 q 943 396 943 533 l 943 0 l 776 0 l 776 396 q 701 611 776 533 q 515 692 625 689 q 476 686 493 692 q 581 543 538 638 q 625 351 625 449 z "},"എ":{"ha":1956,"x_min":61,"x_max":1867,"o":"m 1244 -147 q 1311 -76 1311 -147 l 1311 0 l 1090 0 q 1157 -110 1114 -74 q 1244 -147 1200 -147 m 1463 -33 q 1406 -222 1463 -154 q 1244 -290 1350 -290 q 1048 -214 1138 -290 q 918 0 958 -137 l 524 0 l 524 136 q 608 333 608 221 q 556 479 608 424 q 420 535 504 535 q 284 476 336 535 q 232 333 232 418 q 274 196 232 247 q 376 143 317 144 l 376 -14 q 149 85 236 -12 q 61 331 61 183 q 164 577 61 478 q 420 676 267 676 q 676 578 574 676 q 779 329 779 479 q 706 136 779 225 q 819 142 746 142 l 903 140 q 899 239 899 193 q 1030 667 899 499 q 1387 835 1161 835 q 1740 669 1613 835 q 1867 250 1867 503 q 1740 -262 1867 -3 l 1558 -262 q 1696 243 1696 -7 q 1614 574 1696 456 q 1389 693 1532 693 q 1158 567 1246 693 q 1069 249 1069 442 q 1074 140 1069 199 l 1311 140 l 1311 543 l 1463 543 l 1463 -33 z "},"ഏ":{"ha":2035,"x_min":61,"x_max":1960,"o":"m 1244 -147 q 1311 -76 1311 -147 l 1311 0 l 1090 0 q 1157 -110 1114 -74 q 1244 -147 1200 -147 m 1463 -33 q 1406 -222 1463 -154 q 1244 -290 1350 -290 q 1048 -214 1138 -290 q 918 0 958 -137 l 524 0 l 524 136 q 608 333 608 221 q 556 479 608 424 q 420 535 504 535 q 284 476 336 535 q 232 333 232 418 q 274 196 232 247 q 376 143 317 144 l 376 -14 q 149 85 236 -12 q 61 331 61 183 q 164 577 61 478 q 420 676 267 676 q 676 578 574 676 q 779 329 779 479 q 703 136 779 221 q 819 142 743 142 l 901 142 q 899 231 899 168 q 971 534 899 396 q 1173 753 1043 672 q 1463 835 1303 835 q 1801 732 1672 835 q 1929 476 1929 629 q 1892 335 1929 399 q 1789 250 1854 271 q 1910 175 1861 232 q 1960 32 1960 118 q 1881 -185 1960 -104 q 1657 -267 1801 -267 q 1540 -250 1597 -267 l 1540 -103 q 1651 -114 1590 -114 q 1750 -74 1711 -114 q 1789 33 1789 -35 q 1744 140 1789 100 q 1622 179 1699 179 l 1567 179 l 1567 321 l 1622 321 q 1726 364 1689 321 q 1764 476 1764 407 q 1678 637 1764 581 q 1463 693 1593 693 q 1181 567 1293 693 q 1068 244 1068 442 q 1072 140 1068 165 l 1311 140 l 1311 533 l 1463 533 l 1463 -33 z "},"ഐ":{"ha":3015,"x_min":69,"x_max":2926,"o":"m 2304 -147 q 2371 -76 2371 -147 l 2371 0 l 2150 0 q 2217 -110 2174 -74 q 2304 -147 2260 -147 m 2522 -33 q 2466 -222 2522 -154 q 2303 -290 2410 -290 q 2108 -214 2197 -290 q 1978 0 2018 -137 l 1583 0 l 1583 136 q 1668 333 1668 221 q 1616 479 1668 424 q 1480 535 1564 535 q 1344 476 1396 535 q 1292 333 1292 418 q 1334 196 1292 247 q 1436 143 1376 144 l 1436 -14 q 1208 85 1296 -12 q 1121 331 1121 183 q 1224 577 1121 478 q 1480 676 1326 676 q 1736 578 1633 676 q 1839 329 1839 479 q 1765 136 1839 225 q 1879 142 1806 142 l 1963 140 q 1958 239 1958 192 q 2090 667 1958 499 q 2447 835 2221 835 q 2799 669 2672 835 q 2926 250 2926 503 q 2800 -262 2926 -3 l 2618 -262 q 2756 243 2756 -7 q 2674 574 2756 456 q 2449 693 2592 693 q 2217 567 2306 693 q 2129 249 2129 442 q 2133 140 2129 199 l 2371 140 l 2371 543 l 2522 543 l 2522 -33 m 599 453 q 634 416 599 453 q 669 264 669 379 q 590 67 669 149 q 379 -14 511 -14 q 158 93 247 -14 q 69 363 69 200 q 201 693 69 551 q 531 835 333 835 q 862 703 729 835 q 994 378 994 572 q 886 0 994 185 l 696 0 q 824 390 824 197 q 740 613 824 532 q 544 693 657 693 q 347 627 431 693 q 239 446 264 561 q 310 504 261 481 q 408 528 360 528 q 599 453 528 528 m 383 385 q 356 385 383 385 q 294 347 329 385 q 258 256 258 310 q 295 165 258 203 q 385 128 332 128 q 472 165 438 128 q 507 256 507 203 q 472 347 507 310 q 383 385 438 385 z "},"ഒ":{"ha":1169,"x_min":69,"x_max":1094,"o":"m 284 347 q 266 328 284 347 q 247 257 247 308 q 283 167 247 206 q 373 129 319 129 q 463 167 426 129 q 499 257 499 206 q 463 347 499 308 q 374 386 426 386 q 284 347 321 386 m 629 835 q 930 760 810 835 q 1050 568 1050 686 q 1021 464 1050 508 q 935 403 992 419 q 1051 343 1007 393 q 1094 225 1094 293 q 1022 54 1094 122 q 832 -14 949 -14 q 731 -3 771 -14 l 731 143 q 822 133 775 133 q 899 161 868 133 q 931 235 931 189 q 897 306 931 282 q 807 331 864 331 l 761 331 l 761 472 l 796 472 q 883 568 883 472 q 818 662 883 629 q 632 694 753 694 q 244 471 318 694 q 410 528 308 528 q 587 450 513 528 q 661 256 661 372 q 577 63 661 139 q 365 -14 493 -14 q 153 82 236 -14 q 69 325 69 178 q 220 697 69 558 q 629 835 371 835 z "},"ഓ":{"ha":1817,"x_min":69,"x_max":1757,"o":"m 1649 717 q 1703 658 1649 717 q 1757 414 1757 599 q 1649 110 1757 229 q 1372 -8 1542 -8 q 1183 28 1279 -8 l 1183 172 q 1363 133 1293 133 q 1523 210 1460 133 q 1586 414 1586 286 q 1523 617 1586 542 q 1363 693 1460 693 q 1183 656 1296 693 l 1183 799 q 1372 835 1279 835 q 1649 717 1542 835 m 284 347 q 266 328 284 347 q 247 257 247 308 q 283 167 247 206 q 373 129 319 129 q 463 167 426 129 q 499 257 499 206 q 463 347 499 308 q 374 386 426 386 q 284 347 321 386 m 629 835 q 930 760 810 835 q 1050 568 1050 686 q 1021 464 1050 508 q 935 403 992 419 q 1051 343 1007 393 q 1094 225 1094 293 q 1022 54 1094 122 q 832 -14 949 -14 q 731 -3 771 -14 l 731 143 q 822 133 775 133 q 899 161 868 133 q 931 235 931 189 q 897 306 931 282 q 807 331 864 331 l 761 331 l 761 472 l 796 472 q 883 568 883 472 q 818 662 883 629 q 632 694 753 694 q 244 471 318 694 q 410 528 308 528 q 587 450 513 528 q 661 256 661 372 q 577 63 661 139 q 365 -14 493 -14 q 153 82 236 -14 q 69 325 69 178 q 220 697 69 558 q 629 835 371 835 z "},"ഔ":{"ha":2269,"x_min":69,"x_max":2203,"o":"m 284 347 q 266 328 284 347 q 247 257 247 308 q 283 167 247 206 q 373 129 319 129 q 463 167 426 129 q 499 257 499 206 q 463 347 499 308 q 374 386 426 386 q 284 347 321 386 m 629 835 q 930 760 810 835 q 1050 568 1050 686 q 1021 464 1050 508 q 935 403 992 419 q 1051 343 1007 393 q 1094 225 1094 293 q 1022 54 1094 122 q 832 -14 949 -14 q 731 -3 771 -14 l 731 143 q 822 133 775 133 q 899 161 868 133 q 931 235 931 189 q 897 306 931 282 q 807 331 864 331 l 761 331 l 761 472 l 796 472 q 883 568 883 472 q 818 662 883 629 q 632 694 753 694 q 244 471 318 694 q 410 528 308 528 q 587 450 513 528 q 661 256 661 372 q 577 63 661 139 q 365 -14 493 -14 q 153 82 236 -14 q 69 325 69 178 q 220 697 69 558 q 629 835 371 835 m 2203 465 q 2086 128 2203 258 q 1781 -1 1969 -1 q 1638 22 1701 -1 l 1638 174 q 1774 154 1715 154 q 1962 232 1892 154 q 2032 442 2032 310 q 1883 693 2032 693 q 1794 653 1828 693 q 1760 546 1760 614 l 1760 435 l 1592 435 l 1592 536 q 1556 652 1592 611 q 1463 693 1521 693 q 1370 648 1406 693 q 1335 535 1335 603 q 1368 385 1335 467 l 1200 385 q 1169 528 1169 446 q 1246 746 1169 657 q 1451 835 1322 835 q 1590 797 1531 835 q 1679 703 1649 760 q 1762 797 1704 758 q 1894 835 1819 835 q 2123 731 2043 835 q 2203 465 2203 628 z "},"ക":{"ha":1551,"x_min":69,"x_max":1482,"o":"m 606 381 q 658 186 611 253 q 788 119 704 119 q 919 186 872 119 q 971 379 965 253 l 606 381 m 963 513 q 788 701 933 701 q 614 513 643 701 l 963 513 m 1132 379 q 1032 94 1124 201 q 788 -14 940 -14 q 542 96 636 -14 q 343 -14 478 -14 q 149 60 228 -14 q 69 254 69 133 q 157 444 69 375 q 390 513 244 513 l 453 513 q 567 750 476 665 q 788 835 657 835 q 1010 749 919 835 q 1124 513 1100 664 l 1131 513 q 1385 446 1289 513 q 1482 256 1482 379 q 1408 60 1482 132 q 1224 -12 1335 -12 q 1181 -11 1196 -12 l 1181 136 q 1321 253 1321 136 q 1132 379 1321 379 m 231 253 q 265 157 231 193 q 349 121 299 121 q 435 156 400 121 q 467 242 469 192 q 444 381 449 301 l 400 381 q 231 253 231 381 z "},"ഖ":{"ha":1465,"x_min":69,"x_max":1360,"o":"m 376 385 q 349 385 376 385 q 287 347 322 385 q 251 256 251 310 q 288 165 251 203 q 378 128 325 128 q 467 165 432 128 q 501 256 501 203 q 466 347 501 310 q 376 385 431 385 m 846 389 q 763 607 846 522 q 559 692 681 692 q 353 626 438 692 q 238 446 268 560 q 309 506 264 483 q 404 528 354 528 q 590 453 517 528 q 664 263 664 378 q 585 67 664 149 q 374 -14 506 -14 q 156 85 242 -14 q 69 366 69 185 q 208 691 69 547 q 552 835 346 835 q 886 710 758 835 q 1014 392 1014 586 q 926 143 1014 243 l 1193 143 l 1193 825 l 1360 825 l 1360 0 l 718 0 l 718 139 q 808 239 771 175 q 846 389 846 303 z "},"ഗ":{"ha":1269,"x_min":67,"x_max":1203,"o":"m 721 322 q 634 71 721 156 q 398 -14 547 -14 q 158 98 249 -14 q 67 411 67 210 q 110 628 67 529 q 174 728 135 686 q 279 797 213 769 q 431 825 346 825 l 431 669 q 286 608 335 669 q 238 410 238 547 q 284 201 238 274 q 408 128 331 128 q 553 315 553 128 l 553 488 q 640 741 553 647 q 878 835 728 835 q 1115 723 1028 835 q 1203 407 1203 611 q 1100 92 1203 201 q 994 23 1061 50 q 839 -4 926 -4 l 839 153 q 983 212 935 153 q 1032 407 1032 271 q 989 618 1032 543 q 872 693 946 693 q 760 642 799 693 q 721 494 721 592 l 721 322 z "},"ഘ":{"ha":1808,"x_min":56,"x_max":1703,"o":"m 889 500 l 889 436 l 1218 436 l 1218 500 q 1176 642 1218 590 q 1055 693 1135 693 q 932 642 975 693 q 889 500 889 590 m 297 290 q 124 365 193 293 q 56 550 56 436 q 138 742 56 664 q 340 821 219 821 q 541 747 460 821 q 622 563 622 672 q 574 432 622 481 q 678 436 607 436 l 722 436 l 722 500 q 810 745 722 656 q 1053 835 899 835 q 1294 745 1208 835 q 1381 500 1381 656 l 1381 300 l 889 300 l 889 140 l 1536 140 l 1536 825 l 1703 825 l 1703 0 l 722 0 l 722 300 l 415 300 l 415 422 q 478 557 478 467 q 440 655 478 615 q 341 694 403 694 q 242 654 279 694 q 204 556 204 614 q 230 464 204 497 q 297 426 256 431 l 297 290 z "},"ങ":{"ha":1644,"x_min":72,"x_max":1571,"o":"m 369 378 q 343 378 369 378 q 283 342 317 378 q 249 252 249 306 q 283 163 249 199 q 370 128 318 128 q 456 163 422 128 q 490 252 490 199 q 456 342 490 306 q 369 378 421 378 m 400 519 q 452 519 400 519 q 578 444 504 519 q 651 252 651 368 q 574 61 651 136 q 367 -14 496 -14 q 155 83 238 -14 q 72 343 72 181 q 186 678 72 532 q 328 792 240 749 q 531 835 417 835 q 740 772 644 835 q 883 618 835 710 q 1013 774 924 713 q 1221 835 1101 835 q 1431 774 1340 835 q 1522 606 1522 713 q 1484 482 1522 533 q 1381 419 1446 431 q 1518 360 1465 408 q 1571 235 1571 313 q 1235 -14 1571 -14 q 1108 -1 1167 -14 l 1108 144 q 1243 132 1174 132 q 1356 159 1313 132 q 1400 239 1400 186 q 1211 342 1400 342 l 1164 342 l 1164 485 l 1197 485 q 1311 514 1271 485 q 1351 593 1351 543 q 1315 668 1351 643 q 1217 693 1279 693 q 1040 614 1114 693 q 967 382 967 535 l 967 0 l 800 0 l 800 382 q 721 615 800 536 q 530 693 642 693 q 343 626 418 693 q 243 443 268 560 q 400 519 296 519 z "},"ച":{"ha":1253,"x_min":4,"x_max":1147,"o":"m 160 404 q 243 608 160 524 q 460 693 326 693 q 681 608 594 693 q 768 399 768 522 q 728 245 768 314 q 628 142 688 176 l 981 142 l 981 825 l 1147 825 l 1147 0 l 4 0 l 4 142 l 282 142 q 521 214 444 142 q 597 390 597 286 q 560 507 597 463 q 459 551 524 551 q 360 509 394 551 q 326 403 326 467 q 356 282 326 340 l 183 282 q 160 404 160 340 z "},"ഛ":{"ha":1868,"x_min":4,"x_max":1801,"o":"m 1415 351 q 1523 129 1415 129 q 1631 361 1631 129 q 1522 649 1631 543 q 1415 351 1415 536 m 1801 361 q 1725 86 1801 186 q 1522 -14 1649 -14 q 1320 84 1396 -14 q 1244 351 1244 182 q 1288 543 1244 449 q 1392 686 1331 638 q 1335 692 1375 692 q 1128 607 1213 692 q 1043 390 1043 522 q 1163 136 1043 238 l 1163 0 l 4 0 l 4 142 l 282 142 q 521 214 444 142 q 597 390 597 286 q 560 507 597 463 q 459 551 524 551 q 360 509 394 551 q 326 403 326 467 q 356 282 326 340 l 183 282 q 160 404 160 340 q 243 608 160 524 q 460 693 326 693 q 681 608 594 693 q 768 399 768 522 q 728 245 768 314 q 628 142 688 176 l 960 142 q 875 392 875 254 q 1006 706 875 576 q 1337 835 1136 835 q 1669 701 1538 835 q 1801 361 1801 567 z "},"ജ":{"ha":1143,"x_min":65,"x_max":1067,"o":"m 798 257 q 775 257 798 257 q 722 225 753 257 q 692 149 692 193 q 722 72 692 104 q 798 40 753 40 q 874 72 843 40 q 906 149 906 104 q 874 225 906 193 q 798 257 843 257 m 226 142 q 261 76 226 103 q 353 49 296 49 q 610 225 510 49 l 338 225 q 226 142 226 225 m 338 -96 q 137 -28 208 -96 q 65 140 65 40 q 141 299 65 240 q 354 358 217 358 l 635 358 q 835 415 767 358 q 903 557 903 471 q 868 657 903 621 q 778 693 833 693 q 681 649 722 693 q 639 525 639 604 l 639 429 l 496 429 l 496 511 q 449 654 496 601 q 325 707 403 707 q 248 680 279 707 q 217 612 217 653 q 245 546 217 571 q 319 521 274 521 q 347 522 338 521 l 347 399 q 314 397 339 397 q 138 455 207 397 q 68 610 68 513 q 138 772 68 708 q 306 835 208 835 q 561 697 489 835 q 656 798 597 761 q 789 835 715 835 q 985 757 907 835 q 1064 558 1064 679 q 1032 426 1064 488 q 953 332 1000 365 q 1036 258 1006 307 q 1067 147 1067 208 q 989 -25 1067 44 q 800 -94 911 -94 q 672 -62 731 -94 q 585 19 614 -29 q 485 -60 550 -25 q 338 -96 419 -96 z "},"ഝ":{"ha":2333,"x_min":67,"x_max":2267,"o":"m 642 361 q 749 129 642 129 q 857 351 857 129 q 750 649 857 536 q 642 361 642 543 m 1474 -15 q 1266 73 1339 -15 q 1193 313 1193 161 l 1193 438 q 1137 627 1193 553 q 967 701 1081 701 q 890 692 933 701 q 992 548 956 635 q 1028 361 1028 461 q 950 82 1028 178 q 750 -14 872 -14 q 549 81 628 -14 q 471 351 471 175 q 506 542 471 451 q 606 692 542 632 q 508 703 557 703 q 315 615 392 703 q 238 404 238 526 q 288 213 238 282 q 429 143 339 143 l 429 -14 q 165 99 264 -14 q 67 397 67 213 q 192 708 67 582 q 500 835 317 835 q 735 779 629 835 q 956 835 832 835 q 1235 743 1118 835 q 1327 619 1293 697 q 1361 438 1361 540 l 1361 313 q 1483 129 1361 129 q 1603 313 1603 129 l 1603 825 l 1769 825 l 1769 313 q 1808 174 1769 219 q 1921 129 1847 129 q 2044 201 1994 129 q 2094 410 2094 274 q 2048 608 2094 546 q 1906 669 2001 669 l 1906 825 q 2172 713 2078 825 q 2267 408 2267 601 q 2167 99 2267 214 q 1924 -15 2067 -15 q 1784 19 1847 -15 q 1689 117 1721 54 q 1605 22 1663 58 q 1474 -15 1547 -15 z "},"ഞ":{"ha":2169,"x_min":72,"x_max":2103,"o":"m 1318 361 q 1426 129 1318 129 q 1533 351 1533 129 q 1425 649 1533 540 q 1318 361 1318 539 m 369 378 q 343 378 369 378 q 283 342 317 378 q 249 252 249 306 q 283 163 249 199 q 370 128 318 128 q 456 163 422 128 q 490 252 490 199 q 456 342 490 306 q 369 378 421 378 m 397 519 q 451 519 397 519 q 578 444 504 519 q 651 252 651 368 q 574 61 651 136 q 367 -14 496 -14 q 155 83 238 -14 q 72 343 72 181 q 186 678 72 529 q 331 792 242 749 q 533 835 419 835 q 745 773 647 835 q 889 621 843 711 q 1022 774 928 713 q 1231 835 1117 835 q 1444 785 1344 835 q 1653 835 1539 835 q 1972 709 1842 835 q 2103 397 2103 583 q 2008 99 2103 211 q 1747 -14 1913 -14 l 1747 143 q 1883 208 1833 143 q 1932 401 1932 274 q 1856 612 1932 528 q 1663 696 1781 696 q 1571 686 1611 696 q 1665 543 1626 631 q 1703 363 1703 456 q 1624 83 1703 179 q 1423 -14 1546 -14 q 1223 79 1300 -14 q 1146 353 1146 172 q 1188 546 1146 454 q 1293 689 1229 638 q 1226 697 1251 697 q 1043 618 1113 697 q 974 425 974 539 l 974 0 l 807 0 l 807 415 q 724 617 807 540 q 530 693 640 693 q 342 626 419 693 q 238 443 264 560 q 397 519 290 519 z "},"ട":{"ha":774,"x_min":58,"x_max":717,"o":"m 319 129 q 544 238 544 129 q 494 308 544 286 q 394 338 461 324 q 297 361 328 353 q 117 451 175 396 q 58 610 58 507 q 153 780 58 713 q 383 847 247 847 q 660 799 519 847 l 660 650 q 399 706 501 706 q 229 610 229 706 q 248 560 229 575 q 278 539 267 546 q 314 524 290 532 q 353 511 338 515 q 400 499 369 507 q 472 479 431 490 q 551 453 513 468 q 633 410 590 438 q 717 238 717 356 q 613 53 717 119 q 319 -14 510 -14 q 75 26 200 -14 l 75 175 q 319 129 226 129 z "},"ഠ":{"ha":875,"x_min":53,"x_max":822,"o":"m 435 693 q 384 693 435 693 q 278 613 333 693 q 224 409 224 532 q 281 206 224 286 q 441 126 339 126 q 598 205 543 126 q 653 408 653 283 q 595 613 653 533 q 435 693 538 693 m 439 835 q 528 835 439 835 q 719 717 617 835 q 822 411 822 599 q 719 104 822 224 q 438 -15 615 -15 q 157 104 261 -15 q 53 410 53 224 q 157 716 53 597 q 439 835 261 835 z "},"ഡ":{"ha":1736,"x_min":67,"x_max":1669,"o":"m 851 -14 q 640 80 719 -14 q 561 332 561 174 l 561 497 q 519 644 561 596 q 404 693 478 693 q 284 620 331 693 q 238 408 238 547 q 287 213 238 268 q 426 157 336 157 l 426 0 q 249 38 324 0 q 138 139 175 76 q 67 404 67 258 q 155 722 67 608 q 395 835 243 835 q 638 747 547 835 q 729 490 729 660 l 729 326 q 861 128 729 128 q 961 180 925 128 q 997 329 997 232 l 997 825 l 1164 825 l 1164 329 q 1210 181 1164 233 q 1331 128 1256 128 q 1452 199 1406 128 q 1499 408 1499 271 q 1310 669 1499 669 l 1310 825 q 1460 797 1394 825 q 1565 726 1526 768 q 1628 625 1604 683 q 1669 408 1669 526 q 1578 97 1669 207 q 1328 -14 1486 -14 q 1176 28 1244 -14 q 1079 132 1107 69 q 851 -14 1008 -14 z "},"ഢ":{"ha":1924,"x_min":67,"x_max":1851,"o":"m 1553 693 q 1527 693 1553 693 q 1467 658 1501 693 q 1433 569 1433 622 q 1468 479 1433 515 q 1555 443 1503 443 q 1641 479 1607 443 q 1675 569 1675 515 q 1640 658 1675 622 q 1553 693 1606 693 m 832 -14 q 633 76 706 -14 q 561 325 561 167 l 561 497 q 519 644 561 596 q 404 693 478 693 q 284 620 331 693 q 238 408 238 547 q 287 213 238 268 q 426 157 336 157 l 426 0 q 249 38 324 0 q 138 139 175 76 q 67 404 67 258 q 155 722 67 608 q 395 835 243 835 q 638 747 547 835 q 729 490 729 660 l 729 326 q 844 128 729 128 q 963 368 963 128 l 963 825 l 1131 825 l 1131 390 q 1206 197 1131 265 q 1392 129 1282 129 q 1578 196 1503 129 q 1681 378 1654 263 q 1524 301 1628 301 q 1346 377 1419 301 q 1272 569 1272 453 q 1349 760 1272 685 q 1556 835 1426 835 q 1768 740 1685 835 q 1851 501 1851 644 q 1801 247 1851 358 q 1645 60 1751 135 q 1396 -14 1539 -14 q 1064 167 1160 -14 q 980 33 1039 81 q 832 -14 921 -14 z "},"ണ":{"ha":2010,"x_min":72,"x_max":1943,"o":"m 379 385 q 352 385 379 385 q 290 347 325 385 q 254 256 254 310 q 291 165 254 203 q 381 128 328 128 q 469 165 433 128 q 504 256 504 203 q 469 347 504 310 q 379 385 433 385 m 595 453 q 631 416 595 453 q 667 264 667 379 q 587 67 667 149 q 374 -14 507 -14 q 157 85 242 -14 q 72 353 72 185 q 199 692 72 549 q 528 835 325 835 q 738 792 640 835 q 890 669 835 749 q 982 789 918 743 q 1129 835 1046 835 q 1273 787 1213 835 q 1358 669 1333 739 q 1458 791 1392 747 q 1606 835 1524 835 q 1852 722 1761 835 q 1943 408 1943 610 q 1900 194 1943 292 q 1837 97 1875 139 q 1733 27 1799 54 q 1583 0 1668 0 l 1583 157 q 1772 408 1772 157 q 1726 619 1772 544 q 1604 693 1679 693 q 1485 637 1529 693 q 1442 474 1442 581 l 1442 0 l 1275 0 l 1275 474 q 1235 636 1275 579 q 1128 693 1194 693 q 1024 638 1063 693 q 985 472 985 583 l 985 0 l 818 0 l 818 424 q 733 622 818 551 q 537 692 649 692 q 345 626 425 692 q 240 446 265 560 q 310 504 263 481 q 406 528 357 528 q 595 453 524 528 z "},"ത":{"ha":1461,"x_min":67,"x_max":1394,"o":"m 626 361 q 734 129 626 129 q 842 351 842 129 q 733 649 842 538 q 626 361 626 539 m 418 142 l 418 -14 q 160 97 253 -14 q 67 396 67 208 q 194 709 67 583 q 513 835 322 835 q 749 785 653 835 q 953 835 849 835 q 1269 709 1143 835 q 1394 396 1394 583 q 1301 97 1394 208 q 1042 -14 1208 -14 l 1042 142 q 1174 205 1126 142 q 1222 399 1222 268 q 1146 613 1222 529 q 953 696 1069 696 q 876 686 921 696 q 974 548 936 635 q 1011 363 1011 461 q 933 83 1011 181 q 731 -14 854 -14 q 530 80 608 -14 q 451 353 451 174 q 492 545 451 456 q 592 686 532 635 q 504 696 553 696 q 314 613 389 696 q 239 399 239 529 q 287 205 239 268 q 418 142 335 142 z "},"ഥ":{"ha":1285,"x_min":106,"x_max":1179,"o":"m 272 140 l 539 140 l 539 474 q 621 740 539 646 q 858 835 703 835 q 1096 740 1013 835 q 1179 474 1179 646 l 1179 0 l 106 0 l 106 825 l 272 825 l 272 140 m 1013 474 q 856 693 1013 693 q 701 474 701 693 l 701 140 l 1013 140 l 1013 474 z "},"ദ":{"ha":1031,"x_min":76,"x_max":961,"o":"m 961 239 q 873 54 961 122 q 626 -14 785 -14 q 494 -1 557 -14 l 494 144 q 621 129 551 129 q 790 238 790 129 q 601 347 790 347 l 544 347 l 544 490 l 583 490 q 742 589 742 490 q 551 692 742 692 q 335 601 422 692 q 247 371 247 510 q 278 183 247 268 q 375 0 308 97 l 185 0 q 76 367 76 176 q 206 696 76 557 q 551 835 335 835 q 819 767 726 835 q 913 589 913 699 q 771 424 913 449 q 910 364 858 411 q 961 239 961 317 z "},"ധ":{"ha":1331,"x_min":67,"x_max":1264,"o":"m 665 122 q 429 -14 597 -14 q 164 97 261 -14 q 67 408 67 208 q 111 625 67 526 q 176 725 136 682 q 283 797 215 768 q 435 825 350 825 l 435 669 q 238 408 238 669 q 290 201 238 274 q 419 128 343 128 q 540 180 496 128 q 583 329 583 232 l 583 825 l 751 825 l 751 329 q 794 180 751 232 q 914 128 836 128 q 1042 200 992 128 q 1093 408 1093 272 q 896 669 1093 669 l 896 825 q 1048 797 981 825 q 1155 725 1115 768 q 1219 625 1194 682 q 1264 408 1264 526 q 1167 97 1264 208 q 910 -14 1071 -14 q 761 23 828 -14 q 665 122 694 60 z "},"ന":{"ha":1331,"x_min":67,"x_max":1264,"o":"m 67 413 q 164 724 67 613 q 429 835 261 835 q 665 699 597 835 q 761 798 694 761 q 910 835 828 835 q 1167 724 1071 835 q 1264 413 1264 613 q 1219 197 1264 294 q 1155 96 1194 139 q 1048 24 1115 53 q 896 -4 981 -4 l 896 153 q 1093 413 1093 153 q 1042 621 1093 549 q 914 693 992 693 q 794 641 836 693 q 751 492 751 589 l 751 -4 l 583 -4 l 583 492 q 540 641 583 589 q 419 693 496 693 q 290 620 343 693 q 238 413 238 547 q 435 153 238 153 l 435 -4 q 283 24 350 -4 q 176 96 215 53 q 111 197 136 139 q 67 413 67 294 z "},"ഩ":{"ha":1549,"x_min":72,"x_max":1482,"o":"m 372 389 q 344 389 372 389 q 281 351 317 389 q 244 258 244 313 q 282 165 244 203 q 374 126 319 126 q 463 165 428 126 q 499 258 499 203 q 463 351 499 313 q 372 389 426 389 m 400 529 q 586 452 511 529 q 661 258 661 375 q 580 63 661 140 q 370 -14 499 -14 q 157 94 242 -14 q 72 385 72 203 q 201 701 72 568 q 525 833 331 833 q 727 785 633 833 q 876 653 821 738 q 980 778 907 731 q 1140 825 1053 825 q 1390 713 1297 825 q 1482 399 1482 600 q 1439 186 1482 283 q 1377 87 1415 129 q 1274 17 1339 44 q 1126 -10 1210 -10 l 1126 147 q 1310 399 1310 147 q 1264 610 1310 536 q 1141 683 1218 683 q 1017 627 1064 683 q 971 465 969 571 l 971 0 l 808 0 l 808 393 q 726 613 808 528 q 531 697 644 697 q 332 626 418 697 q 231 444 246 556 q 301 506 254 482 q 400 529 347 529 z "},"പ":{"ha":1286,"x_min":61,"x_max":1179,"o":"m 147 87 q 104 136 147 87 q 61 329 61 185 q 166 575 61 474 q 424 676 271 676 q 683 579 578 676 q 789 339 789 482 q 713 136 789 218 q 829 142 750 142 l 1018 142 l 1018 825 l 1179 825 l 1179 0 l 524 0 l 524 136 q 618 333 618 208 q 563 478 618 422 q 424 535 508 535 q 286 476 340 535 q 232 333 232 418 q 272 197 232 247 q 372 143 311 146 l 372 -14 q 147 87 233 -11 z "},"ഫ":{"ha":1703,"x_min":61,"x_max":1597,"o":"m 1124 485 l 1124 140 l 1431 140 l 1431 485 q 1274 693 1431 693 q 1124 485 1124 693 m 147 87 q 104 136 147 87 q 61 329 61 185 q 166 575 61 474 q 424 676 271 676 q 683 579 578 676 q 789 339 789 482 q 713 136 789 218 q 829 142 750 142 l 957 142 l 957 485 q 1040 744 957 653 q 1276 835 1122 835 q 1513 744 1429 835 q 1597 485 1597 653 l 1597 0 l 524 0 l 524 136 q 618 333 618 208 q 563 478 618 422 q 424 535 508 535 q 286 476 340 535 q 232 333 232 418 q 272 197 232 247 q 372 143 311 146 l 372 -14 q 147 87 233 -11 z "},"ബ":{"ha":1990,"x_min":72,"x_max":1885,"o":"m 372 389 q 344 389 372 389 q 281 351 317 389 q 244 258 244 313 q 282 165 244 203 q 374 126 319 126 q 463 165 428 126 q 499 258 499 203 q 463 351 499 313 q 372 389 426 389 m 1188 136 q 1310 425 1310 218 q 1264 610 1310 538 q 1141 683 1218 683 q 1017 627 1064 683 q 971 465 969 571 l 971 0 l 808 0 l 808 393 q 726 613 808 528 q 531 697 644 697 q 332 626 418 697 q 231 444 246 556 q 301 506 254 482 q 400 529 347 529 q 586 452 511 529 q 661 258 661 375 q 580 63 661 140 q 370 -14 499 -14 q 157 94 242 -14 q 72 385 72 203 q 201 701 72 568 q 525 833 331 833 q 726 785 633 833 q 876 649 818 738 q 980 777 907 729 q 1140 825 1053 825 q 1390 715 1297 825 q 1482 413 1482 604 q 1456 263 1482 340 q 1392 142 1429 186 l 1718 142 l 1718 825 l 1885 825 l 1885 0 l 1188 0 l 1188 136 z "},"ഭ":{"ha":968,"x_min":106,"x_max":906,"o":"m 675 431 l 593 433 q 531 390 531 433 q 562 351 531 364 q 674 339 593 339 q 906 171 906 339 q 826 27 906 75 q 611 -21 746 -21 q 386 18 476 -21 l 386 163 q 592 115 501 115 q 717 127 683 115 q 751 165 751 139 q 681 208 751 204 q 629 208 664 208 q 444 253 513 208 q 375 385 375 297 q 433 519 375 472 q 571 567 490 567 l 643 564 q 722 621 722 564 q 673 673 722 653 q 517 693 624 693 q 342 626 411 693 q 272 436 272 560 l 272 0 l 106 0 l 106 436 q 222 728 106 622 q 529 835 339 835 q 783 773 685 835 q 882 622 882 711 q 827 482 882 533 q 675 431 772 431 z "},"മ":{"ha":1085,"x_min":106,"x_max":979,"o":"m 106 0 l 106 425 q 226 727 106 619 q 545 835 347 835 q 861 728 743 835 q 979 425 979 621 l 979 0 l 106 0 m 824 425 q 782 587 824 518 q 661 685 740 656 q 683 475 722 589 q 472 165 642 357 q 462 153 465 158 q 452 142 458 149 q 442 131 446 136 l 824 131 l 824 425 m 263 425 l 263 133 q 453 371 411 310 q 507 703 589 571 q 328 615 393 692 q 263 425 263 538 z "},"യ":{"ha":1546,"x_min":65,"x_max":1479,"o":"m 563 136 q 643 144 606 136 q 507 396 553 246 q 477 513 490 451 q 453 604 464 574 q 432 653 443 635 q 353 693 406 693 q 268 642 300 693 q 236 510 236 592 q 332 243 236 350 q 563 136 428 136 m 785 213 q 886 339 850 264 q 922 501 922 414 q 885 641 922 589 q 781 693 847 693 q 674 648 714 693 q 635 535 633 603 q 668 425 649 493 q 785 213 710 282 m 1081 504 q 1039 316 1081 414 q 922 142 997 218 q 1018 132 963 132 q 1226 224 1144 132 q 1308 439 1308 317 q 1258 620 1308 561 q 1125 679 1207 679 l 1125 835 q 1383 730 1288 835 q 1479 442 1479 625 q 1350 122 1479 258 q 1014 -14 1221 -14 q 782 39 888 -14 q 556 -14 679 -14 q 207 133 349 -14 q 65 500 65 281 q 143 741 65 647 q 347 835 221 835 q 474 805 424 835 q 563 710 525 775 q 653 800 593 765 q 778 835 713 835 q 998 745 915 835 q 1081 504 1081 656 z "},"ര":{"ha":1075,"x_min":72,"x_max":1001,"o":"m 615 371 q 723 129 615 129 q 831 360 831 129 q 722 649 831 543 q 615 371 615 542 m 1001 369 q 925 88 1001 190 q 722 -14 849 -14 q 518 85 594 -14 q 442 361 442 185 q 485 548 442 460 q 592 686 528 636 q 535 693 565 693 q 324 601 406 693 q 243 371 243 510 q 274 183 243 268 q 371 0 304 97 l 181 0 q 72 371 72 176 q 124 592 72 489 q 284 765 176 696 q 535 835 392 835 q 865 710 728 835 q 1001 369 1001 585 z "},"റ":{"ha":896,"x_min":63,"x_max":835,"o":"m 369 0 q 141 119 219 0 q 63 421 63 238 q 169 719 63 604 q 450 835 276 835 q 729 721 624 835 q 835 423 835 607 q 755 119 835 239 q 525 0 675 0 l 525 157 q 626 224 589 157 q 663 420 663 292 q 605 621 663 549 q 449 693 547 693 q 292 619 351 693 q 233 417 233 544 q 269 224 233 290 q 369 157 306 157 l 369 0 z "},"ല":{"ha":1249,"x_min":106,"x_max":1143,"o":"m 274 529 l 274 469 l 585 469 l 585 528 q 540 651 585 608 q 428 693 496 693 q 317 651 360 693 q 274 529 274 610 m 106 482 q 190 743 106 651 q 427 835 274 835 q 663 743 581 835 q 746 482 746 651 l 746 329 l 272 329 l 272 142 l 976 142 l 976 825 l 1143 825 l 1143 0 l 106 0 l 106 482 z "},"ള":{"ha":1079,"x_min":68,"x_max":1018,"o":"m 240 490 q 226 475 240 490 q 213 418 213 460 q 241 347 213 376 q 312 318 269 318 q 383 348 354 318 q 411 419 411 378 q 383 490 411 460 q 310 519 354 519 q 240 490 267 519 m 747 -10 l 317 -8 q 240 -71 240 -8 q 267 -117 240 -100 q 333 -133 294 -133 l 1010 -133 l 1010 -275 l 294 -275 q 133 -215 194 -275 q 72 -63 72 -156 q 137 83 72 29 q 311 138 201 138 l 714 138 q 854 238 854 138 q 713 335 854 335 l 667 335 l 667 479 l 713 479 q 783 504 760 479 q 807 572 807 529 q 742 666 807 632 q 565 700 678 700 q 293 604 382 700 q 361 619 325 619 q 501 560 444 619 q 557 406 557 500 q 488 250 557 313 q 312 188 418 188 q 137 258 206 188 q 68 449 68 328 q 204 724 68 613 q 563 835 340 835 q 856 763 739 835 q 974 572 974 690 q 941 463 974 510 q 851 407 908 417 q 976 346 933 394 q 1018 226 1018 297 q 947 53 1018 117 q 747 -10 875 -10 z "},"ഴ":{"ha":1007,"x_min":68,"x_max":938,"o":"m 535 228 q 200 324 332 228 q 68 596 68 419 q 114 821 68 689 l 283 821 q 236 607 236 688 q 302 438 236 499 q 476 363 368 376 q 388 573 388 463 q 463 759 388 683 q 659 835 539 835 q 858 761 779 835 q 938 567 938 688 q 876 367 938 446 q 710 254 815 289 q 711 235 711 249 q 626 48 711 110 q 403 -14 542 -14 q 218 14 301 -14 l 218 174 q 395 136 318 138 q 519 158 472 135 q 565 229 565 181 q 535 228 556 228 m 663 693 q 637 693 663 693 q 582 660 611 693 q 553 582 553 628 q 569 495 553 536 q 599 435 586 454 q 644 378 613 417 q 738 451 706 401 q 771 561 771 501 q 742 657 771 621 q 663 693 714 693 z "},"വ":{"ha":1386,"x_min":65,"x_max":1281,"o":"m 411 0 q 272 27 333 0 q 172 96 210 54 q 110 193 135 138 q 65 406 65 292 q 177 715 65 594 q 471 835 289 835 q 765 716 653 835 q 876 408 876 597 q 788 142 876 249 l 1113 142 l 1113 825 l 1281 825 l 1281 0 l 586 0 l 586 136 q 706 406 706 226 q 641 615 706 538 q 470 693 576 693 q 300 614 364 693 q 236 408 236 535 q 290 216 236 281 q 411 151 344 151 l 411 0 z "},"ശ":{"ha":1443,"x_min":67,"x_max":1369,"o":"m 982 361 q 1090 129 982 129 q 1199 351 1199 129 q 1090 649 1199 538 q 982 361 982 538 m 711 336 q 630 78 711 169 q 396 -14 549 -14 q 155 99 243 -14 q 67 411 67 211 q 278 800 67 717 q 426 825 343 825 l 426 669 q 287 611 336 669 q 238 413 238 553 q 283 201 238 274 q 401 128 328 128 q 543 329 543 128 l 543 450 q 644 722 543 608 q 914 835 746 835 q 1238 704 1107 835 q 1369 377 1369 574 q 1292 83 1369 181 q 1090 -14 1214 -14 q 890 80 967 -14 q 813 356 813 174 q 852 545 813 457 q 961 686 892 633 q 919 692 943 692 q 772 632 833 692 q 711 450 711 572 l 711 336 z "},"ഷ":{"ha":1940,"x_min":61,"x_max":1835,"o":"m 1379 142 l 1668 142 l 1668 335 q 1679 499 1668 433 q 1553 374 1636 425 q 1379 303 1469 322 l 1379 142 m 1115 693 q 1038 659 1067 693 q 1010 567 1010 625 q 1067 472 1010 508 q 1214 432 1125 435 l 1214 561 q 1115 693 1214 693 m 147 86 q 104 135 147 86 q 61 329 61 185 q 165 575 61 474 q 420 676 269 676 q 675 579 571 676 q 779 339 779 482 q 701 136 779 219 q 800 142 726 142 l 1214 142 l 1214 289 l 1211 289 q 942 367 1039 289 q 844 564 844 444 q 922 759 844 683 q 1119 835 999 835 q 1309 766 1239 835 q 1379 578 1379 697 l 1379 447 q 1551 533 1467 458 q 1669 713 1635 608 l 1835 713 l 1835 0 l 519 0 l 519 136 q 608 333 608 207 q 556 478 608 422 q 421 535 503 535 q 285 476 339 535 q 232 333 232 418 q 272 197 232 249 q 365 143 313 144 l 365 -14 q 147 86 233 -12 z "},"സ":{"ha":1711,"x_min":67,"x_max":1644,"o":"m 1644 411 q 1556 99 1644 211 q 1317 -14 1467 -14 q 1081 80 1167 -14 q 996 336 996 174 l 996 460 q 864 693 996 693 q 767 641 803 693 q 732 492 732 589 l 732 0 l 565 0 l 565 492 q 524 641 565 589 q 408 693 483 693 q 285 619 333 693 q 238 413 238 544 q 288 219 238 281 q 422 157 338 157 l 422 0 q 274 27 339 0 q 172 97 210 54 q 108 194 133 139 q 67 408 67 293 q 160 722 67 608 q 410 835 254 835 q 556 798 494 835 q 649 699 617 761 q 737 797 679 760 q 867 835 794 835 q 1089 732 1014 835 q 1164 458 1164 629 l 1164 329 q 1203 179 1164 231 q 1315 128 1242 128 q 1431 198 1388 128 q 1474 411 1474 268 q 1285 669 1474 669 l 1285 825 q 1440 797 1372 825 q 1544 728 1507 769 q 1606 628 1582 686 q 1644 411 1644 532 z "},"ഹ":{"ha":1729,"x_min":61,"x_max":1663,"o":"m 147 86 q 104 135 147 86 q 61 329 61 185 q 165 575 61 474 q 420 676 269 676 q 675 579 571 676 q 779 339 779 482 q 703 138 779 219 q 800 143 728 143 l 896 143 q 990 138 964 143 q 888 422 888 244 q 996 717 888 600 q 1276 835 1104 835 q 1555 718 1447 835 q 1663 417 1663 601 q 1581 109 1663 232 q 1340 -14 1500 -14 l 1340 143 q 1449 224 1407 144 q 1492 421 1492 303 q 1433 616 1492 539 q 1276 693 1375 693 q 1117 615 1176 693 q 1058 406 1058 538 q 1176 136 1058 235 l 1176 0 l 519 0 l 519 138 q 608 333 608 208 q 556 478 608 422 q 421 535 503 535 q 285 476 339 535 q 232 333 232 418 q 272 197 232 249 q 365 143 313 144 l 365 -14 q 147 86 233 -12 z "},"ഺ":{"ha":850,"x_min":106,"x_max":878,"o":"m 106 0 l 106 825 l 272 825 l 272 142 l 878 142 l 878 0 l 679 0 l 679 -293 l 511 -293 l 511 0 l 106 0 z "},"ഽ":{"ha":644,"x_min":139,"x_max":606,"o":"m 457 -121 q 380 -340 457 -267 q 179 -412 303 -412 q 139 -411 151 -412 l 139 -264 q 179 -265 151 -265 q 288 -121 288 -265 l 288 860 q 365 1078 288 1006 q 565 1151 442 1151 q 606 1150 593 1151 l 606 1003 q 565 1004 593 1004 q 457 860 457 1004 l 457 -121 z "},"ാ":{"ha":675,"x_min":42,"x_max":615,"o":"m 508 717 q 561 658 508 717 q 615 414 615 599 q 508 110 615 229 q 231 -8 400 -8 q 42 28 138 -8 l 42 172 q 221 133 151 133 q 381 210 318 133 q 444 414 444 286 q 381 617 444 542 q 221 693 318 693 q 42 656 154 693 l 42 799 q 231 835 138 835 q 508 717 400 835 z "},"ി":{"ha":386,"x_min":-275,"x_max":281,"o":"m 281 0 l 114 0 l 114 1007 q 83 1095 114 1064 q -1 1126 53 1126 q -111 1007 -111 1126 l -111 975 l -275 975 l -275 1013 q -199 1199 -275 1133 q 0 1264 -124 1264 q 202 1199 124 1264 q 281 1014 281 1133 l 281 0 z "},"ീ":{"ha":386,"x_min":-392,"x_max":281,"o":"m -174 1156 q -192 1156 -174 1156 q -232 1132 -210 1156 q -254 1075 -254 1108 q -231 1018 -254 1042 q -174 994 -208 994 q -117 1018 -140 994 q -93 1075 -93 1042 q -116 1132 -93 1108 q -174 1156 -139 1156 m 281 0 l 114 0 l 114 951 q 81 1098 114 1044 q -11 1157 47 1151 q 40 1051 40 1128 q -19 922 40 975 q -174 868 -78 868 q -331 926 -269 868 q -392 1075 -392 985 q -312 1235 -392 1165 q -78 1304 -232 1304 q 178 1210 76 1304 q 281 960 281 1117 l 281 0 z "},"ു":{"ha":501,"x_min":-53,"x_max":443,"o":"m 122 -183 q 110 -200 122 -183 q 97 -274 97 -218 q 124 -363 97 -329 q 197 -397 150 -397 q 269 -364 244 -397 q 294 -274 294 -331 q 268 -182 294 -217 q 194 -147 242 -147 q 122 -183 147 -147 m 443 -274 q 376 -466 443 -392 q 195 -540 308 -540 q 15 -466 82 -540 q -53 -283 -53 -392 q -5 -103 -53 -174 q 128 -12 43 -33 l 175 161 q 244 535 244 406 q 203 651 244 610 q 85 693 163 693 q 26 686 61 693 l 26 831 q 85 835 58 835 q 324 761 233 835 q 414 535 414 688 q 381 306 414 447 q 296 -22 360 221 q 404 -117 365 -50 q 443 -274 443 -183 z "},"ൂ":{"ha":511,"x_min":-37,"x_max":457,"o":"m 210 -431 q 329 -332 307 -431 l 92 -332 q 134 -404 103 -378 q 210 -431 165 -431 m 332 -229 q 290 -144 322 -175 q 209 -114 258 -114 q 128 -145 160 -114 q 89 -229 97 -176 l 332 -229 m 457 -274 q 390 -466 457 -392 q 210 -540 324 -540 q 30 -466 97 -540 q -37 -283 -37 -392 q 10 -104 -37 -174 q 142 -12 58 -35 l 190 161 q 260 535 260 413 q 219 651 260 610 q 100 693 178 693 q 42 686 76 693 l 42 831 q 100 835 72 835 q 339 761 249 835 q 429 535 429 688 q 358 161 429 429 l 311 -22 q 419 -117 381 -50 q 457 -274 457 -183 z "},"ൃ":{"ha":503,"x_min":-110,"x_max":507,"o":"m 93 -235 q 77 -235 93 -235 q 40 -257 61 -235 q 19 -310 19 -279 q 40 -362 19 -342 q 93 -383 61 -383 q 145 -362 125 -383 q 165 -311 165 -342 q 145 -258 165 -281 q 93 -235 125 -235 m 507 -185 q 507 -262 507 -185 q 410 -438 507 -339 q 160 -537 313 -537 q -33 -471 44 -537 q -110 -315 -110 -404 q -52 -167 -110 -225 q 93 -110 6 -110 q 232 -162 181 -110 q 283 -291 283 -215 q 228 -412 283 -367 q 311 -329 281 -392 q 342 -189 342 -267 q 319 -41 342 -111 q 263 92 296 29 q 197 224 231 156 q 119 569 119 388 q 161 825 119 697 l 326 825 q 288 591 288 699 q 310 401 288 483 q 365 254 333 319 q 429 125 397 189 q 507 -185 507 -31 z "},"ൄ":{"ha":503,"x_min":-232,"x_max":507,"o":"m -86 -360 q -92 -324 -92 -343 q -73 -288 -92 -304 q -23 -272 -54 -272 q 32 -292 8 -272 q 85 -272 54 -272 q 136 -288 117 -272 q 156 -325 156 -304 q 149 -360 156 -346 l 97 -360 q 106 -335 106 -346 q 81 -312 106 -312 q 57 -342 57 -312 l 57 -360 l 7 -360 l 7 -342 q -19 -312 7 -312 q -42 -335 -42 -312 q -35 -360 -42 -349 l -86 -360 m 33 -207 q -4 -207 33 -207 q -86 -237 -40 -207 q -132 -324 -132 -268 q -87 -410 -132 -379 q 32 -440 -42 -440 q 150 -410 106 -440 q 194 -325 194 -381 q 150 -238 194 -269 q 33 -207 106 -207 m 507 -185 q 507 -261 507 -185 q 387 -437 507 -337 q 101 -537 267 -537 q -149 -480 -65 -537 q -232 -331 -232 -422 q -156 -179 -232 -239 q 34 -119 -81 -119 q 217 -176 149 -119 q 286 -310 286 -232 q 272 -382 286 -344 q 342 -179 342 -307 q 231 156 342 -35 q 154 339 189 228 q 119 574 119 450 q 161 825 119 697 l 326 825 q 288 591 288 699 q 310 401 288 483 q 365 255 333 319 q 429 125 397 190 q 507 -185 507 -32 z "},"െ":{"ha":1064,"x_min":69,"x_max":994,"o":"m 69 363 q 201 693 69 551 q 531 835 333 835 q 862 703 729 835 q 994 378 994 572 q 886 0 994 185 l 696 0 q 824 390 824 197 q 740 613 824 532 q 544 693 657 693 q 347 627 431 693 q 239 446 264 561 q 310 504 261 481 q 408 528 360 528 q 599 453 528 528 q 669 264 669 379 q 590 67 669 149 q 379 -14 511 -14 q 158 93 247 -14 q 69 363 69 200 m 383 385 q 356 385 383 385 q 294 347 329 385 q 258 256 258 310 q 295 165 258 203 q 385 128 332 128 q 472 165 438 128 q 507 256 507 203 q 472 347 507 310 q 383 385 438 385 z "},"േ":{"ha":900,"x_min":64,"x_max":838,"o":"m 574 681 q 564 670 574 681 q 553 624 553 658 q 574 566 553 589 q 631 543 596 543 q 688 566 665 543 q 710 624 710 589 q 688 681 710 658 q 631 704 665 704 q 574 681 596 704 m 631 278 q 613 278 631 278 q 574 255 596 278 q 553 197 553 232 q 574 140 553 163 q 631 117 596 117 q 688 140 665 117 q 710 197 710 163 q 688 255 710 232 q 631 278 665 278 m 635 393 q 682 393 635 393 q 783 340 729 393 q 838 199 838 286 q 764 49 838 113 q 538 -14 690 -14 q 193 108 322 -14 q 64 411 64 229 q 193 714 64 593 q 538 835 322 835 q 764 772 690 835 q 838 622 838 708 q 783 481 838 535 q 635 428 729 428 q 486 477 542 428 q 431 591 431 526 q 474 699 431 656 q 301 606 372 682 q 229 410 229 531 q 301 211 229 289 q 472 124 372 133 q 431 230 431 165 q 486 344 431 294 q 635 393 542 393 z "},"ൈ":{"ha":2083,"x_min":69,"x_max":2015,"o":"m 1090 363 q 1222 693 1090 551 q 1552 835 1354 835 q 1883 703 1750 835 q 2015 378 2015 572 q 1907 0 2015 185 l 1717 0 q 1844 390 1844 197 q 1761 613 1844 532 q 1565 693 1678 693 q 1368 627 1451 693 q 1260 446 1285 561 q 1331 504 1282 481 q 1429 528 1381 528 q 1619 453 1549 528 q 1690 264 1690 379 q 1611 67 1690 149 q 1400 -14 1532 -14 q 1179 93 1268 -14 q 1090 363 1090 200 m 1404 385 q 1377 385 1404 385 q 1315 347 1350 385 q 1279 256 1279 310 q 1316 165 1279 203 q 1406 128 1353 128 q 1493 165 1458 128 q 1528 256 1528 203 q 1493 347 1528 310 q 1404 385 1458 385 m 69 363 q 201 693 69 551 q 531 835 333 835 q 862 703 729 835 q 994 378 994 572 q 886 0 994 185 l 696 0 q 824 390 824 197 q 740 613 824 532 q 544 693 657 693 q 347 627 431 693 q 239 446 264 561 q 310 504 261 481 q 408 528 360 528 q 599 453 528 528 q 669 264 669 379 q 590 67 669 149 q 379 -14 511 -14 q 158 93 247 -14 q 69 363 69 200 m 383 385 q 356 385 383 385 q 294 347 329 385 q 258 256 258 310 q 295 165 258 203 q 385 128 332 128 q 472 165 438 128 q 507 256 507 203 q 472 347 507 310 q 383 385 438 385 z "},"ൊ":{"ha":2546,"x_min":69,"x_max":2486,"o":"m 2378 717 q 2432 658 2378 717 q 2486 414 2486 599 q 2378 110 2486 229 q 2101 -8 2271 -8 q 1913 28 2008 -8 l 1913 172 q 2092 133 2022 133 q 2252 210 2189 133 q 2315 414 2315 286 q 2252 617 2315 542 q 2092 693 2189 693 q 1913 656 2025 693 l 1913 799 q 2101 835 2008 835 q 2378 717 2271 835 m 1792 676 q 1799 669 1792 676 q 1806 643 1806 663 q 1792 610 1806 624 q 1758 596 1778 596 q 1724 610 1738 596 q 1710 643 1710 624 q 1724 676 1710 663 q 1758 690 1738 690 q 1792 676 1778 690 m 1661 771 q 1668 764 1661 771 q 1675 738 1675 757 q 1661 704 1675 718 q 1627 690 1647 690 q 1593 704 1607 690 q 1579 738 1579 718 q 1593 771 1579 757 q 1627 785 1607 785 q 1661 771 1647 785 m 1861 511 q 1868 504 1861 511 q 1875 478 1875 497 q 1861 444 1875 458 q 1827 431 1847 431 q 1793 444 1807 431 q 1779 478 1779 458 q 1793 511 1779 497 q 1827 525 1807 525 q 1861 511 1847 525 m 1485 790 q 1492 783 1485 790 q 1499 757 1499 776 q 1485 724 1499 738 q 1451 710 1471 710 q 1417 724 1431 710 q 1403 757 1403 738 q 1417 790 1403 776 q 1451 804 1431 804 q 1485 790 1471 804 m 1847 325 q 1854 318 1847 325 q 1861 292 1861 311 q 1847 258 1861 272 q 1813 244 1833 244 q 1779 258 1793 244 q 1765 292 1765 272 q 1779 325 1765 311 q 1813 339 1793 339 q 1847 325 1833 339 m 1321 731 q 1328 724 1321 731 q 1335 697 1335 717 q 1321 664 1335 678 q 1287 650 1307 650 q 1253 664 1267 650 q 1239 697 1239 678 q 1253 731 1239 717 q 1287 744 1267 744 q 1321 731 1307 744 m 1747 189 q 1754 182 1747 189 q 1761 156 1761 175 q 1747 122 1761 136 q 1713 108 1733 108 q 1679 122 1693 108 q 1665 156 1665 136 q 1679 189 1665 175 q 1713 203 1693 203 q 1747 189 1733 203 m 1210 578 q 1217 571 1210 578 q 1224 544 1224 564 q 1210 511 1224 525 q 1176 497 1196 497 q 1142 511 1156 497 q 1128 544 1128 525 q 1142 578 1128 564 q 1176 592 1156 592 q 1210 578 1196 592 m 1579 115 q 1586 108 1579 115 q 1593 82 1593 101 q 1579 49 1593 63 q 1545 35 1565 35 q 1511 49 1525 35 q 1497 82 1497 63 q 1511 115 1497 101 q 1545 129 1525 129 q 1579 115 1565 129 m 1190 404 q 1197 397 1190 404 q 1204 371 1204 390 q 1190 338 1204 351 q 1156 324 1176 324 q 1122 338 1136 324 q 1108 371 1108 351 q 1122 404 1108 390 q 1156 418 1136 418 q 1190 404 1176 418 m 1403 136 q 1410 129 1403 136 q 1417 103 1417 122 q 1403 69 1417 83 q 1369 56 1389 56 q 1335 69 1349 56 q 1321 103 1321 83 q 1335 136 1321 122 q 1369 150 1349 150 q 1403 136 1389 150 m 1261 242 q 1268 235 1261 242 q 1275 208 1275 228 q 1261 175 1275 189 q 1227 161 1247 161 q 1193 175 1207 161 q 1179 208 1179 189 q 1193 242 1179 228 q 1227 256 1207 256 q 1261 242 1247 256 m 383 385 q 356 385 383 385 q 294 347 329 385 q 258 256 258 310 q 295 165 258 203 q 385 128 332 128 q 472 165 438 128 q 507 256 507 203 q 472 347 507 310 q 383 385 438 385 m 599 453 q 634 416 599 453 q 669 264 669 379 q 590 67 669 149 q 378 -14 511 -14 q 158 90 246 -14 q 69 373 69 193 q 201 694 69 553 q 534 835 332 835 q 865 708 736 835 q 994 383 994 581 q 886 0 994 185 l 696 0 q 824 390 824 197 q 740 613 824 532 q 544 693 657 693 q 347 627 431 693 q 239 446 264 561 q 310 504 261 481 q 408 528 360 528 q 599 453 528 528 z "},"ോ":{"ha":2382,"x_min":64,"x_max":2322,"o":"m 2215 717 q 2268 658 2215 717 q 2322 414 2322 599 q 2215 110 2322 229 q 1938 -8 2107 -8 q 1749 28 1844 -8 l 1749 172 q 1928 133 1858 133 q 2088 210 2025 133 q 2151 414 2151 286 q 2088 617 2151 542 q 1928 693 2025 693 q 1749 656 1861 693 l 1749 799 q 1938 835 1844 835 q 2215 717 2107 835 m 1640 676 q 1647 669 1640 676 q 1654 643 1654 663 q 1640 610 1654 624 q 1606 596 1626 596 q 1572 610 1586 596 q 1558 643 1558 624 q 1572 676 1558 663 q 1606 690 1586 690 q 1640 676 1626 690 m 1510 771 q 1517 764 1510 771 q 1524 738 1524 757 q 1510 704 1524 718 q 1476 690 1496 690 q 1442 704 1456 690 q 1428 738 1428 718 q 1442 771 1428 757 q 1476 785 1456 785 q 1510 771 1496 785 m 1710 511 q 1717 504 1710 511 q 1724 478 1724 497 q 1710 444 1724 458 q 1676 431 1696 431 q 1642 444 1656 431 q 1628 478 1628 458 q 1642 511 1628 497 q 1676 525 1656 525 q 1710 511 1696 525 m 1333 790 q 1340 783 1333 790 q 1347 757 1347 776 q 1333 724 1347 738 q 1299 710 1319 710 q 1265 724 1279 710 q 1251 757 1251 738 q 1265 790 1251 776 q 1299 804 1279 804 q 1333 790 1319 804 m 1696 325 q 1703 318 1696 325 q 1710 292 1710 311 q 1696 258 1710 272 q 1662 244 1682 244 q 1628 258 1642 244 q 1614 292 1614 272 q 1628 325 1614 311 q 1662 339 1642 339 q 1696 325 1682 339 m 1169 731 q 1176 724 1169 731 q 1183 697 1183 717 q 1169 664 1183 678 q 1135 650 1156 650 q 1101 664 1115 650 q 1088 697 1088 678 q 1101 731 1088 717 q 1135 744 1115 744 q 1169 731 1156 744 m 1596 189 q 1603 182 1596 189 q 1610 156 1610 175 q 1596 122 1610 136 q 1562 108 1582 108 q 1528 122 1542 108 q 1514 156 1514 136 q 1528 189 1514 175 q 1562 203 1542 203 q 1596 189 1582 203 m 1058 578 q 1065 571 1058 578 q 1072 544 1072 564 q 1058 511 1072 525 q 1024 497 1044 497 q 990 511 1004 497 q 976 544 976 525 q 990 578 976 564 q 1024 592 1004 592 q 1058 578 1044 592 m 1428 115 q 1435 108 1428 115 q 1442 82 1442 101 q 1428 49 1442 63 q 1394 35 1414 35 q 1360 49 1374 35 q 1346 82 1346 63 q 1360 115 1346 101 q 1394 129 1374 129 q 1428 115 1414 129 m 1039 404 q 1046 397 1039 404 q 1053 371 1053 390 q 1039 338 1053 351 q 1005 324 1025 324 q 971 338 985 324 q 957 371 957 351 q 971 404 957 390 q 1005 418 985 418 q 1039 404 1025 418 m 1251 136 q 1258 129 1251 136 q 1265 103 1265 122 q 1251 69 1265 83 q 1217 56 1238 56 q 1183 69 1197 56 q 1169 103 1169 83 q 1183 136 1169 122 q 1217 150 1197 150 q 1251 136 1238 150 m 1110 242 q 1117 235 1110 242 q 1124 208 1124 228 q 1110 175 1124 189 q 1076 161 1096 161 q 1042 175 1056 161 q 1028 208 1028 189 q 1042 242 1028 228 q 1076 256 1056 256 q 1110 242 1096 256 m 573 683 q 562 670 573 683 q 551 624 551 658 q 573 565 551 589 q 630 540 594 540 q 688 565 665 540 q 711 624 711 589 q 688 683 711 658 q 630 707 665 707 q 573 683 594 707 m 629 281 q 612 281 629 281 q 573 257 594 281 q 551 198 551 233 q 573 138 551 163 q 630 114 594 114 q 688 138 665 114 q 711 197 711 163 q 688 256 711 232 q 629 281 664 281 m 635 393 q 682 393 635 393 q 783 340 729 393 q 838 199 838 286 q 764 49 838 113 q 538 -14 690 -14 q 193 108 322 -14 q 64 411 64 229 q 193 714 64 593 q 538 835 322 835 q 764 772 690 835 q 838 622 838 708 q 783 481 838 535 q 635 428 729 428 q 486 477 542 428 q 431 591 431 526 q 474 699 431 656 q 304 606 374 682 q 235 410 235 529 q 304 213 235 292 q 472 124 374 133 q 431 230 431 165 q 486 344 431 294 q 635 393 542 393 z "},"ൌ":{"ha":2050,"x_min":81,"x_max":1978,"o":"m 764 675 q 771 668 764 675 q 778 642 778 661 q 764 608 778 622 q 730 594 750 594 q 696 608 710 594 q 682 642 682 622 q 696 675 682 661 q 730 689 710 689 q 764 675 750 689 m 633 769 q 640 763 633 769 q 647 736 647 756 q 633 703 647 717 q 599 689 619 689 q 565 703 579 689 q 551 736 551 717 q 565 769 551 756 q 599 783 579 783 q 633 769 619 783 m 833 510 q 840 503 833 510 q 847 476 847 496 q 833 443 847 457 q 799 429 819 429 q 765 443 779 429 q 751 476 751 457 q 765 510 751 496 q 799 524 779 524 q 833 510 819 524 m 457 789 q 464 782 457 789 q 471 756 471 775 q 457 722 471 736 q 423 708 443 708 q 389 722 403 708 q 375 756 375 736 q 389 789 375 775 q 423 803 403 803 q 457 789 443 803 m 819 324 q 826 317 819 324 q 833 290 833 310 q 819 257 833 271 q 785 243 806 243 q 751 257 765 243 q 738 290 738 271 q 751 324 738 310 q 785 338 765 338 q 819 324 806 338 m 293 729 q 300 722 293 729 q 307 696 307 715 q 293 663 307 676 q 259 649 279 649 q 225 663 239 649 q 211 696 211 676 q 225 729 211 715 q 259 743 239 743 q 293 729 279 743 m 719 188 q 726 181 719 188 q 733 154 733 174 q 719 121 733 135 q 685 107 706 107 q 651 121 665 107 q 638 154 638 135 q 651 188 638 174 q 685 201 665 201 q 719 188 706 201 m 182 576 q 189 569 182 576 q 196 543 196 563 q 182 510 196 524 q 148 496 168 496 q 114 510 128 496 q 100 543 100 524 q 114 576 100 563 q 148 590 128 590 q 182 576 168 590 m 551 114 q 558 107 551 114 q 565 81 565 100 q 551 47 565 61 q 517 33 538 33 q 483 47 497 33 q 469 81 469 61 q 483 114 469 100 q 517 128 497 128 q 551 114 538 128 m 163 403 q 169 396 163 403 q 176 369 176 389 q 163 336 176 350 q 128 322 149 322 q 94 336 108 322 q 81 369 81 350 q 94 403 81 389 q 128 417 108 417 q 163 403 149 417 m 375 135 q 382 128 375 135 q 389 101 389 121 q 375 68 389 82 q 341 54 361 54 q 307 68 321 54 q 293 101 293 82 q 307 135 293 121 q 341 149 321 149 q 375 135 361 149 m 233 240 q 240 233 233 240 q 247 207 247 226 q 233 174 247 188 q 199 160 219 160 q 165 174 179 160 q 151 207 151 188 q 165 240 151 226 q 199 254 179 254 q 233 240 219 254 m 1978 465 q 1861 128 1978 258 q 1556 -1 1744 -1 q 1413 22 1476 -1 l 1413 174 q 1549 154 1490 154 q 1737 232 1667 154 q 1807 442 1807 310 q 1658 693 1807 693 q 1569 653 1603 693 q 1536 546 1536 614 l 1536 435 l 1367 435 l 1367 536 q 1331 652 1367 611 q 1238 693 1296 693 q 1145 648 1181 693 q 1110 535 1110 603 q 1143 385 1110 467 l 975 385 q 944 528 944 446 q 1021 746 944 657 q 1226 835 1097 835 q 1365 797 1306 835 q 1456 703 1425 760 q 1538 797 1481 758 q 1669 835 1594 835 q 1898 731 1818 835 q 1978 465 1978 628 z "},"്":{"ha":0,"x_min":-485,"x_max":97,"o":"m 97 1201 q 19 991 97 1069 q -194 913 -58 913 q -407 991 -329 913 q -485 1201 -485 1069 l -333 1201 q -297 1095 -333 1135 q -194 1056 -261 1056 q -90 1095 -126 1056 q -54 1201 -54 1135 l 97 1201 z "},"ൎ":{"ha":0,"x_min":-297,"x_max":-87,"o":"m -192 1258 q -168 1258 -192 1258 q -116 1230 -144 1258 q -87 1153 -87 1201 q -115 1076 -87 1104 q -191 1049 -142 1049 q -269 1077 -240 1049 q -297 1153 -297 1106 q -268 1230 -297 1201 q -192 1258 -239 1258 z "},"ൗ":{"ha":1157,"x_min":51,"x_max":1085,"o":"m 1085 465 q 968 128 1085 258 q 663 -1 851 -1 q 519 22 583 -1 l 519 174 q 656 154 597 154 q 844 232 774 154 q 914 442 914 310 q 765 693 914 693 q 676 653 710 693 q 642 546 642 614 l 642 435 l 474 435 l 474 536 q 438 652 474 611 q 345 693 403 693 q 252 648 288 693 q 217 535 217 603 q 250 385 217 467 l 82 385 q 51 528 51 446 q 128 746 51 657 q 333 835 204 835 q 472 797 413 835 q 561 703 531 760 q 644 797 586 758 q 776 835 701 835 q 1005 731 925 835 q 1085 465 1085 628 z "},"ൠ":{"ha":1282,"x_min":68,"x_max":1215,"o":"m 951 707 q 927 707 951 707 q 872 674 903 707 q 840 594 840 640 q 872 515 840 549 q 952 481 904 481 q 1031 514 1000 481 q 1063 594 1063 547 q 1031 674 1063 642 q 951 707 1000 707 m 329 707 q 305 707 329 707 q 251 674 281 707 q 221 594 221 642 q 251 514 221 547 q 330 481 282 481 q 410 514 378 481 q 442 594 442 547 q 410 674 442 640 q 329 707 378 707 m 381 -49 q 422 45 381 11 q 528 79 463 79 q 642 36 594 79 q 753 79 688 79 q 860 45 819 79 q 901 -49 901 11 q 888 -110 901 -79 l 781 -110 q 797 -58 797 -82 q 783 -20 797 -33 q 747 -7 768 -7 q 692 -69 692 -7 l 692 -110 l 592 -110 l 592 -69 q 576 -23 592 -39 q 537 -7 560 -7 q 499 -20 514 -7 q 485 -58 485 -33 q 501 -110 485 -82 l 394 -110 q 381 -49 381 -79 m 256 -25 q 635 -190 256 -190 q 922 -149 818 -190 q 1026 -22 1026 -108 q 641 133 1026 133 q 256 -25 256 133 m 1186 -28 q 1042 -251 1186 -175 q 642 -328 899 -328 q 241 -251 386 -328 q 96 -31 96 -174 q 152 119 96 60 q 306 204 208 179 q 138 343 207 250 q 68 557 68 436 q 144 756 68 678 q 337 835 221 835 q 523 762 453 835 q 593 591 593 689 q 530 432 593 493 q 395 371 467 371 q 282 399 324 371 q 644 265 385 265 q 1004 399 904 265 q 907 371 961 371 q 757 432 825 371 q 689 591 689 493 q 759 762 689 689 q 946 835 829 835 q 1139 755 1063 835 q 1215 555 1215 675 q 1145 342 1215 435 q 978 204 1075 249 q 1130 119 1074 179 q 1186 -28 1186 58 z "},"ൡ":{"ha":1872,"x_min":72,"x_max":1826,"o":"m 379 385 q 352 385 379 385 q 290 347 325 385 q 254 256 254 310 q 291 165 254 203 q 381 128 328 128 q 468 165 433 128 q 503 256 503 203 q 468 347 503 310 q 379 385 433 385 m 1826 96 q 1701 -224 1826 -104 q 1374 -344 1576 -344 q 1213 -326 1294 -344 l 1213 -176 q 1372 -200 1304 -200 q 1592 -119 1510 -200 q 1675 133 1675 -39 l 1675 146 q 1571 28 1636 71 q 1422 -14 1506 -14 q 1222 63 1303 -14 q 1140 258 1140 140 q 1222 450 1140 375 q 1429 525 1304 525 q 1554 501 1492 525 q 1447 646 1519 594 q 1263 697 1375 697 q 1069 613 1151 697 q 986 386 986 529 l 986 0 l 821 0 l 821 396 q 733 611 821 529 q 534 693 644 693 q 344 626 424 693 q 240 446 265 560 q 310 504 263 481 q 406 528 357 528 q 595 453 524 528 q 667 264 667 379 q 587 67 667 149 q 374 -14 507 -14 q 157 88 242 -14 q 72 370 72 189 q 199 693 72 551 q 528 835 326 835 q 756 775 653 835 q 903 624 858 715 q 1051 775 953 715 q 1264 835 1150 835 q 1463 797 1378 835 q 1603 697 1547 760 q 1724 382 1715 567 q 1826 96 1826 261 m 1303 258 q 1303 230 1303 258 q 1338 164 1303 201 q 1435 126 1374 126 q 1539 182 1497 126 q 1581 332 1581 238 q 1429 388 1511 388 q 1338 351 1372 388 q 1303 258 1303 314 z "},"ൢ":{"ha":0,"x_min":-1081,"x_max":-106,"o":"m -281 -235 q -336 -405 -336 -285 q -281 -525 -336 -525 q -226 -390 -226 -525 q -281 -235 -226 -293 m -960 -390 q -905 -525 -960 -525 q -850 -404 -850 -525 q -906 -235 -850 -283 q -960 -390 -960 -293 m -817 -210 q -729 -390 -729 -268 q -778 -567 -729 -511 q -905 -624 -826 -624 q -1032 -565 -983 -624 q -1081 -385 -1081 -506 q -1003 -186 -1081 -264 q -812 -108 -926 -108 q -679 -141 -736 -108 q -593 -212 -622 -174 q -512 -140 -567 -172 q -382 -108 -458 -108 q -186 -186 -267 -108 q -106 -385 -106 -264 q -154 -565 -106 -506 q -281 -624 -203 -624 q -408 -567 -360 -624 q -457 -390 -457 -511 q -369 -210 -457 -268 q -485 -248 -436 -208 q -533 -357 -533 -287 l -533 -615 l -653 -615 l -653 -357 q -701 -248 -653 -287 q -817 -210 -750 -208 z "},"ൣ":{"ha":0,"x_min":-1174,"x_max":-87,"o":"m -979 -393 q -994 -393 -979 -393 q -1027 -412 -1008 -393 q -1046 -458 -1046 -432 q -1026 -505 -1046 -485 q -978 -525 -1007 -525 q -931 -506 -950 -525 q -912 -459 -912 -486 q -931 -412 -912 -432 q -979 -393 -950 -393 m -156 -382 q -87 -572 -87 -457 q -166 -758 -87 -687 q -374 -829 -244 -829 q -478 -818 -429 -829 l -478 -712 q -375 -729 -404 -729 q -193 -542 -193 -729 q -343 -625 -247 -625 q -469 -578 -418 -625 q -521 -460 -521 -532 q -469 -341 -521 -387 q -339 -294 -417 -294 q -275 -304 -304 -294 q -431 -206 -315 -206 q -553 -254 -506 -206 q -601 -389 -601 -303 l -601 -617 l -718 -617 l -718 -382 q -769 -255 -718 -301 q -885 -208 -821 -208 q -993 -242 -949 -208 q -1053 -335 -1037 -276 q -1012 -306 -1040 -318 q -957 -293 -985 -293 q -840 -338 -883 -293 q -797 -454 -797 -383 q -848 -575 -797 -525 q -983 -625 -899 -625 q -1120 -563 -1067 -625 q -1174 -392 -1174 -501 q -1095 -196 -1174 -282 q -893 -110 -1017 -110 q -751 -144 -815 -110 q -660 -231 -687 -178 q -567 -144 -626 -178 q -432 -110 -507 -110 q -234 -187 -306 -110 q -156 -382 -162 -265 m -406 -458 q -406 -473 -406 -458 q -387 -507 -406 -487 q -333 -526 -368 -526 q -276 -499 -297 -526 q -254 -421 -254 -471 q -331 -390 -293 -390 q -387 -410 -369 -390 q -406 -458 -406 -429 z "},"൦":{"ha":847,"x_min":53,"x_max":794,"o":"m 424 -15 q 337 -15 424 -15 q 151 103 250 -15 q 53 410 53 222 q 151 717 53 599 q 424 835 250 835 q 697 717 599 835 q 794 411 794 600 q 697 103 794 222 q 424 -15 599 -15 m 422 693 q 372 693 422 693 q 273 614 322 693 q 224 409 224 535 q 275 205 224 283 q 426 126 326 126 q 576 203 526 126 q 625 408 625 281 q 573 615 625 536 q 422 693 521 693 z "},"൧":{"ha":1017,"x_min":13,"x_max":911,"o":"m 433 474 l 433 140 l 744 140 l 744 474 q 588 693 744 693 q 433 474 433 693 m 533 -276 l 244 -276 q 74 -214 135 -276 q 13 -59 13 -151 q 82 90 13 33 q 271 147 151 146 l 271 474 q 353 740 271 646 q 590 835 435 835 q 828 740 744 835 q 911 474 911 646 l 911 0 l 265 0 q 181 -67 181 0 q 207 -117 181 -99 q 278 -135 233 -135 l 533 -135 l 533 -276 z "},"൨":{"ha":1035,"x_min":67,"x_max":1024,"o":"m 551 0 l 551 136 q 671 406 671 222 q 612 615 671 538 q 453 693 553 693 q 296 616 354 693 q 238 421 238 539 q 280 226 238 303 q 389 147 322 149 l 389 -10 q 206 51 281 -10 q 67 411 67 164 q 174 718 67 601 q 453 835 282 835 q 733 717 625 835 q 842 415 842 600 q 729 133 842 231 q 1024 142 799 142 l 1024 0 l 551 0 z "},"൩":{"ha":1457,"x_min":67,"x_max":1440,"o":"m 435 157 l 435 0 q 283 28 350 0 q 176 98 215 56 q 111 197 136 140 q 67 413 67 294 q 163 724 67 613 q 426 835 260 835 q 661 699 593 835 q 759 799 697 763 q 897 835 821 835 q 1153 719 1060 835 q 1247 410 1247 603 q 1224 261 1247 338 q 1160 139 1200 185 q 1440 142 1253 142 l 1440 0 l 957 0 l 957 136 q 1044 240 1013 171 q 1076 424 1076 310 q 1027 615 1076 538 q 904 693 978 693 q 789 640 831 693 q 747 492 747 588 l 747 0 l 579 0 l 579 492 q 537 641 579 589 q 417 693 494 693 q 288 621 339 693 q 238 413 238 549 q 435 157 238 157 z "},"൪":{"ha":1093,"x_min":74,"x_max":1022,"o":"m 717 138 q 851 374 851 138 q 744 618 851 522 q 696 550 732 600 q 640 467 660 500 q 613 411 621 433 q 589 283 589 346 q 624 179 589 221 q 717 138 658 138 m 1022 374 q 942 97 1022 199 q 720 -4 861 -4 q 499 83 579 -4 q 418 293 418 171 q 461 479 418 397 q 542 607 497 546 q 601 688 588 668 q 547 693 579 693 q 328 601 413 693 q 244 371 244 510 q 277 181 244 267 q 382 0 310 94 l 192 0 q 74 371 74 169 q 127 592 74 488 q 291 765 181 696 q 547 835 401 835 q 668 819 607 835 q 678 894 678 861 q 628 1016 678 972 q 506 1060 579 1060 q 357 1033 433 1060 l 357 1179 q 499 1201 439 1201 q 752 1119 654 1201 q 850 894 850 1038 q 821 751 850 821 q 968 588 914 688 q 1022 374 1022 489 z "},"൫":{"ha":1506,"x_min":60,"x_max":1446,"o":"m 1146 110 q 1024 -147 1146 -39 q 703 -256 901 -256 q 358 -165 506 -256 q 135 73 210 -74 q 60 402 60 219 q 143 744 60 585 q 388 1001 226 904 q 756 1094 549 1099 q 1053 1032 919 1090 q 1272 878 1188 974 q 1401 663 1356 782 q 1446 413 1446 543 q 1365 -12 1446 211 l 1192 -12 q 1258 194 1235 99 q 1278 407 1281 290 q 1127 799 1274 644 q 758 953 981 953 q 399 825 556 953 q 274 651 321 763 q 228 402 228 539 q 272 164 228 265 q 389 4 317 63 q 700 -114 535 -114 q 900 -51 825 -114 q 975 110 975 11 q 926 215 975 175 q 786 254 876 254 l 729 254 l 729 397 l 772 397 q 881 431 844 397 q 917 516 917 464 q 881 596 917 568 q 772 624 844 624 q 656 560 700 624 q 611 381 611 497 l 611 85 l 444 85 l 444 381 q 475 563 444 485 q 556 683 506 642 q 787 767 656 767 q 1003 699 918 767 q 1088 517 1088 631 q 1053 394 1088 444 q 956 332 1019 343 q 1093 260 1040 321 q 1146 110 1146 200 z "},"൬":{"ha":1783,"x_min":67,"x_max":1713,"o":"m 651 669 q 738 788 676 740 q 890 835 800 835 q 1040 790 979 835 q 1129 669 1101 744 q 1228 792 1164 749 q 1375 835 1293 835 q 1622 722 1531 835 q 1713 408 1713 610 q 1536 -156 1713 38 q 1368 -269 1472 -226 q 1131 -312 1264 -312 l 1131 -157 q 1542 408 1542 -157 q 1494 619 1542 544 q 1373 693 1447 693 q 1255 636 1299 693 q 1211 472 1211 579 l 1211 0 l 1044 0 l 1044 472 q 1003 638 1044 582 q 890 693 963 693 q 776 635 818 693 q 735 474 735 576 l 735 0 l 568 0 l 568 474 q 524 637 568 581 q 406 693 481 693 q 284 619 331 693 q 238 408 238 544 q 426 157 238 157 l 426 0 q 276 27 342 0 q 173 97 211 54 q 110 194 135 139 q 67 408 67 292 q 158 722 67 610 q 404 835 249 835 q 551 792 486 835 q 651 669 617 749 z "},"൭":{"ha":1086,"x_min":72,"x_max":1013,"o":"m 374 393 q 347 393 374 393 q 284 356 319 393 q 249 265 249 318 q 285 174 249 211 q 376 136 322 136 q 464 174 429 136 q 499 265 499 211 q 463 356 499 318 q 374 393 428 393 m 1013 351 q 855 -87 1013 86 q 389 -267 697 -261 l 390 -112 q 600 -75 510 -112 q 743 28 690 -37 q 847 357 847 158 q 758 600 847 508 q 533 692 669 692 q 344 626 429 692 q 235 454 260 561 q 306 513 258 489 q 401 536 353 536 q 590 462 519 536 q 661 272 661 388 q 582 76 661 157 q 370 -6 503 -6 q 155 94 238 -6 q 72 372 72 193 q 201 693 72 551 q 532 835 331 835 q 873 706 733 835 q 1013 351 1013 578 z "},"൮":{"ha":1386,"x_min":65,"x_max":1281,"o":"m 411 0 q 272 27 333 0 q 172 96 210 54 q 110 193 135 138 q 65 406 65 292 q 177 715 65 594 q 471 835 289 835 q 765 716 653 835 q 876 408 876 597 q 790 142 876 258 l 1113 142 l 1113 825 l 1281 825 l 1281 0 q 1168 -280 1281 -182 q 833 -387 1056 -378 l 833 -236 q 1047 -168 982 -226 q 1113 0 1113 -110 l 586 0 l 586 136 q 706 406 706 228 q 641 615 706 538 q 470 693 576 693 q 300 614 364 693 q 236 408 236 535 q 290 216 236 281 q 411 151 344 151 l 411 0 z "},"൯":{"ha":1568,"x_min":67,"x_max":1497,"o":"m 1063 286 q 1063 249 1063 286 q 1098 169 1063 211 q 1193 128 1133 128 q 1290 192 1253 128 q 1326 374 1326 256 q 1218 615 1326 519 q 1176 556 1213 607 q 1130 486 1140 504 q 1097 428 1119 468 q 1063 286 1063 361 m 1497 374 q 1415 94 1497 203 q 1194 -14 1333 -14 q 972 74 1054 -14 q 890 283 890 161 q 912 410 890 347 q 953 506 933 474 q 1078 689 985 560 q 1017 693 1053 693 q 933 678 981 693 q 843 633 886 664 q 774 547 800 603 q 747 415 747 490 l 747 0 l 579 0 l 579 492 q 537 641 579 589 q 417 693 494 693 q 288 621 339 693 q 238 413 238 549 q 435 157 238 157 l 435 0 q 283 28 350 0 q 176 98 215 56 q 111 197 136 140 q 67 413 67 294 q 163 724 67 613 q 425 835 260 835 q 678 686 590 835 q 1035 835 800 835 q 1142 821 1082 835 q 1151 894 1151 863 q 1101 1016 1151 972 q 978 1060 1051 1060 q 829 1033 906 1060 l 829 1179 q 971 1201 911 1201 q 1224 1119 1126 1201 q 1322 894 1322 1038 q 1293 750 1322 822 q 1442 589 1386 686 q 1497 374 1497 492 z "},"൰":{"ha":1301,"x_min":106,"x_max":1235,"o":"m 407 0 q 272 36 332 0 l 272 -183 l 106 -183 l 106 835 l 272 835 l 272 238 q 407 142 314 142 q 515 194 474 142 q 556 343 556 247 l 556 835 l 722 835 l 722 343 q 765 194 722 246 q 886 142 808 142 q 1014 214 964 142 q 1064 422 1064 286 q 867 679 1064 679 l 867 835 q 1019 807 951 835 q 1126 737 1086 779 q 1192 638 1165 694 q 1235 422 1235 540 q 1138 111 1235 222 q 875 0 1042 0 q 640 136 708 0 q 407 0 563 0 z "},"൱":{"ha":1340,"x_min":67,"x_max":1260,"o":"m 1183 8 q 1082 -159 1143 -87 q 925 -274 1021 -231 q 711 -318 829 -318 l 711 -162 q 988 -11 888 -162 q 1089 401 1089 140 q 1038 617 1089 543 q 910 692 988 692 q 790 640 832 692 q 747 492 747 589 l 747 0 l 579 0 l 579 492 q 537 641 579 589 q 417 693 494 693 q 288 621 339 693 q 238 413 238 549 q 435 157 238 157 l 435 0 q 283 28 350 0 q 176 98 215 56 q 111 197 136 140 q 67 413 67 294 q 163 724 67 613 q 423 835 260 835 q 664 699 586 835 q 901 833 735 833 q 1163 721 1067 833 q 1260 397 1260 608 q 1183 8 1260 185 z "},"൲":{"ha":2103,"x_min":67,"x_max":2060,"o":"m 1708 733 q 1692 716 1708 733 q 1676 650 1676 700 q 1708 567 1676 600 q 1789 533 1740 533 q 1869 567 1838 533 q 1900 650 1900 600 q 1869 733 1900 700 q 1789 765 1838 765 q 1708 733 1740 765 m 1044 256 q 1044 228 1044 256 q 1080 164 1044 200 q 1177 128 1115 128 q 1281 188 1239 128 q 1322 363 1322 247 l 1322 386 l 1225 386 q 1091 349 1138 385 q 1044 256 1044 313 m 1476 363 q 1391 88 1476 189 q 1173 -14 1306 -14 q 961 66 1040 -14 q 882 263 882 146 q 974 454 882 381 q 1225 528 1065 528 l 1289 528 q 1181 650 1253 607 q 1006 693 1110 693 q 824 622 901 693 q 747 425 747 551 l 747 0 l 579 0 l 579 492 q 537 641 579 589 q 417 693 494 693 q 288 621 339 693 q 238 413 238 549 q 435 157 238 157 l 435 0 q 283 28 350 0 q 176 98 215 56 q 111 197 136 140 q 67 413 67 294 q 163 724 67 613 q 418 835 260 835 q 574 791 504 835 q 676 681 644 747 q 817 794 729 753 q 1011 835 906 835 q 1287 750 1172 835 q 1449 528 1401 665 l 1561 528 q 1517 657 1517 589 q 1595 837 1517 767 q 1792 907 1674 907 q 1985 837 1910 907 q 2060 649 2060 767 q 1974 458 2060 531 q 1740 386 1888 386 l 1476 386 l 1476 363 z "},"൳":{"ha":1029,"x_min":65,"x_max":994,"o":"m 994 825 l 994 683 l 518 683 q 312 605 388 683 q 236 375 236 526 q 276 194 236 260 q 393 129 315 129 q 510 194 471 129 q 549 360 549 260 q 518 542 549 461 l 686 542 q 721 375 721 460 q 633 89 721 192 q 392 -14 544 -14 q 153 89 240 -14 q 65 375 65 192 q 192 708 65 590 q 522 825 318 825 l 994 825 z "},"൴":{"ha":1411,"x_min":72,"x_max":1340,"o":"m 381 385 q 353 385 381 385 q 291 347 326 385 q 256 256 256 310 q 292 165 256 203 q 383 128 329 128 q 471 165 436 128 q 506 256 506 203 q 470 347 506 310 q 381 385 435 385 m 901 279 q 901 250 901 279 q 938 179 901 221 q 1035 138 975 138 q 1132 191 1094 138 q 1169 350 1169 244 q 1043 599 1169 504 q 1021 567 1038 590 q 998 535 1004 544 q 977 503 992 525 q 956 470 963 482 q 938 438 949 458 q 923 403 928 418 q 911 369 918 389 q 901 279 901 338 m 597 453 q 633 416 597 453 q 668 264 668 379 q 589 67 668 149 q 379 -14 510 -14 q 160 83 249 -14 q 72 329 72 181 q 242 701 72 567 q 703 835 411 835 q 972 792 847 835 q 992 894 992 842 q 942 1016 992 972 q 819 1060 892 1060 q 669 1033 746 1060 l 669 1179 q 811 1201 751 1201 q 1065 1119 967 1201 q 1163 894 1163 1038 q 1121 722 1163 808 q 1282 560 1224 657 q 1340 350 1340 464 q 1258 94 1340 192 q 1036 -4 1176 -4 q 813 83 896 -4 q 731 293 731 171 q 772 472 731 393 q 806 536 796 518 q 901 669 818 560 q 703 696 810 696 q 387 629 506 696 q 242 446 268 563 q 313 504 265 481 q 408 528 360 528 q 597 453 526 528 z "},"൵":{"ha":1799,"x_min":72,"x_max":1728,"o":"m 381 385 q 353 385 381 385 q 291 347 326 385 q 256 256 256 310 q 292 165 256 203 q 383 128 329 128 q 471 165 436 128 q 506 256 506 203 q 470 347 506 310 q 381 385 435 385 m 1293 294 q 1293 258 1293 294 q 1330 179 1293 221 q 1426 138 1367 138 q 1522 198 1486 138 q 1557 378 1557 258 q 1450 621 1557 525 q 1408 562 1443 610 q 1362 495 1374 514 q 1329 436 1350 476 q 1293 294 1293 368 m 597 453 q 633 416 597 453 q 668 264 668 379 q 589 67 668 149 q 379 -14 510 -14 q 160 83 249 -14 q 72 329 72 181 q 198 690 72 544 q 528 835 324 835 q 901 654 776 835 q 1272 835 1033 835 q 1374 822 1324 835 q 1383 894 1383 853 q 1333 1016 1383 972 q 1210 1060 1283 1060 q 1061 1033 1138 1060 l 1061 1179 q 1203 1201 1143 1201 q 1456 1119 1358 1201 q 1554 894 1554 1038 q 1526 754 1554 824 q 1673 594 1618 692 q 1728 378 1728 497 q 1647 102 1728 208 q 1427 -4 1567 -4 q 1205 83 1288 -4 q 1122 293 1122 171 q 1144 420 1122 357 q 1183 513 1165 483 q 1308 690 1213 563 q 1268 693 1283 693 q 1070 624 1156 693 q 985 413 985 556 l 985 0 l 818 0 l 818 421 q 733 620 818 549 q 537 692 649 692 q 345 626 425 692 q 240 446 265 560 q 311 504 263 481 q 408 528 360 528 q 597 453 526 528 z "},"൹":{"ha":1743,"x_min":67,"x_max":1711,"o":"m 1044 256 q 1044 228 1044 256 q 1080 164 1044 200 q 1177 128 1115 128 q 1281 188 1239 128 q 1322 363 1322 247 l 1322 386 l 1225 386 q 1091 349 1138 385 q 1044 256 1044 313 m 1476 363 q 1391 88 1476 189 q 1173 -14 1306 -14 q 961 66 1040 -14 q 882 263 882 146 q 974 454 882 381 q 1225 528 1065 528 l 1288 528 q 1179 649 1250 606 q 1005 693 1108 693 q 824 622 901 693 q 747 425 747 551 l 747 -10 l 579 -10 l 579 482 q 535 631 579 579 q 415 683 492 683 q 288 610 339 683 q 238 403 238 538 q 435 147 238 147 l 435 -10 q 283 18 350 -10 q 176 88 215 46 q 111 188 136 131 q 67 403 67 285 q 163 714 67 603 q 417 825 258 825 q 574 783 504 825 q 676 675 643 742 q 1011 835 799 835 q 1285 749 1171 835 q 1447 528 1400 663 l 1711 528 l 1711 386 l 1476 386 l 1476 363 z "},"ൺ":{"ha":2254,"x_min":72,"x_max":2183,"o":"m 379 385 q 352 385 379 385 q 290 347 325 385 q 254 256 254 310 q 291 165 254 203 q 381 128 328 128 q 469 165 433 128 q 504 256 504 203 q 469 347 504 310 q 379 385 433 385 m 1750 284 q 1750 248 1750 284 q 1785 169 1750 211 q 1879 128 1819 128 q 1976 189 1939 128 q 2013 368 2013 250 q 1908 615 2013 514 q 1865 553 1900 601 q 1819 484 1831 504 q 1786 425 1807 464 q 1750 284 1750 357 m 595 453 q 631 416 595 453 q 667 264 667 379 q 587 67 667 149 q 374 -14 507 -14 q 157 85 242 -14 q 72 353 72 185 q 199 692 72 549 q 528 835 325 835 q 738 792 640 835 q 890 669 835 749 q 982 789 918 743 q 1128 835 1046 835 q 1273 788 1211 835 q 1360 668 1335 740 q 1729 835 1485 835 q 1831 821 1783 835 q 1840 894 1840 854 q 1790 1016 1840 972 q 1667 1060 1740 1060 q 1518 1033 1594 1060 l 1518 1179 q 1660 1201 1600 1201 q 1913 1119 1815 1201 q 2011 894 2011 1038 q 1982 750 2011 822 q 2128 587 2074 686 q 2183 368 2183 488 q 2102 92 2183 199 q 1881 -14 2021 -14 q 1660 74 1740 -14 q 1579 283 1579 161 q 1601 408 1579 346 q 1642 504 1622 471 q 1708 604 1661 538 q 1768 689 1756 671 q 1711 693 1747 693 q 1628 678 1675 693 q 1538 633 1581 664 q 1468 547 1494 603 q 1442 415 1442 490 l 1442 0 l 1275 0 l 1275 474 q 1235 636 1275 579 q 1128 693 1194 693 q 1024 638 1063 693 q 985 472 985 583 l 985 0 l 818 0 l 818 424 q 733 622 818 551 q 537 692 649 692 q 345 626 425 692 q 240 446 265 560 q 310 504 263 481 q 406 528 357 528 q 595 453 524 528 z "},"ൻ":{"ha":1556,"x_min":67,"x_max":1485,"o":"m 1056 285 q 1056 248 1056 285 q 1090 169 1056 211 q 1185 128 1125 128 q 1278 192 1244 128 q 1313 378 1313 256 q 1215 618 1313 528 q 1125 486 1138 507 q 1092 426 1113 465 q 1056 285 1056 358 m 418 835 q 678 685 599 835 q 1025 835 800 835 q 1135 822 1083 835 q 1144 894 1144 853 q 1095 1016 1144 972 q 973 1060 1046 1060 q 824 1033 900 1060 l 824 1179 q 965 1201 906 1201 q 1219 1119 1121 1201 q 1317 894 1317 1038 q 1289 753 1317 825 q 1432 592 1379 690 q 1485 378 1485 494 q 1405 95 1485 204 q 1185 -14 1325 -14 q 965 74 1046 -14 q 885 283 885 161 q 906 408 885 346 q 947 505 926 471 q 1014 604 968 539 q 1072 689 1060 669 q 1009 693 1047 693 q 924 677 971 693 q 838 630 878 661 q 772 542 797 599 q 747 414 747 486 l 747 0 l 579 0 l 579 492 q 537 641 579 589 q 417 693 494 693 q 288 621 339 693 q 238 413 238 549 q 435 157 238 157 l 435 0 q 283 28 350 0 q 176 98 215 56 q 111 197 136 140 q 67 413 67 294 q 163 724 67 613 q 418 835 260 835 z "},"ർ":{"ha":1089,"x_min":74,"x_max":1018,"o":"m 589 284 q 589 248 589 284 q 624 169 589 211 q 718 128 658 128 q 812 191 778 128 q 846 374 846 254 q 747 615 846 524 q 660 489 674 511 q 625 426 647 467 q 589 284 589 357 m 1018 374 q 938 94 1018 203 q 719 -14 858 -14 q 499 74 579 -14 q 418 283 418 161 q 440 408 418 346 q 480 503 461 471 q 547 603 499 536 q 606 688 594 669 q 547 693 579 693 q 328 601 413 693 q 244 371 244 510 q 275 183 244 268 q 372 0 306 97 l 182 0 q 74 371 74 176 q 127 592 74 488 q 291 765 181 696 q 547 835 401 835 q 668 819 607 835 q 678 894 678 861 q 628 1016 678 972 q 506 1060 579 1060 q 357 1033 433 1060 l 357 1179 q 499 1201 439 1201 q 752 1119 654 1201 q 850 894 850 1038 q 821 749 850 822 q 965 587 913 686 q 1018 374 1018 488 z "},"ൽ":{"ha":1749,"x_min":64,"x_max":1678,"o":"m 1249 283 q 1283 169 1249 211 q 1378 128 1318 128 q 1472 185 1438 128 q 1507 356 1507 242 q 1394 597 1507 504 q 1369 560 1389 589 q 1342 520 1349 531 q 1318 484 1335 510 q 1294 445 1301 458 q 1276 408 1288 432 q 1261 367 1265 383 q 1249 283 1249 314 m 622 368 q 730 129 622 129 q 838 368 838 129 q 735 618 838 529 q 622 368 622 536 m 415 143 l 415 -14 q 157 97 250 -14 q 64 395 64 208 q 194 708 64 582 q 518 835 324 835 q 749 781 643 835 q 1038 835 881 835 q 1321 792 1194 835 q 1339 894 1339 843 q 1289 1016 1339 972 q 1166 1060 1239 1060 q 1017 1033 1093 1060 l 1017 1179 q 1158 1201 1099 1201 q 1412 1119 1314 1201 q 1510 894 1510 1038 q 1468 721 1510 808 q 1622 562 1567 656 q 1678 356 1678 468 q 1598 90 1678 194 q 1378 -14 1518 -14 q 1158 74 1239 -14 q 1078 283 1078 161 q 1119 463 1078 383 q 1156 530 1144 510 q 1208 606 1167 550 q 1253 668 1249 661 q 1060 696 1161 696 q 883 681 960 696 q 1007 365 1007 549 q 929 84 1007 182 q 728 -14 851 -14 q 528 81 606 -14 q 450 366 450 175 q 596 686 450 557 q 508 696 556 696 q 313 613 390 696 q 236 399 236 529 q 284 206 236 268 q 415 143 332 143 z "},"ൾ":{"ha":1479,"x_min":67,"x_max":1408,"o":"m 975 283 q 1010 169 975 211 q 1105 128 1044 128 q 1201 187 1165 128 q 1238 367 1238 246 q 1132 614 1238 515 q 983 353 999 424 q 975 283 975 319 m 711 336 q 630 78 711 169 q 396 -14 549 -14 q 155 99 243 -14 q 67 411 67 211 q 278 800 67 717 q 426 825 343 825 l 426 669 q 287 611 336 669 q 238 413 238 553 q 283 201 238 274 q 401 128 328 128 q 543 329 543 128 l 543 450 q 652 726 543 617 q 946 835 761 835 q 1056 821 996 835 q 1065 894 1065 860 q 1015 1016 1065 972 q 892 1060 965 1060 q 743 1033 819 1060 l 743 1179 q 885 1201 825 1201 q 1138 1119 1040 1201 q 1236 894 1236 1038 q 1207 749 1236 822 q 1353 585 1299 685 q 1408 367 1408 485 q 1328 89 1408 192 q 1106 -14 1247 -14 q 885 74 965 -14 q 804 283 804 161 q 826 408 804 346 q 867 504 847 471 q 933 603 886 538 q 992 688 979 669 q 943 693 971 693 q 777 631 843 693 q 711 450 711 568 l 711 336 z "},"ൿ":{"ha":1849,"x_min":69,"x_max":1778,"o":"m 792 119 q 920 185 874 119 q 972 378 967 251 l 611 379 q 792 119 622 119 m 964 517 q 792 701 933 701 q 619 517 650 701 l 964 517 m 1382 238 q 1382 209 1382 238 q 1414 153 1382 181 q 1496 125 1446 125 q 1578 163 1546 125 q 1610 254 1610 200 q 1432 378 1610 378 q 1382 238 1382 294 m 236 257 q 236 227 236 257 q 270 161 236 197 q 353 125 304 125 q 436 161 403 125 q 465 246 469 197 q 444 379 449 308 l 403 379 q 282 348 328 379 q 236 257 236 317 m 1697 59 q 1656 23 1697 59 q 1494 -14 1615 -14 q 1294 54 1374 -14 q 1214 226 1214 122 q 1254 378 1214 301 l 1139 378 q 1038 94 1131 201 q 792 -14 944 -14 q 544 94 639 -14 q 346 -14 482 -14 q 150 60 231 -14 q 69 256 69 135 q 157 447 69 378 q 390 517 244 517 l 453 517 q 569 751 478 668 q 791 835 660 835 q 1014 751 922 835 q 1131 517 1106 667 l 1343 517 q 1421 747 1421 639 q 1375 855 1421 815 q 1258 894 1329 894 q 1111 868 1188 894 l 1111 1014 q 1253 1036 1193 1036 q 1498 958 1404 1036 q 1592 756 1592 879 q 1518 510 1592 632 q 1708 426 1638 492 q 1778 247 1778 361 q 1697 59 1778 132 z "},"‌":{"ha":0,"x_min":-33,"x_max":38,"o":"m -33 1103 l 38 1103 l 38 -481 l -33 -481 l -33 1103 z "},"‍":{"ha":0,"x_min":-207,"x_max":185,"o":"m 25 -481 l -46 -481 l -46 839 l -149 738 l -207 792 l -62 924 l -207 1057 l -150 1110 l -10 972 l 129 1110 l 185 1057 l 40 924 l 185 792 l 128 738 l 25 840 l 25 -481 z "},"–":{"ha":763,"x_min":69,"x_max":694,"o":"m 694 310 l 69 310 l 69 438 l 694 438 l 694 310 z "},"—":{"ha":1154,"x_min":69,"x_max":1085,"o":"m 1085 314 l 69 314 l 69 442 l 1085 442 l 1085 314 z "},"‘":{"ha":325,"x_min":29,"x_max":350,"o":"m 219 621 l 29 621 l 210 964 l 350 964 l 219 621 z "},"’":{"ha":325,"x_min":31,"x_max":351,"o":"m 172 621 l 31 621 l 161 964 l 351 964 l 172 621 z "},"‚":{"ha":325,"x_min":-6,"x_max":317,"o":"m 136 -175 l -6 -175 l 126 168 l 317 168 l 136 -175 z "},"“":{"ha":560,"x_min":29,"x_max":586,"o":"m 460 621 l 283 621 l 450 964 l 586 964 l 460 621 m 217 621 l 29 621 l 215 964 l 351 964 l 217 621 z "},"”":{"ha":560,"x_min":31,"x_max":588,"o":"m 401 621 l 265 621 l 400 964 l 588 964 l 401 621 m 167 621 l 31 621 l 157 964 l 332 964 l 167 621 z "},"„":{"ha":560,"x_min":0,"x_max":556,"o":"m 371 -175 l 235 -175 l 368 168 l 556 168 l 371 -175 m 136 -175 l 0 -175 l 126 168 l 301 168 l 136 -175 z "},"†":{"ha":758,"x_min":49,"x_max":710,"o":"m 710 578 l 451 578 l 451 0 l 301 0 l 301 578 l 49 578 l 49 717 l 301 717 l 301 936 l 451 936 l 451 717 l 710 717 l 710 578 z "},"‡":{"ha":788,"x_min":63,"x_max":725,"o":"m 725 225 l 467 225 l 467 0 l 317 0 l 317 225 l 63 225 l 63 364 l 317 364 l 317 578 l 63 578 l 63 717 l 317 717 l 317 936 l 467 936 l 467 717 l 725 717 l 725 578 l 467 578 l 467 364 l 725 364 l 725 225 z "},"•":{"ha":603,"x_min":118,"x_max":486,"o":"m 433 626 q 459 599 433 626 q 486 494 486 572 q 433 363 486 417 q 302 310 381 310 q 171 363 224 310 q 118 494 118 415 q 170 626 118 574 q 301 679 222 679 q 433 626 379 679 z "},"…":{"ha":1188,"x_min":71,"x_max":1117,"o":"m 1085 173 q 1101 157 1085 173 q 1117 97 1117 142 q 1085 21 1117 53 q 1010 -11 1054 -11 q 933 21 965 -11 q 901 97 901 53 q 933 173 901 142 q 1010 204 965 204 q 1085 173 1054 204 m 670 173 q 686 157 670 173 q 701 97 701 142 q 670 21 701 53 q 594 -11 639 -11 q 518 21 550 -11 q 486 97 486 53 q 518 173 486 142 q 594 204 550 204 q 670 173 639 204 m 255 173 q 270 157 255 173 q 286 97 286 142 q 255 21 286 53 q 179 -11 224 -11 q 103 21 135 -11 q 71 97 71 53 q 103 173 71 142 q 179 204 135 204 q 255 173 224 204 z "},"‰":{"ha":1856,"x_min":63,"x_max":1803,"o":"m 1555 347 q 1532 347 1555 347 q 1478 315 1510 347 q 1446 237 1446 282 q 1478 159 1446 192 q 1555 126 1510 126 q 1633 159 1600 126 q 1665 237 1665 192 q 1633 315 1665 282 q 1555 347 1600 347 m 1731 411 q 1767 375 1731 411 q 1803 236 1803 339 q 1731 61 1803 133 q 1556 -11 1658 -11 q 1381 61 1453 -11 q 1308 236 1308 133 q 1381 411 1308 339 q 1556 483 1453 483 q 1731 411 1658 483 m 972 347 q 949 347 972 347 q 894 315 926 347 q 861 237 861 282 q 894 159 861 192 q 972 126 926 126 q 1049 159 1017 126 q 1082 237 1082 192 q 1049 315 1082 282 q 972 347 1017 347 m 1145 411 q 1182 375 1145 411 q 1218 236 1218 339 q 1145 61 1218 133 q 971 -11 1072 -11 q 797 61 869 -11 q 724 236 724 133 q 797 411 724 339 q 971 483 869 483 q 1145 411 1072 483 m 310 840 q 287 840 310 840 q 232 808 264 840 q 200 730 200 775 q 232 652 200 685 q 310 619 264 619 q 388 652 356 619 q 419 730 419 685 q 388 808 419 775 q 310 840 356 840 m 310 976 q 361 976 310 976 q 485 904 413 976 q 557 730 557 832 q 484 555 557 628 q 310 482 411 482 q 135 555 208 482 q 63 730 63 628 q 135 904 63 832 q 310 976 207 976 m 454 -1 l 301 -1 l 817 960 l 971 960 l 454 -1 z "},"‹":{"ha":478,"x_min":38,"x_max":425,"o":"m 222 351 l 425 126 l 249 126 l 38 351 l 249 576 l 425 576 l 222 351 z "},"›":{"ha":476,"x_min":53,"x_max":440,"o":"m 440 351 l 229 126 l 53 126 l 256 351 l 53 576 l 229 576 l 440 351 z "},"⁄":{"ha":392,"x_min":-201,"x_max":536,"o":"m -69 0 l -201 0 l 406 988 l 536 988 l -69 0 z "},"€":{"ha":847,"x_min":63,"x_max":792,"o":"m 792 32 q 578 -11 710 -11 q 341 70 446 -11 q 194 290 236 151 l 63 290 l 63 397 l 175 397 q 174 442 174 414 q 176 506 174 469 l 63 506 l 63 614 l 196 614 q 343 839 236 758 q 582 919 450 919 q 792 875 714 919 l 792 707 q 615 761 718 761 q 383 614 450 761 l 643 614 l 643 506 l 354 506 q 350 452 350 476 q 353 397 350 428 l 643 397 l 643 290 l 381 290 q 471 182 411 219 q 622 144 531 144 q 792 200 714 144 l 792 32 z "},"₹":{"ha":767,"x_min":86,"x_max":706,"o":"m 706 569 l 563 569 q 477 400 549 464 q 283 325 406 336 l 554 0 l 343 0 l 86 324 l 86 458 l 213 458 q 393 569 368 458 l 86 569 l 86 699 l 386 699 q 210 807 346 807 l 86 807 l 86 936 l 706 936 l 706 807 l 489 807 q 553 699 536 760 l 706 699 l 706 569 z "},"₺":{"ha":813,"x_min":79,"x_max":783,"o":"m 303 0 l 189 0 l 189 326 l 79 271 l 79 404 l 189 460 l 189 581 l 79 525 l 79 658 l 189 714 l 189 910 l 356 910 l 356 800 l 490 868 l 490 735 l 356 667 l 356 544 l 490 613 l 490 479 l 356 411 l 356 146 q 549 274 476 172 q 621 504 621 375 l 783 504 q 653 148 783 296 q 303 0 522 0 z "},"₽":{"ha":778,"x_min":4,"x_max":739,"o":"m 579 113 l 301 113 l 301 0 l 126 0 l 126 113 l 4 113 l 4 235 l 126 235 l 126 338 l 4 338 l 4 460 l 126 460 l 126 910 l 399 910 q 652 831 565 910 q 739 620 739 753 q 649 413 739 488 q 403 338 558 338 l 301 338 l 301 235 l 579 235 l 579 113 m 385 772 l 301 772 l 301 460 l 381 460 q 571 618 571 460 q 385 772 571 772 z "},"ℓ":{"ha":711,"x_min":49,"x_max":650,"o":"m 650 38 q 458 -7 575 -7 q 270 63 340 -7 q 200 264 200 132 l 200 265 q 126 263 164 263 q 49 275 89 263 l 49 414 q 130 400 96 400 q 200 403 164 400 l 200 653 q 253 863 200 783 q 421 943 306 943 q 593 876 536 943 q 650 692 650 810 q 576 465 650 575 q 367 301 501 356 l 367 289 q 503 129 367 129 q 650 175 579 129 l 650 38 m 367 646 l 367 454 q 472 559 436 496 q 507 681 507 622 q 439 794 507 794 q 367 646 367 794 z "},"™":{"ha":1015,"x_min":10,"x_max":983,"o":"m 240 460 l 128 460 l 128 838 l 10 838 l 10 936 l 357 936 l 357 838 l 240 838 l 240 460 m 857 808 q 803 638 843 743 l 739 467 l 639 467 q 526 808 547 725 q 526 638 533 739 l 514 460 l 403 460 l 442 936 l 568 936 l 667 672 q 688 594 681 628 q 813 936 708 667 l 939 936 l 983 460 l 872 460 q 854 731 854 693 q 857 808 854 768 z "},"Ω":{"ha":1092,"x_min":67,"x_max":1025,"o":"m 483 0 l 67 0 l 67 144 l 260 144 q 114 476 114 260 q 230 823 114 693 q 547 953 346 953 q 864 824 749 953 q 979 476 979 694 q 832 144 979 258 l 1025 144 l 1025 0 l 608 0 l 608 144 q 746 256 700 165 q 792 485 792 346 q 728 708 792 625 q 547 792 664 792 q 365 708 429 792 q 301 486 301 624 q 348 258 301 349 q 483 144 394 167 l 483 0 z "},"℮":{"ha":1163,"x_min":19,"x_max":1106,"o":"m 290 496 l 835 496 l 835 751 q 558 868 733 868 q 402 835 474 868 q 290 747 331 801 l 290 496 m 561 -14 q 178 124 336 -14 q 19 459 19 261 q 178 803 19 657 q 562 949 338 949 q 946 803 786 949 q 1106 457 1106 657 l 1106 418 l 290 418 l 290 190 q 410 97 339 131 q 561 63 482 63 q 861 213 746 63 l 1028 213 q 824 47 943 107 q 561 -14 704 -14 z "},"∂":{"ha":747,"x_min":51,"x_max":681,"o":"m 222 294 q 222 259 222 294 q 259 181 222 224 q 365 138 296 138 q 478 199 433 138 q 525 383 522 261 q 365 451 464 451 q 263 408 303 451 q 222 294 222 365 m 681 396 q 596 96 681 204 q 362 -12 511 -12 q 132 76 213 -12 q 51 298 51 164 q 135 514 51 432 q 326 596 219 596 q 503 540 433 596 q 370 762 464 658 q 161 936 276 865 l 393 936 q 598 694 515 847 q 681 396 681 540 z "},"∆":{"ha":913,"x_min":47,"x_max":867,"o":"m 457 807 l 233 143 l 679 143 l 457 807 m 47 0 l 47 122 l 346 936 l 572 936 l 867 122 l 867 0 l 47 0 z "},"∏":{"ha":871,"x_min":-33,"x_max":776,"o":"m 301 35 q 63 -257 301 -257 q -33 -240 11 -257 l -33 -86 q 42 -104 0 -104 q 125 29 125 -104 l 125 936 l 776 936 l 776 -250 l 600 -250 l 600 785 l 301 785 l 301 35 z "},"∑":{"ha":650,"x_min":42,"x_max":678,"o":"m 678 -133 l 678 -278 l 42 -278 l 42 -133 l 263 339 l 42 792 l 42 936 l 678 936 l 678 792 l 229 792 l 446 339 l 228 -133 l 678 -133 z "},"−":{"ha":800,"x_min":69,"x_max":731,"o":"m 731 397 l 69 397 l 69 546 l 731 546 l 731 397 z "},"∕":{"ha":610,"x_min":-50,"x_max":689,"o":"m 82 0 l -50 0 l 557 988 l 689 988 l 82 0 z "},"∙":{"ha":400,"x_min":92,"x_max":308,"o":"m 276 544 q 292 528 276 544 q 308 468 308 513 q 276 392 308 424 q 200 360 244 360 q 124 392 156 360 q 92 468 92 424 q 124 544 92 513 q 200 576 156 576 q 276 544 244 576 z "},"√":{"ha":1108,"x_min":40,"x_max":1172,"o":"m 697 -268 l 492 -268 l 218 486 l 40 486 l 74 619 l 360 619 q 547 61 522 143 q 596 -112 590 -78 q 689 253 626 46 l 996 1254 l 1172 1254 l 697 -268 z "},"∞":{"ha":1156,"x_min":65,"x_max":1090,"o":"m 718 424 q 728 415 718 424 q 768 389 738 406 q 841 372 799 372 q 912 400 883 372 q 940 476 940 428 q 911 556 940 525 q 831 586 882 586 q 668 474 747 586 q 718 424 699 442 m 242 553 q 227 539 242 553 q 213 476 213 525 q 243 398 213 428 q 326 368 274 368 q 486 479 411 368 q 439 528 458 510 q 388 565 419 547 q 315 582 357 582 q 242 553 272 582 m 315 238 q 130 299 194 238 q 65 471 65 361 q 135 647 65 581 q 321 714 204 714 q 460 677 401 714 q 578 574 519 640 q 840 717 694 717 q 1024 654 958 717 q 1090 483 1090 592 q 1020 308 1090 375 q 835 240 950 240 q 576 379 694 240 q 513 312 542 338 q 430 262 483 286 q 315 238 376 238 z "},"∫":{"ha":447,"x_min":-26,"x_max":482,"o":"m 311 -7 q 246 -192 311 -125 q 65 -258 181 -258 q -26 -246 13 -258 l -26 -107 q 43 -121 10 -121 q 144 -7 144 -121 l 144 731 q 210 915 144 849 q 390 982 275 982 q 482 969 443 982 l 482 829 q 413 843 446 843 q 311 729 311 843 l 311 -7 z "},"≈":{"ha":833,"x_min":44,"x_max":785,"o":"m 292 300 q 151 219 213 300 l 44 306 q 261 439 142 439 q 427 401 340 439 q 549 363 514 363 q 676 440 618 363 l 785 354 q 575 224 699 224 q 419 262 506 224 q 292 300 333 300 m 292 582 q 151 500 214 582 l 44 586 q 261 721 140 721 q 427 682 340 721 q 549 643 514 643 q 676 721 618 643 l 785 636 q 575 504 697 504 q 419 543 506 504 q 292 582 333 582 z "},"≠":{"ha":800,"x_min":69,"x_max":731,"o":"m 731 251 l 344 251 l 292 136 l 197 136 l 250 251 l 69 251 l 69 388 l 314 388 l 393 558 l 69 558 l 69 693 l 456 693 l 508 808 l 601 808 l 549 693 l 731 693 l 731 558 l 486 558 l 407 388 l 731 388 l 731 251 z "},"≤":{"ha":793,"x_min":63,"x_max":724,"o":"m 724 135 l 63 135 l 63 271 l 724 271 l 724 135 m 724 660 l 158 574 l 724 488 l 724 340 l 63 467 l 63 682 l 724 807 l 724 660 z "},"≥":{"ha":793,"x_min":69,"x_max":731,"o":"m 731 135 l 69 135 l 69 271 l 731 271 l 731 135 m 731 682 l 731 467 l 69 340 l 69 488 l 635 574 l 69 660 l 69 807 l 731 682 z "},"◊":{"ha":818,"x_min":53,"x_max":765,"o":"m 497 0 l 317 0 l 53 468 l 317 936 l 497 936 l 765 468 l 497 0 m 226 468 q 408 132 378 194 q 549 388 449 218 l 594 468 q 408 804 447 728 q 271 549 368 718 l 226 468 z "},"◌":{"ha":917,"x_min":61,"x_max":856,"o":"m 374 733 q 366 742 374 733 q 357 778 357 750 q 374 822 357 806 q 418 839 392 839 q 462 822 444 839 q 479 778 479 806 q 462 733 479 750 q 418 717 444 717 q 374 733 392 717 m 594 696 q 581 696 594 696 q 550 714 568 696 q 532 758 532 732 q 549 801 532 783 q 594 819 567 819 q 638 802 621 819 q 654 758 654 785 q 637 714 654 732 q 594 696 619 696 m 681 619 q 673 627 681 619 q 664 663 664 636 q 681 707 664 689 q 725 725 699 725 q 769 708 751 725 q 786 663 786 690 q 769 619 786 636 q 725 601 751 601 q 681 619 699 601 m 750 455 q 742 464 750 455 q 733 499 733 472 q 750 542 733 525 q 794 560 767 560 q 838 542 821 560 q 856 499 856 525 q 838 455 856 472 q 794 438 821 438 q 750 455 767 438 m 738 269 q 728 277 738 269 q 719 313 719 286 q 738 357 719 339 q 781 375 756 375 q 824 357 807 375 q 842 313 842 339 q 824 269 842 286 q 781 251 807 251 q 738 269 756 251 m 635 133 q 627 141 635 133 q 618 176 618 150 q 635 220 618 203 q 679 238 653 238 q 724 220 706 238 q 742 176 742 203 q 724 133 742 150 q 679 115 706 115 q 635 133 653 115 m 467 58 q 458 67 467 58 q 450 103 450 75 q 467 147 450 131 q 511 164 483 164 q 556 147 539 164 q 574 103 574 129 q 556 59 574 76 q 511 42 539 42 q 467 58 483 42 m 336 61 q 323 61 336 61 q 292 79 310 61 q 274 124 274 97 q 292 168 274 150 q 336 186 310 186 q 380 168 363 186 q 397 124 397 150 q 380 79 397 97 q 336 61 363 61 m 150 185 q 142 194 150 185 q 133 229 133 203 q 151 273 133 256 q 194 290 168 290 q 238 273 221 290 q 256 229 256 256 q 238 185 256 203 q 194 168 221 168 q 150 185 167 168 m 78 347 q 70 356 78 347 q 61 390 61 364 q 78 435 61 417 q 122 453 96 453 q 166 435 149 453 q 183 391 183 418 q 166 347 183 364 q 122 331 149 331 q 78 347 96 331 m 97 522 q 88 530 97 522 q 79 565 79 539 q 97 609 79 592 q 142 626 115 626 q 186 609 168 626 q 204 565 204 592 q 186 522 204 539 q 142 504 168 504 q 97 522 115 504 m 254 656 q 241 656 254 656 q 210 673 228 656 q 193 717 193 690 q 210 762 193 744 q 254 779 228 779 q 298 762 281 779 q 315 717 315 744 q 298 673 315 690 q 254 656 281 656 z "},"ﬁ":{"ha":767,"x_min":42,"x_max":693,"o":"m 311 0 l 144 0 l 144 579 l 42 579 l 42 704 l 144 704 l 144 746 q 210 931 144 864 q 394 997 275 997 q 628 943 513 997 l 628 803 q 414 858 510 858 q 337 833 363 858 q 311 744 311 807 l 311 704 l 693 704 l 693 0 l 526 0 l 526 579 l 311 579 l 311 0 z "},"ﬂ":{"ha":781,"x_min":42,"x_max":690,"o":"m 451 579 l 311 579 l 311 0 l 144 0 l 144 579 l 42 579 l 42 704 l 144 704 l 144 746 q 210 931 144 864 q 402 997 275 997 q 690 917 529 997 l 690 0 l 522 0 l 522 843 q 417 858 468 858 q 339 834 367 858 q 311 744 311 810 l 311 704 l 451 704 l 451 579 z "}}}
